<svg width="24" height="24" viewBox="0 0 24 24" fill="none" xmlns="http://www.w3.org/2000/svg">
<path fill-rule="evenodd" clip-rule="evenodd" d="M10.0978 3.06836L8.79093 3.80463L11.1392 7.97274L4.61188 19.5587H3V21.0587H21V19.5587H19.3881L12.8608 7.97274L15.2091 3.80463L13.9022 3.06836L12 6.44476L10.0978 3.06836ZM6.33355 19.5587L12 9.50072L17.6665 19.5587H14.5938L14.5938 17.8304C14.5938 17.5123 14.5939 17.2032 14.5596 16.9483C14.521 16.6609 14.4268 16.3329 14.1544 16.0605C13.882 15.7881 13.554 15.694 13.2666 15.6553C13.0117 15.621 12.7026 15.6211 12.3846 15.6212H11.6154C11.2974 15.6211 10.9883 15.621 10.7334 15.6553C10.446 15.694 10.118 15.7881 9.84559 16.0605C9.57318 16.3329 9.47904 16.6609 9.4404 16.9483C9.40612 17.2032 9.40618 17.5123 9.40624 17.8304L9.40625 19.5587H6.33355ZM10.9062 19.5587H13.0938V17.8712C13.0938 17.4964 13.0922 17.2908 13.073 17.1482L13.0722 17.1427L13.0668 17.1419C12.9241 17.1228 12.7185 17.1212 12.3438 17.1212H11.6562C11.2815 17.1212 11.0759 17.1228 10.9332 17.1419L10.9278 17.1427L10.927 17.1482C10.9078 17.2908 10.9062 17.4964 10.9062 17.8712V19.5587Z" fill="#001527"/>
</svg>
