<svg width="24" height="24" viewBox="0 0 24 24" fill="none" xmlns="http://www.w3.org/2000/svg">
<path fill-rule="evenodd" clip-rule="evenodd" d="M11.4093 3.10272C11.4004 3.10384 11.3916 3.10502 11.3827 3.10627C11.3738 3.10752 11.365 3.10882 11.3562 3.11019C6.92887 3.74699 3.8479 7.84605 4.47087 12.2787L4.57525 13.0214L10.9771 12.1217L10.9771 17.0825H3.03125V18.5825H6.00869L5.04737 20.3594L6.36669 21.0732L7.71412 18.5825H14.3804L15.7278 21.0732L17.0471 20.3594L16.0567 18.5287C16.6556 18.4086 17.203 18.091 17.6065 17.6188L20.9931 13.6551L19.8527 12.6807L16.4661 16.6445C16.2286 16.9224 15.8813 17.0825 15.5157 17.0825H12.4771L12.4771 11.9109L20.6594 10.7609L20.555 10.0182C19.932 5.5856 15.8406 2.49457 11.4093 3.10272ZM16.0182 9.89847L18.9236 9.49014C18.3066 7.09282 16.4118 5.28724 14.0929 4.71683C14.227 4.90991 14.3552 5.11546 14.4773 5.33083C15.1498 6.51754 15.6969 8.11196 16.0182 9.89847ZM8.79898 10.9131C8.61539 9.10719 8.70184 7.42374 9.02117 6.09763C9.07912 5.85696 9.14571 5.62403 9.22145 5.40144C7.14959 6.58891 5.82578 8.84687 5.89349 11.3214L8.79898 10.9131ZM11.5809 4.59331C11.4569 4.61423 11.2738 4.70611 11.0605 5.0106C10.84 5.32519 10.6343 5.80569 10.4795 6.4488C10.2107 7.56482 10.1231 9.05284 10.2855 10.704L14.5316 10.1073C14.2326 8.47527 13.7382 7.06907 13.1722 6.07036C12.8461 5.49485 12.516 5.08965 12.2173 4.84801C11.9283 4.61413 11.727 4.57627 11.6021 4.59033C11.5986 4.59082 11.595 4.59132 11.5915 4.59181C11.5879 4.59231 11.5844 4.59281 11.5809 4.59331Z" fill="#001527"/>
</svg>
