<svg width="24" height="24" viewBox="0 0 24 24" fill="none" xmlns="http://www.w3.org/2000/svg">
<path d="M7.53125 12.0273V10.5273H9.03125V12.0273H7.53125Z" fill="#001527"/>
<path d="M7.53125 7.52734V9.02734H9.03125V7.52734H7.53125Z" fill="#001527"/>
<path d="M7.53125 15.0273V13.5273H9.03125V15.0273H7.53125Z" fill="#001527"/>
<path d="M7.53125 16.5273V18.0273H9.03125V16.5273H7.53125Z" fill="#001527"/>
<path d="M13.5 18.0273H16.76V16.5273H13.5V18.0273Z" fill="#001527"/>
<path d="M16.76 15.0273H13.5V13.5273H16.76V15.0273Z" fill="#001527"/>
<path d="M13.5 12.0273H16.76V10.5273H13.5V12.0273Z" fill="#001527"/>
<path fill-rule="evenodd" clip-rule="evenodd" d="M6.03125 1.4375H10.5312V4.49414H12.0625V7.82832L14.4062 7.35195L14.4063 4.49609H15.9063L15.9062 7.04707L19.75 6.26582V19.5586H21V21.0586H3V19.5586H4.5V4.49414H6.03125V1.4375ZM7.53125 2.9375V4.49391H9.03125V2.9375H7.53125ZM10.5625 19.558H6V5.99414H10.5625V19.558ZM18.25 8.10137V19.5586H12.0625V9.35899L18.25 8.10137Z" fill="#001527"/>
</svg>
