<svg width="24" height="24" viewBox="0 0 24 24" fill="none" xmlns="http://www.w3.org/2000/svg">
<path fill-rule="evenodd" clip-rule="evenodd" d="M14.0253 8.59067C14.1693 8.29411 14.25 7.96117 14.25 7.60938C14.25 6.36673 13.2426 5.35938 12 5.35938C10.7574 5.35938 9.75 6.36673 9.75 7.60938C9.75 7.96117 9.83074 8.29411 9.97469 8.59067C6.26756 9.45274 3.44888 12.6298 3.12488 16.5156H1.83276V21.0056H22.125V16.5156H20.8751C20.5511 12.6298 17.7324 9.45274 14.0253 8.59067ZM11.25 7.60938C11.25 7.19516 11.5858 6.85938 12 6.85938C12.4142 6.85938 12.75 7.19516 12.75 7.60938C12.75 8.02359 12.4142 8.35938 12 8.35938C11.5858 8.35938 11.25 8.02359 11.25 7.60938ZM12 9.85938C8.16281 9.85938 5.00718 12.7775 4.63126 16.5156H19.3687C18.9928 12.7775 15.8372 9.85938 12 9.85938ZM3.33276 18.0156V19.5056H20.625V18.0156H3.33276Z" fill="#001527"/>
</svg>
