<svg width="24" height="24" viewBox="0 0 24 24" fill="none" xmlns="http://www.w3.org/2000/svg">
<path fill-rule="evenodd" clip-rule="evenodd" d="M5.58887 3.27943C5.58887 2.17209 6.48654 1.27441 7.59388 1.27441H9.98672C10.4838 1.27441 10.8867 1.67736 10.8867 2.17441L10.8872 9.87555C11.0078 9.87524 11.1323 9.87524 11.2607 9.87524H11.3404C11.7166 9.87523 12.0593 9.87523 12.3687 9.88306V7.05371H12.3731V5.87388C12.3731 5.37682 12.7761 4.97388 13.2731 4.97388H15.608C16.7154 4.97388 17.613 5.87155 17.613 6.97888C17.613 8.08621 16.7154 8.98389 15.608 8.98389H13.8687V10.087C14.0662 10.1552 14.2552 10.2473 14.4346 10.3729C14.6969 10.5568 14.9252 10.785 15.109 11.0474C15.3929 11.4526 15.5055 11.907 15.5573 12.3979C15.5731 12.5479 15.5839 12.7092 15.5912 12.8821C15.9423 12.8928 16.2441 12.9239 16.5162 13.0129C17.3495 13.2853 18.003 13.9388 18.2755 14.7721C18.4126 15.1915 18.4122 15.6811 18.4117 16.3138L18.4116 16.4319L18.4117 16.5499C18.4122 17.1827 18.4126 17.6723 18.2755 18.0917C18.003 18.925 17.3495 19.5784 16.5162 19.8509C16.2403 19.9411 15.934 19.9718 15.5765 19.9821C15.5712 20.0583 15.5648 20.1319 15.5573 20.2029C15.5055 20.6938 15.3929 21.1482 15.109 21.5534C14.9252 21.8158 14.6969 22.0441 14.4346 22.2279C14.0293 22.5118 13.5749 22.6244 13.084 22.6762C12.6155 22.7256 12.0356 22.7256 11.3407 22.7256H11.2607C10.5657 22.7256 9.9856 22.7256 9.51705 22.6762C9.02614 22.6244 8.57175 22.5118 8.16652 22.2279C7.90414 22.0441 7.6759 21.8158 7.49209 21.5534C7.2082 21.1482 7.09553 20.6938 7.04377 20.2029C6.99435 19.7343 6.99437 19.1543 6.99438 18.4593V14.1415C6.99438 14.115 6.99438 14.0886 6.99438 14.0624V12.9492H7.00725C7.01453 12.7508 7.02592 12.5671 7.04377 12.3979C7.09553 11.907 7.2082 11.4526 7.49209 11.0474C7.6759 10.785 7.90414 10.5568 8.16652 10.3729C8.53579 10.1143 8.94587 9.99774 9.38721 9.93992V5.28444H7.59388C6.48654 5.28444 5.58887 4.38677 5.58887 3.27943ZM8.49438 14.4492V17.8443C8.49438 17.9824 8.60631 18.0943 8.74438 18.0943H10.0042C10.1422 18.0943 10.2542 17.9824 10.2542 17.8443V14.6992C10.2542 14.5611 10.1422 14.4492 10.0042 14.4492H8.49438ZM8.50545 19.5781C8.58357 19.5888 8.66334 19.5943 8.74438 19.5943H10.0042C10.9706 19.5943 11.7542 18.8108 11.7542 17.8443V14.6992C11.7542 14.603 11.7464 14.5086 11.7314 14.4165L14.1067 14.4414V18.4194C14.1067 19.1647 14.1057 19.665 14.0656 20.0456C14.0269 20.4129 13.9585 20.5813 13.8805 20.6928C13.7969 20.8121 13.6932 20.9158 13.5739 20.9994C13.4625 21.0774 13.294 21.1457 12.9267 21.1845C12.5461 21.2246 12.0458 21.2256 11.3005 21.2256C10.5553 21.2256 10.055 21.2246 9.67435 21.1845C9.30708 21.1457 9.13862 21.0774 9.02717 20.9994C8.90791 20.9158 8.80416 20.8121 8.72061 20.6928C8.64254 20.5813 8.57422 20.4129 8.5355 20.0456C8.52093 19.9075 8.51153 19.7537 8.50545 19.5781ZM7.59388 2.77441C7.31497 2.77441 7.08887 3.00052 7.08887 3.27943C7.08887 3.55834 7.31497 3.78444 7.59388 3.78444H9.38672V2.77441H7.59388ZM9.02717 11.6015C9.13862 11.5234 9.30708 11.4551 9.67435 11.4164C10.055 11.3762 10.5553 11.3752 11.3005 11.3752C12.0458 11.3752 12.5461 11.3762 12.9267 11.4164C13.294 11.4551 13.4625 11.5234 13.5739 11.6015C13.6932 11.685 13.7969 11.7888 13.8805 11.908C13.9585 12.0195 14.0269 12.1879 14.0656 12.5552C14.0778 12.6715 14.0864 12.799 14.0925 12.9412L8.51126 12.8827C8.51709 12.7637 8.52494 12.6553 8.5355 12.5552C8.57422 12.1879 8.64254 12.0195 8.72061 11.908C8.80416 11.7888 8.90791 11.685 9.02717 11.6015ZM16.0501 18.4252C15.9572 18.4555 15.8429 18.4715 15.6069 18.4795V14.3842C15.8429 14.3923 15.9572 14.4082 16.0501 14.4386C16.4289 14.5624 16.7259 14.8595 16.8497 15.2382C16.9023 15.3989 16.9116 15.6239 16.9116 16.4319C16.9116 17.2399 16.9023 17.4649 16.8497 17.6255C16.7259 18.0043 16.4289 18.3013 16.0501 18.4252ZM16.113 6.97888C16.113 6.69998 15.8869 6.47388 15.608 6.47388H13.8731V7.48389H15.608C15.8869 7.48389 16.113 7.25779 16.113 6.97888Z" fill="#001527"/>
</svg>
