<svg width="24" height="24" viewBox="0 0 24 24" fill="none" xmlns="http://www.w3.org/2000/svg">
<path fill-rule="evenodd" clip-rule="evenodd" d="M11.9043 5.61137C11.405 5.61102 11.0148 5.61075 10.6788 5.699C9.74708 5.94372 9.0194 6.6714 8.77468 7.60316C8.68645 7.93911 8.68671 8.32413 8.68705 8.81532V9.00327C8.68671 9.49447 8.68645 9.87948 8.77468 10.2154C9.0194 11.1472 9.74708 11.8749 10.6788 12.1196C11.0148 12.2078 11.405 12.2076 11.9042 12.2072H12.0969C12.5962 12.2076 12.9864 12.2078 13.3223 12.1196C14.2541 11.8749 14.9818 11.1472 15.2265 10.2154C15.3147 9.87948 15.3145 9.49447 15.3141 9.00327V8.81532C15.3145 8.32413 15.3147 7.93911 15.2265 7.60316C14.9818 6.6714 14.2541 5.94372 13.3223 5.699C12.9864 5.61075 12.5962 5.61102 12.0969 5.61137H11.9043ZM11.0599 7.14979C11.1822 7.11767 11.3579 7.11141 12.0006 7.11141C12.6433 7.11141 12.819 7.11767 12.9413 7.14979C13.3496 7.25703 13.6685 7.5759 13.7757 7.9842C13.8079 8.10672 13.8141 8.27808 13.8141 8.9093C13.8141 9.54051 13.8079 9.71187 13.7757 9.83439C13.6685 10.2427 13.3496 10.5616 12.9413 10.6688C12.819 10.7009 12.6433 10.7072 12.0006 10.7072C11.3579 10.7072 11.1822 10.7009 11.0599 10.6688C10.6516 10.5616 10.3327 10.2427 10.2255 9.83439C10.1933 9.71187 10.1871 9.54051 10.1871 8.9093C10.1871 8.27808 10.1933 8.10672 10.2255 7.9842C10.3327 7.5759 10.6516 7.25703 11.0599 7.14979Z" fill="#001527"/>
<path fill-rule="evenodd" clip-rule="evenodd" d="M5.31491 8.34973L5.23449 8.34967C4.88702 8.34926 4.57803 8.3489 4.30815 8.41978C3.56295 8.6155 2.98098 9.19748 2.78526 9.94267C2.71439 10.2125 2.71474 10.5177 2.71515 10.8597L2.71521 10.9382L2.71515 11.0166C2.71474 11.3586 2.71439 11.6638 2.78526 11.9337C2.98098 12.6789 3.56295 13.2608 4.30815 13.4565C4.57803 13.5274 4.88702 13.5271 5.2345 13.5267L5.31491 13.5266L5.39532 13.5267C5.7428 13.5271 6.05179 13.5274 6.32167 13.4565C7.06687 13.2608 7.64884 12.6789 7.84456 11.9337C7.91543 11.6638 7.91507 11.3586 7.91467 11.0167L7.91461 10.9382L7.91467 10.8597C7.91507 10.5177 7.91543 10.2125 7.84456 9.94267C7.64884 9.19748 7.06687 8.6155 6.32167 8.41978C6.05179 8.3489 5.7428 8.34926 5.39533 8.34967L5.31491 8.34973ZM4.68919 9.87058C4.74471 9.85599 4.83768 9.84973 5.31491 9.84973C5.79214 9.84973 5.88511 9.85599 5.94063 9.87058C6.16236 9.92881 6.33553 10.102 6.39377 10.3237C6.40841 10.3795 6.41461 10.4695 6.41461 10.9382C6.41461 11.4068 6.40841 11.4969 6.39377 11.5526C6.33553 11.7744 6.16236 11.9475 5.94063 12.0058C5.88511 12.0203 5.79214 12.0266 5.31491 12.0266C4.83768 12.0266 4.74471 12.0203 4.68919 12.0058C4.46745 11.9475 4.29429 11.7744 4.23605 11.5526C4.22141 11.4969 4.21521 11.4068 4.21521 10.9382C4.21521 10.4695 4.22141 10.3795 4.23605 10.3237C4.29429 10.102 4.46745 9.92881 4.68919 9.87058Z" fill="#001527"/>
<path d="M5.33169 14.25L5.36296 14.25V15.75C4.67451 15.75 4.20327 15.7506 3.8383 15.7804C3.48208 15.8095 3.29363 15.8627 3.15875 15.9314C2.84559 16.091 2.59097 16.3456 2.4314 16.6588C2.36268 16.7936 2.30951 16.9821 2.2804 17.3383C2.25058 17.7033 2.25 18.1745 2.25 18.863V19.0001H0.75V18.8317C0.749992 18.1822 0.749984 17.6494 0.785385 17.2161C0.822068 16.7672 0.90047 16.3593 1.09489 15.9778C1.39827 15.3824 1.88236 14.8983 2.47777 14.5949C2.85935 14.4005 3.26717 14.3221 3.71615 14.2854C4.14943 14.25 4.6822 14.25 5.33169 14.25Z" fill="#001527"/>
<path d="M18.8631 15.75C19.5516 15.75 20.0228 15.7506 20.3878 15.7804C20.744 15.8095 20.9324 15.8627 21.0673 15.9314C21.3805 16.091 21.6351 16.3456 21.7947 16.6588C21.8634 16.7936 21.9166 16.9821 21.9457 17.3383C21.9755 17.7033 21.9761 18.1745 21.9761 18.863V19.0001H23.4761V18.8317C23.4761 18.1822 23.4761 17.6494 23.4407 17.2161C23.404 16.7672 23.3256 16.3593 23.1312 15.9778C22.8278 15.3824 22.3437 14.8983 21.7483 14.5949C21.3667 14.4005 20.9589 14.3221 20.5099 14.2854C20.0766 14.25 19.5439 14.25 18.8944 14.25L18.8631 14.25V15.75Z" fill="#001527"/>
<path d="M11.9695 12.9482H12.0342C12.9028 12.9482 13.6004 12.9482 14.1647 12.9943C14.7446 13.0417 15.2495 13.1415 15.7151 13.3788C16.4583 13.7575 17.0626 14.3617 17.4413 15.105C17.6786 15.5706 17.7784 16.0754 17.8257 16.6554C17.8718 17.2196 17.8718 17.9171 17.8718 18.7857V19H16.3718V18.8182C16.3718 17.9098 16.3713 17.2735 16.3307 16.7776C16.2909 16.2903 16.2163 16.0049 16.1048 15.786C15.8699 15.325 15.4951 14.9502 15.0341 14.7153C14.8152 14.6037 14.5297 14.5292 14.0425 14.4893C13.5465 14.4488 12.9103 14.4482 12.0018 14.4482C11.0934 14.4482 10.4571 14.4488 9.96116 14.4893C9.47393 14.5292 9.18847 14.6037 8.96956 14.7153C8.50856 14.9502 8.13376 15.325 7.89887 15.786C7.78733 16.0049 7.71275 16.2903 7.67294 16.7776C7.63242 17.2735 7.63184 17.9098 7.63184 18.8182V19H6.13184L6.13184 18.7859C6.13183 17.9173 6.13182 17.2197 6.17792 16.6554C6.22531 16.0754 6.32512 15.5706 6.56236 15.105C6.94106 14.3617 7.54533 13.7575 8.28858 13.3788C8.75418 13.1415 9.25902 13.0417 9.83901 12.9943C10.4033 12.9482 11.1008 12.9482 11.9695 12.9482Z" fill="#001527"/>
<path fill-rule="evenodd" clip-rule="evenodd" d="M18.6897 8.34973L18.7701 8.34967C19.1176 8.34926 19.4266 8.3489 19.6965 8.41978C20.4417 8.6155 21.0237 9.19748 21.2194 9.94267C21.2903 10.2125 21.2899 10.5177 21.2895 10.8597L21.2894 10.9382L21.2895 11.0166C21.2899 11.3586 21.2903 11.6638 21.2194 11.9337C21.0237 12.6789 20.4417 13.2608 19.6965 13.4565C19.4266 13.5274 19.1176 13.5271 18.7701 13.5267L18.6897 13.5266L18.6093 13.5267C18.2618 13.5271 17.9529 13.5274 17.683 13.4565C16.9378 13.2608 16.3558 12.6789 16.1601 11.9337C16.0892 11.6638 16.0896 11.3586 16.09 11.0167L16.09 10.9382L16.09 10.8597C16.0896 10.5177 16.0892 10.2125 16.1601 9.94267C16.3558 9.19748 16.9378 8.6155 17.683 8.41978C17.9529 8.3489 18.2618 8.34926 18.6093 8.34967L18.6897 8.34973ZM19.3155 9.87058C19.2599 9.85599 19.167 9.84973 18.6897 9.84973C18.2125 9.84973 18.1195 9.85599 18.064 9.87058C17.8423 9.92881 17.6691 10.102 17.6109 10.3237C17.5962 10.3795 17.59 10.4695 17.59 10.9382C17.59 11.4068 17.5962 11.4969 17.6109 11.5526C17.6691 11.7744 17.8423 11.9475 18.064 12.0058C18.1195 12.0203 18.2125 12.0266 18.6897 12.0266C19.167 12.0266 19.2599 12.0203 19.3155 12.0058C19.5372 11.9475 19.7104 11.7744 19.7686 11.5526C19.7832 11.4969 19.7894 11.4068 19.7894 10.9382C19.7894 10.4695 19.7832 10.3795 19.7686 10.3237C19.7104 10.102 19.5372 9.92881 19.3155 9.87058Z" fill="#001527"/>
</svg>
