<svg width="24" height="24" viewBox="0 0 24 24" fill="none" xmlns="http://www.w3.org/2000/svg">
<path fill-rule="evenodd" clip-rule="evenodd" d="M9.92546 4.85352L13.7514 10.7798L17.1164 5.47852L22.9611 14.5318L21.7009 15.3454L19.6803 12.2155L18.3603 13.0438L17.1338 12.2378L15.8955 13.0515L14.7085 12.2623L18.7735 18.5587L17.5133 19.3723L13.7323 13.5156L11.889 14.6721L9.95004 13.3979L7.99924 14.6799L6.21706 13.4949L2.48957 19.3674L1.22314 18.5636L9.92546 4.85352ZM7.02109 12.2282L8.00408 12.8818L9.95004 11.603L11.9078 12.8896L12.9186 12.2553L9.93617 7.63567L7.02109 12.2282ZM18.8667 10.9552L17.1271 8.26067L15.4272 10.9388L15.9004 11.2534L17.1338 10.4428L18.3791 11.2612L18.8667 10.9552Z" fill="#001527"/>
</svg>
