<svg width="24" height="24" viewBox="0 0 24 24" fill="none" xmlns="http://www.w3.org/2000/svg">
<path fill-rule="evenodd" clip-rule="evenodd" d="M11.25 9.99996C11.25 13.325 13.3488 16.2751 16.2744 16.698V20.25H7.75488V15.7087C8.71187 15.5755 9.57436 15.1231 10.2667 14.465L10.8103 13.9483L9.77692 12.8611L9.2333 13.3778C8.79938 13.7902 8.29491 14.0683 7.75488 14.186V10.8984H6.25488V14.0915C4.87231 13.6063 3.75 12.0454 3.75 10.0007C3.75 7.52034 5.40146 5.75195 7.16563 5.75195C7.92644 5.75195 8.64476 6.06424 9.2333 6.62364L9.77692 7.14034L10.8103 6.0531L10.2667 5.5364C9.43488 4.74577 8.35746 4.25195 7.16563 4.25195C4.32857 4.25195 2.25 6.9596 2.25 10.0007C2.25 12.7058 3.89467 15.1471 6.25488 15.6535V20.25H2.25V21.75H21.7499V20.25H17.7744V16.6907C20.6745 16.2422 22.7499 13.3065 22.7499 9.99996C22.7499 6.40591 20.2978 3.25 17 3.25C13.7021 3.25 11.25 6.40591 11.25 9.99996ZM17 4.75C14.775 4.75 12.75 6.96664 12.75 9.99996C12.75 12.6991 14.3534 14.7517 16.2744 15.1711V10.1484H17.7744V15.1601C19.6736 14.7167 21.2499 12.6762 21.2499 9.99996C21.2499 6.96664 19.2249 4.75 17 4.75Z" fill="#001527"/>
</svg>
