<svg width="24" height="24" viewBox="0 0 24 24" fill="none" xmlns="http://www.w3.org/2000/svg">
<path d="M7.22656 18.6543C7.77885 18.6543 8.22656 18.2066 8.22656 17.6543C8.22656 17.102 7.77885 16.6543 7.22656 16.6543C6.67428 16.6543 6.22656 17.102 6.22656 17.6543C6.22656 18.2066 6.67428 18.6543 7.22656 18.6543Z" fill="#001527"/>
<path d="M17.7734 17.6543C17.7734 18.2066 17.3257 18.6543 16.7734 18.6543C16.2212 18.6543 15.7734 18.2066 15.7734 17.6543C15.7734 17.102 16.2212 16.6543 16.7734 16.6543C17.3257 16.6543 17.7734 17.102 17.7734 17.6543Z" fill="#001527"/>
<path fill-rule="evenodd" clip-rule="evenodd" d="M15.6056 1.42188H8.37094C8.02355 1.42187 7.7238 1.42186 7.47604 1.43969C7.215 1.45848 6.95428 1.49985 6.69844 1.61243C6.18331 1.83909 5.77183 2.25057 5.54517 2.7657C5.43259 3.02154 5.39122 3.28226 5.37243 3.5433C5.3546 3.79106 5.35461 4.0908 5.35462 4.4382L5.35462 4.48452C5.3546 4.65086 5.35458 4.8129 5.36449 4.95059C5.37534 5.10132 5.40084 5.27983 5.48165 5.4635C5.63276 5.80692 5.90708 6.08124 6.2505 6.23234C6.40655 6.30101 6.55887 6.32973 6.6936 6.34348V7.83729C5.81962 8.10219 5.1137 8.79309 4.84978 9.70415L3.26794 15.1647L3.29344 15.172C3.28909 15.1988 3.28516 15.2255 3.28159 15.252C3.23819 15.5748 3.23823 15.9717 3.23828 16.4045L3.23829 16.9129C3.23826 17.8114 3.23823 18.5606 3.3182 19.1554C3.4026 19.7832 3.58827 20.35 4.04374 20.8054C4.21573 20.9774 4.40359 21.1109 4.60461 21.215V22.5776H7.60461V21.6107C7.71248 21.6109 7.82271 21.6109 7.93527 21.6109L16.3719 21.6108V22.5776H19.3719V21.227C19.5818 21.1212 19.7776 20.9841 19.9563 20.8054C20.4117 20.35 20.5974 19.7832 20.6818 19.1554C20.7618 18.5606 20.7618 17.8114 20.7617 16.9129L20.7617 16.4045C20.7618 15.9717 20.7618 15.5748 20.7184 15.252C20.7149 15.2255 20.7109 15.1988 20.7066 15.1721L20.7321 15.1647L19.1503 9.70415C18.884 8.78493 18.1678 8.08983 17.283 7.83027V6.34348C17.4177 6.32973 17.57 6.30101 17.7261 6.23234C18.0695 6.08124 18.3438 5.80692 18.4949 5.4635C18.5757 5.27983 18.6012 5.10132 18.6121 4.95059C18.622 4.8129 18.622 4.65087 18.622 4.48454L18.622 4.43821C18.622 4.09082 18.622 3.79106 18.6041 3.5433C18.5853 3.28226 18.544 3.02154 18.4314 2.7657C18.2047 2.25057 17.7933 1.83909 17.2781 1.61243C17.0223 1.49985 16.7616 1.45848 16.5005 1.43969C16.2528 1.42186 15.953 1.42187 15.6056 1.42188ZM15.783 6.35938H8.1936V7.71932H15.783V6.35938ZM7.30256 2.98539C7.33542 2.97093 7.40356 2.94879 7.58373 2.93582C7.77116 2.92233 8.01641 2.92188 8.39628 2.92188H9.12817V4.85938H7.25045C7.05509 4.85938 6.94823 4.85892 6.8711 4.85337L6.86137 4.85262L6.86062 4.8429C6.85507 4.76577 6.85462 4.6589 6.85462 4.46354C6.85462 4.08367 6.85507 3.83842 6.86856 3.65099C6.88153 3.47082 6.90367 3.40268 6.91813 3.36982C6.99369 3.19811 7.13085 3.06095 7.30256 2.98539ZM10.6282 4.85938H13.3484V2.92188H10.6282V4.85938ZM14.8484 2.92188V4.85938H16.7261C16.9215 4.85938 17.0283 4.85892 17.1055 4.85337L17.1152 4.85262L17.1159 4.8429C17.1215 4.76577 17.122 4.6589 17.122 4.46354C17.122 4.08367 17.1215 3.83842 17.108 3.65099C17.095 3.47082 17.0729 3.40268 17.0584 3.36982C16.9829 3.19811 16.8457 3.06095 16.674 2.98539C16.6411 2.97093 16.573 2.94879 16.3928 2.93582C16.2054 2.92233 15.9602 2.92188 15.5803 2.92188H14.8484ZM5.94338 13.6992C5.69924 13.6992 5.4663 13.6992 5.25189 13.707L6.29054 10.1215C6.44536 9.58709 6.93478 9.21932 7.49118 9.21932H16.5089C17.0653 9.21932 17.5547 9.58709 17.7095 10.1215L18.7482 13.707C18.5338 13.6992 18.3011 13.6992 18.0569 13.6992H5.94338ZM4.81153 15.2725L4.81396 15.2711C4.81589 15.2701 4.81921 15.2685 4.82425 15.2664C4.84603 15.2574 4.89439 15.2421 4.99095 15.2291C5.20167 15.2008 5.49568 15.1992 5.98829 15.1992H18.0117C18.5043 15.1992 18.7983 15.2008 19.0091 15.2291C19.1056 15.2421 19.154 15.2574 19.1758 15.2664C19.1808 15.2685 19.1841 15.2701 19.1861 15.2711L19.1885 15.2725L19.1899 15.2749C19.1909 15.2768 19.1925 15.2801 19.1946 15.2852C19.2035 15.307 19.2188 15.3553 19.2318 15.4519C19.2601 15.6626 19.2617 15.9566 19.2617 16.4492V16.8609C19.2617 17.8249 19.2601 18.4724 19.1952 18.9555C19.1331 19.4169 19.0259 19.6144 18.8956 19.7448C18.7653 19.8751 18.5678 19.9823 18.1063 20.0443C17.6233 20.1093 16.9757 20.1109 16.0117 20.1109H7.98829C7.02428 20.1109 6.37672 20.1093 5.89368 20.0443C5.43222 19.9823 5.23472 19.8751 5.1044 19.7448C4.97409 19.6144 4.86687 19.4169 4.80482 18.9555C4.73988 18.4724 4.73829 17.8249 4.73829 16.8609V16.4492C4.73829 15.9566 4.73988 15.6626 4.76821 15.4519C4.78119 15.3553 4.79649 15.307 4.80545 15.2852C4.80752 15.2801 4.80914 15.2768 4.81015 15.2749L4.81153 15.2725Z" fill="#001527"/>
</svg>
