<svg width="24" height="24" viewBox="0 0 24 24" fill="none" xmlns="http://www.w3.org/2000/svg">
<path fill-rule="evenodd" clip-rule="evenodd" d="M13.3215 4.84739C15.368 2.80087 18.6925 2.80087 20.739 4.84739C22.7856 6.89391 22.7856 10.2184 20.739 12.2649L12.0405 20.9635L12.0174 20.9404L11.9597 20.9981L3.26121 12.2996C1.21469 10.253 1.21469 6.92852 3.26121 4.882C5.30773 2.83548 8.63225 2.83548 10.6788 4.882L11.9926 6.19584L12.4413 5.74419L12.4445 5.74096L13.3215 4.84739ZM12.0405 18.8422L12.0174 18.8191L11.9597 18.8768L4.32187 11.2389C2.86114 9.77816 2.86114 7.40339 4.32187 5.94266C5.7826 4.48193 8.15737 4.48193 9.6181 5.94266L11.9961 8.32067L13.5086 6.7981L14.3845 5.90568C15.8454 4.44732 18.2184 4.44811 19.6784 5.90805C21.1391 7.36878 21.1391 9.74355 19.6784 11.2043L12.0405 18.8422Z" fill="#001527"/>
</svg>
