<svg width="24" height="24" viewBox="0 0 24 24" fill="none" xmlns="http://www.w3.org/2000/svg">
<path d="M20.2322 4.96875L18.5034 6.10375C17.7038 6.62874 16.6688 6.62874 15.8691 6.10375C14.5689 5.25012 12.8841 5.25304 11.5855 6.10564C10.786 6.6305 9.7502 6.63451 8.94913 6.11554L8.88982 6.07711C7.62976 5.26076 6.01972 5.21488 4.71521 5.95815L2.98486 6.94406L3.72744 8.24735L5.45779 7.26145C6.27539 6.7956 7.28448 6.82436 8.07423 7.336L8.13354 7.37443C9.43515 8.21769 11.1138 8.20969 12.4087 7.35954C13.2091 6.83404 14.2471 6.83318 15.0459 7.35766C16.3453 8.21077 18.0273 8.21077 19.3267 7.35766L21.0554 6.22266L20.2322 4.96875Z" fill="#001527"/>
<path d="M18.5034 11.3733L20.2322 10.2383L21.0554 11.4922L19.3267 12.6272C18.0273 13.4803 16.3453 13.4803 15.0459 12.6272C14.2471 12.1027 13.2091 12.1036 12.4087 12.6291C11.1138 13.4792 9.43515 13.4872 8.13354 12.644L8.07423 12.6055C7.28448 12.0939 6.27539 12.0651 5.45779 12.531L3.72744 13.5169L2.98486 12.2136L4.71521 11.2277C6.01972 10.4844 7.62976 10.5303 8.88982 11.3466L8.94913 11.3851C9.7502 11.904 10.786 11.9 11.5855 11.3752C12.8841 10.5226 14.5689 10.5197 15.8691 11.3733C16.6688 11.8983 17.7038 11.8983 18.5034 11.3733Z" fill="#001527"/>
<path d="M18.5034 16.6428L20.2322 15.5078L21.0554 16.7617L19.3267 17.8967C18.0273 18.7498 16.3453 18.7498 15.0459 17.8967C14.2471 17.3722 13.2091 17.3731 12.4087 17.8986C11.1138 18.7488 9.43515 18.7568 8.13354 17.9135L8.07423 17.8751C7.28448 17.3634 6.27539 17.3347 5.45779 17.8005L3.72744 18.7864L2.98486 17.4831L4.71521 16.4972C6.01972 15.7539 7.62976 15.7998 8.88982 16.6162L8.94913 16.6546C9.7502 17.1736 10.786 17.1696 11.5855 16.6447C12.8841 15.7921 14.5689 15.7892 15.8691 16.6428C16.6688 17.1678 17.7038 17.1678 18.5034 16.6428Z" fill="#001527"/>
</svg>
