<svg width="24" height="24" viewBox="0 0 24 24" fill="none" xmlns="http://www.w3.org/2000/svg">
<path d="M11.9999 7.44922C12.4141 7.44922 12.7499 7.11343 12.7499 6.69922C12.7499 6.28501 12.4141 5.94922 11.9999 5.94922C11.5857 5.94922 11.2499 6.28501 11.2499 6.69922C11.2499 7.11343 11.5857 7.44922 11.9999 7.44922Z" fill="#001527"/>
<path d="M12.7499 17.3008C12.7499 17.715 12.4141 18.0508 11.9999 18.0508C11.5857 18.0508 11.2499 17.715 11.2499 17.3008C11.2499 16.8866 11.5857 16.5508 11.9999 16.5508C12.4141 16.5508 12.7499 16.8866 12.7499 17.3008Z" fill="#001527"/>
<path d="M16.5507 12C16.5507 12.4142 16.8864 12.75 17.3007 12.75C17.7149 12.75 18.0507 12.4142 18.0507 12C18.0507 11.5858 17.7149 11.25 17.3007 11.25C16.8864 11.25 16.5507 11.5858 16.5507 12Z" fill="#001527"/>
<path d="M6.6991 12.75C6.28488 12.75 5.9491 12.4142 5.9491 12C5.9491 11.5858 6.28488 11.25 6.6991 11.25C7.11331 11.25 7.4491 11.5858 7.4491 12C7.4491 12.4142 7.11331 12.75 6.6991 12.75Z" fill="#001527"/>
<path d="M13.0159 13.0153L15.3428 8.65625L10.9838 10.9832L8.65686 15.3422L13.0159 13.0153Z" fill="#001527"/>
<path fill-rule="evenodd" clip-rule="evenodd" d="M11.9999 2.96094C7.00742 2.96094 2.96094 7.00742 2.96094 11.9999C2.96094 16.9924 7.00742 21.0389 11.9999 21.0389C16.9924 21.0389 21.0389 16.9924 21.0389 11.9999C21.0389 7.00742 16.9924 2.96094 11.9999 2.96094ZM4.46094 11.9999C4.46094 7.83585 7.83585 4.46094 11.9999 4.46094C16.164 4.46094 19.5389 7.83585 19.5389 11.9999C19.5389 16.164 16.164 19.5389 11.9999 19.5389C7.83585 19.5389 4.46094 16.164 4.46094 11.9999Z" fill="#001527"/>
</svg>
