<svg width="24" height="24" viewBox="0 0 24 24" fill="none" xmlns="http://www.w3.org/2000/svg">
<path d="M12.7488 3.0459L11.2488 3.0459V6.04587H12.7488V3.0459Z" fill="#001527"/>
<path fill-rule="evenodd" clip-rule="evenodd" d="M12.5578 7.98031L11.9996 8.47899C12.5578 7.98031 12.5578 7.98031 12.5578 7.98031L12.5593 7.98207L12.5616 7.98465L12.5684 7.99231L12.5901 8.01739C12.6081 8.03841 12.6331 8.06797 12.6641 8.10565C12.7259 8.18097 12.8118 8.289 12.9136 8.42638C13.1167 8.70056 13.3858 9.09474 13.6549 9.58172C14.0319 10.264 14.4225 11.1528 14.619 12.1647C15.059 11.7872 15.5062 11.4799 15.911 11.2359C16.3875 10.9488 16.8177 10.7419 17.1307 10.6061C17.2876 10.538 17.4159 10.4874 17.5071 10.4531C17.5528 10.4359 17.5892 10.4228 17.6153 10.4136L17.6467 10.4027L17.6563 10.3995L17.6596 10.3984L17.6614 10.3978C17.6614 10.3978 17.6619 10.3977 17.8964 11.11C18.6306 10.9569 18.6307 10.9574 18.6307 10.9574L18.6311 10.9593L18.6318 10.9626L18.6338 10.9726L18.64 11.0052C18.6452 11.0324 18.652 11.0705 18.66 11.1186C18.6759 11.2148 18.6962 11.3513 18.7157 11.5211C18.7545 11.8602 18.7905 12.3361 18.78 12.8924C18.7727 13.2852 18.742 13.7253 18.6704 14.19C18.7405 14.1873 18.8093 14.1853 18.8768 14.1841C19.4331 14.1736 19.909 14.2096 20.248 14.2484C20.4179 14.2679 20.5544 14.2882 20.6505 14.3041C20.6986 14.3121 20.7367 14.3189 20.7639 14.3241L20.7965 14.3303L20.8065 14.3323L20.8099 14.333L20.8112 14.3333C20.8112 14.3333 20.8122 14.3335 20.6591 15.0677C21.3715 15.3022 21.3713 15.3027 21.3713 15.3027L21.3708 15.3045L21.3697 15.3078L21.3664 15.3174L21.3555 15.3488C21.3464 15.3749 21.3333 15.4113 21.3161 15.457C21.2818 15.5482 21.2312 15.6765 21.1631 15.8334C21.0272 16.1464 20.8204 16.5766 20.5332 17.0531C19.9642 17.9973 19.0509 19.1716 17.704 19.9493C16.357 20.7269 14.8834 20.9307 13.7812 20.9514C13.7226 20.9525 13.665 20.9531 13.6082 20.9532L10.3817 20.9541C10.3283 20.9539 10.274 20.9524 10.219 20.9514C9.1168 20.9307 7.64316 20.7269 6.29622 19.9493C4.94929 19.1716 4.03601 17.9973 3.46699 17.0531C3.17981 16.5766 2.97298 16.1464 2.83712 15.8334C2.76905 15.6765 2.71842 15.5482 2.68411 15.457C2.66694 15.4113 2.65384 15.3749 2.64466 15.3488L2.6338 15.3174L2.63054 15.3078L2.62944 15.3045L2.62903 15.3032C2.62903 15.3032 2.62871 15.3022 3.3411 15.0677C3.188 14.3335 3.18848 14.3334 3.18848 14.3334L3.19031 14.333L3.19369 14.3323L3.20369 14.3303L3.23628 14.3241C3.2635 14.3189 3.30159 14.3121 3.34969 14.3041C3.44584 14.2882 3.58233 14.2679 3.7522 14.2484C4.09124 14.2096 4.56715 14.1736 5.12343 14.1841C5.18986 14.1853 5.25764 14.1872 5.32666 14.1899C5.25508 13.7252 5.22446 13.2852 5.21708 12.8924C5.20664 12.3361 5.24258 11.8602 5.28146 11.5211C5.30093 11.3513 5.32126 11.2148 5.33716 11.1186C5.34511 11.0705 5.35197 11.0324 5.35708 11.0052L5.36336 10.9726L5.36536 10.9626L5.36606 10.9593L5.36644 10.9574C5.36644 10.9574 5.36654 10.9569 6.10074 11.11L5.36644 10.9574L5.53789 10.1352L6.33526 10.3977L6.10108 11.109C6.33526 10.3977 6.33526 10.3977 6.33526 10.3977L6.3375 10.3984L6.34078 10.3995L6.35044 10.4027L6.3818 10.4136C6.40793 10.4228 6.44434 10.4359 6.48998 10.4531C6.5812 10.4874 6.70956 10.538 6.86641 10.6061C7.17947 10.7419 7.60959 10.9488 8.08612 11.2359C8.49091 11.4799 8.938 11.7871 9.37799 12.1646C9.57448 11.1527 9.96506 10.2639 10.342 9.58172C10.6111 9.09474 10.8802 8.70056 11.0834 8.42638C11.1852 8.289 11.2711 8.18097 11.3329 8.10565C11.3638 8.06797 11.3888 8.03841 11.4069 8.01739L11.4286 7.99231L11.4353 7.98465L11.4376 7.98207L11.4389 7.98067C11.4389 7.98067 11.4392 7.98031 11.9985 8.48L11.4389 7.98067L11.9985 7.3543L12.5578 7.98031ZM3.3411 15.0677L2.62871 15.3022L2.36621 14.5049L3.18848 14.3334L3.3411 15.0677ZM20.6591 15.0677L20.8122 14.3335L21.634 14.5049L21.3713 15.3027L20.6591 15.0677ZM17.2803 12.8642C17.2716 13.3303 17.225 13.8491 17.1113 14.3787C16.4054 14.527 15.6622 14.7773 14.954 15.1861C14.5277 15.4323 14.1448 15.7181 13.8026 16.0238C13.9234 15.6134 14.0893 15.2041 14.3138 14.8152C14.9169 13.7706 15.8586 13.0189 16.6852 12.5207C16.8926 12.3957 17.0897 12.2885 17.2681 12.1983C17.2791 12.3979 17.2848 12.6222 17.2803 12.8642ZM9.68328 14.8152C9.90715 15.2029 10.0728 15.6109 10.1934 16.0201C9.85224 15.7158 9.47077 15.4313 9.04622 15.1861C8.33694 14.7766 7.59252 14.5263 6.8857 14.378C6.77208 13.8486 6.72556 13.3301 6.71682 12.8642C6.71228 12.6222 6.718 12.3979 6.72903 12.1983C6.90746 12.2885 7.10454 12.3957 7.31188 12.5207C8.13853 13.0189 9.08022 13.7706 9.68328 14.8152ZM13.2485 13.48C13.2485 13.5527 13.2469 13.6252 13.2438 13.6972C13.1643 13.8161 13.0878 13.9387 13.0148 14.0652C12.4279 15.0818 12.1679 16.1706 12.0667 17.1174C12.0437 17.1537 12.0209 17.1891 11.9985 17.2234C11.9761 17.1892 11.9534 17.1539 11.9304 17.1177C11.8293 16.1708 11.5693 15.0819 10.9823 14.0652C10.9093 13.9386 10.8327 13.8159 10.7532 13.697C10.7501 13.625 10.7485 13.5527 10.7485 13.48C10.7485 12.2739 11.1881 11.152 11.6549 10.3072C11.772 10.0953 11.8891 9.90397 11.9985 9.73657C12.1079 9.90397 12.225 10.0953 12.342 10.3072C12.8089 11.152 13.2485 12.2739 13.2485 13.48ZM4.42932 15.696C4.62898 15.685 4.85325 15.6792 5.09529 15.6838C6.06028 15.7019 7.2517 15.8821 8.29622 16.4852C9.34075 17.0882 10.0925 18.0299 10.5907 18.8566C10.7157 19.0639 10.8229 19.261 10.9131 19.4394C10.7135 19.4505 10.4892 19.4562 10.2472 19.4516C9.28217 19.4335 8.09075 19.2533 7.04622 18.6502C6.0017 18.0472 5.24991 17.1055 4.75173 16.2789C4.62678 16.0715 4.5196 15.8744 4.42932 15.696ZM13.0871 19.4394C13.2867 19.4505 13.511 19.4562 13.753 19.4516C14.718 19.4335 15.9095 19.2533 16.954 18.6502C17.9985 18.0472 18.7503 17.1055 19.2485 16.2789C19.3734 16.0715 19.4806 15.8744 19.5709 15.696C19.3712 15.685 19.147 15.6792 18.9049 15.6838C17.9399 15.7019 16.7485 15.8821 15.704 16.4852C14.6595 17.0882 13.9077 18.0299 13.4095 18.8566C13.2845 19.0639 13.1774 19.261 13.0871 19.4394Z" fill="#001527"/>
<path d="M17.8964 11.11L17.6614 10.3978L18.4592 10.1352L18.6307 10.9574L17.8964 11.11Z" fill="#001527"/>
<path d="M6.05256 6.21113L6.95529 5.01318L9.35117 6.81861L8.44845 8.01656L6.05256 6.21113Z" fill="#001527"/>
<path d="M17.0423 5.01318L17.945 6.21113L15.5492 8.01656L14.6464 6.81861L17.0423 5.01318Z" fill="#001527"/>
</svg>
