<svg width="24" height="24" viewBox="0 0 24 24" fill="none" xmlns="http://www.w3.org/2000/svg">
<path d="M9.57179 18.0986L10.6182 17.0239L7.84966 14.3282C7.14211 13.6393 6.66727 13.1747 6.35988 12.7817C6.35143 12.7709 6.34316 12.7602 6.33508 12.7496L19.3831 12.7496V11.2496L6.33518 11.2496C6.34323 11.2391 6.35146 11.2285 6.35988 11.2177C6.66727 10.8247 7.14211 10.3601 7.84966 9.67116L10.6182 6.97547L9.57179 5.90076L6.76539 8.6333C6.10548 9.2758 5.55591 9.81087 5.17834 10.2936C4.78017 10.8027 4.5 11.3428 4.5 11.9997C4.5 12.6566 4.78017 13.1967 5.17834 13.7058C5.55591 14.1885 6.10548 14.7236 6.76539 15.3661L9.57179 18.0986Z" fill="#001527"/>
</svg>
