<svg width="24" height="24" viewBox="0 0 24 24" fill="none" xmlns="http://www.w3.org/2000/svg">
<path d="M14.3113 5.90137L13.2649 6.97608L16.0334 9.67177C16.741 10.3607 17.2158 10.8253 17.5232 11.2183C17.5317 11.2291 17.5399 11.2398 17.548 11.2504L4.5 11.2504V12.7504L17.5479 12.7504C17.5399 12.7609 17.5316 12.7715 17.5232 12.7823C17.2158 13.1753 16.741 13.6399 16.0334 14.3288L13.2649 17.0245L14.3113 18.0992L17.1177 15.3667C17.7776 14.7242 18.3272 14.1891 18.7047 13.7064C19.1029 13.1973 19.3831 12.6572 19.3831 12.0003C19.3831 11.3434 19.1029 10.8033 18.7047 10.2942C18.3272 9.81148 17.7776 9.2764 17.1177 8.6339L14.3113 5.90137Z" fill="#001527"/>
</svg>
