<svg width="24" height="24" viewBox="0 0 24 24" fill="none" xmlns="http://www.w3.org/2000/svg">
<path d="M5.84277 14.3699L6.91748 13.3235L9.61318 16.092C10.3021 16.7996 10.7667 17.2744 11.1597 17.5818C11.1705 17.5903 11.1812 17.5985 11.1917 17.6066L11.1917 4.55859H12.6917L12.6917 17.6066C12.7022 17.5985 12.7129 17.5903 12.7237 17.5818C13.1167 17.2744 13.5813 16.7996 14.2702 16.092L16.9659 13.3235L18.0406 14.3699L15.3081 17.1763C14.6656 17.8362 14.1305 18.3858 13.6478 18.7634C13.1387 19.1615 12.5986 19.4417 11.9417 19.4417C11.2848 19.4417 10.7447 19.1615 10.2356 18.7634C9.75289 18.3858 9.21781 17.8362 8.57531 17.1763L5.84277 14.3699Z" fill="#001527"/>
</svg>
