<svg width="24" height="24" viewBox="0 0 24 24" fill="none" xmlns="http://www.w3.org/2000/svg">
<path d="M5.84277 9.63038L6.91748 10.6768L9.61318 7.90825C10.3021 7.2007 10.7667 6.72586 11.1597 6.41847C11.1705 6.41004 11.1812 6.40179 11.1917 6.39372L11.1917 19.4417H12.6917L12.6917 6.39372C12.7022 6.40179 12.7129 6.41004 12.7237 6.41847C13.1167 6.72586 13.5813 7.2007 14.2702 7.90825L16.9659 10.6768L18.0406 9.63039L15.3081 6.82399C14.6656 6.16408 14.1305 5.6145 13.6478 5.23694C13.1387 4.83877 12.5986 4.55859 11.9417 4.55859C11.2848 4.55859 10.7447 4.83877 10.2356 5.23694C9.75289 5.6145 9.21781 6.16408 8.57531 6.82399L5.84277 9.63038Z" fill="#001527"/>
</svg>
