<svg width="24" height="24" viewBox="0 0 24 24" fill="none" xmlns="http://www.w3.org/2000/svg">
<path fill-rule="evenodd" clip-rule="evenodd" d="M9.23876 4.17383L13.6966 8.7054C14.3171 9.33619 14.835 9.8626 15.1909 10.3362C15.5667 10.8363 15.8298 11.3635 15.8298 11.9998C15.8298 12.6361 15.5667 13.1632 15.1909 13.6634C14.835 14.137 14.3171 14.6634 13.6966 15.2942L9.23876 19.8258L8.16943 18.7738L12.5911 14.279C13.2572 13.6019 13.7031 13.1463 13.9917 12.7623C14.2672 12.3956 14.3298 12.1823 14.3298 11.9998C14.3298 11.8173 14.2672 11.6039 13.9917 11.2373C13.7031 10.8532 13.2572 10.3977 12.5911 9.72063L8.16943 5.22575L9.23876 4.17383Z" fill="#001527"/>
</svg>
