<svg width="24" height="24" viewBox="0 0 24 24" fill="none" xmlns="http://www.w3.org/2000/svg">
<path d="M9.61732 14.2985L11.521 16.202L10.4604 17.2627L8.51994 15.3225C7.8845 14.6871 7.35463 14.1573 6.99054 13.6802C6.60625 13.1766 6.33671 12.6445 6.33671 12.0003C6.33671 11.3561 6.60625 10.824 6.99054 10.3204C7.35463 9.84323 7.8845 9.31345 8.51994 8.67812L10.4604 6.73787L11.521 7.79859L9.61732 9.70206C8.93556 10.3838 8.47872 10.8428 8.18303 11.2303C7.90055 11.6005 7.83671 11.816 7.83671 12.0003C7.83671 12.1846 7.90055 12.4001 8.18303 12.7703C8.47871 13.1578 8.93556 13.6168 9.61732 14.2985Z" fill="#001527"/>
<path d="M16.6202 14.2985L18.5239 16.202L17.4633 17.2627L15.5229 15.3225C14.8874 14.6871 14.3576 14.1573 13.9935 13.6802C13.6092 13.1766 13.3396 12.6445 13.3396 12.0003C13.3396 11.3561 13.6092 10.824 13.9935 10.3204C14.3576 9.84323 14.8874 9.31345 15.5229 8.67813L17.4633 6.73787L18.5239 7.79859L16.6202 9.70206C15.9385 10.3838 15.4816 10.8428 15.186 11.2303C14.9035 11.6005 14.8396 11.816 14.8396 12.0003C14.8396 12.1846 14.9035 12.4001 15.186 12.7703C15.4816 13.1578 15.9385 13.6168 16.6202 14.2985Z" fill="#001527"/>
</svg>
