<svg width="24" height="24" viewBox="0 0 24 24" fill="none" xmlns="http://www.w3.org/2000/svg">
<path d="M14.6767 12.7712H7.24984V11.2712H14.6767C14.4757 11.0486 14.2096 10.7815 13.8583 10.4302L12.4493 9.02123L13.51 7.96057L14.9539 9.40449C15.4241 9.87459 15.8292 10.2796 16.1099 10.6476C16.4108 11.042 16.6387 11.4807 16.6387 12.0212C16.6387 12.5618 16.4108 13.0004 16.1099 13.3948C15.8292 13.7628 15.4241 14.1679 14.9539 14.6379L13.51 16.0819L12.4493 15.0212L13.8583 13.6122C14.2096 13.2609 14.4757 12.9939 14.6767 12.7712Z" fill="#001527"/>
<path fill-rule="evenodd" clip-rule="evenodd" d="M2.25 12C2.25 6.61479 6.61479 2.25 12 2.25C17.3852 2.25 21.75 6.61479 21.75 12C21.75 17.3852 17.3852 21.75 12 21.75C6.61479 21.75 2.25 17.3852 2.25 12ZM20.25 12C20.25 7.44321 16.5568 3.75 12 3.75C7.44321 3.75 3.75 7.44321 3.75 12C3.75 16.5568 7.44321 20.25 12 20.25C16.5568 20.25 20.25 16.5568 20.25 12Z" fill="#001527"/>
</svg>
