<svg width="24" height="24" viewBox="0 0 24 24" fill="none" xmlns="http://www.w3.org/2000/svg">
<path d="M10.6376 14.4442L15.8891 9.19281L14.8284 8.13215L9.57696 13.3836C9.56169 13.0841 9.56094 12.7071 9.56094 12.2103V10.2176H8.06094L8.06094 12.2596C8.06091 12.9245 8.06087 13.4974 8.12255 13.9561C8.18865 14.4477 8.33771 14.919 8.71995 15.3013C9.1022 15.6835 9.57346 15.8326 10.0651 15.8987C10.5238 15.9603 11.0967 15.9603 11.7616 15.9603L13.8036 15.9603V14.4603H11.8109C11.3142 14.4603 10.9372 14.4595 10.6376 14.4442Z" fill="#001527"/>
<path fill-rule="evenodd" clip-rule="evenodd" d="M5.10545 5.10594C8.91337 1.29802 15.0861 1.29802 18.894 5.10594C22.702 8.91386 22.702 15.0866 18.894 18.8945C15.0861 22.7024 8.91337 22.7024 5.10545 18.8945C1.29753 15.0866 1.29753 8.91386 5.10545 5.10594ZM17.8334 6.1666C14.6112 2.94447 9.38825 2.94447 6.16611 6.1666C2.94398 9.38874 2.94398 14.6117 6.16611 17.8339C9.38825 21.056 14.6112 21.056 17.8334 17.8339C21.0555 14.6117 21.0555 9.38874 17.8334 6.1666Z" fill="#001527"/>
</svg>
