<svg width="24" height="24" viewBox="0 0 24 24" fill="none" xmlns="http://www.w3.org/2000/svg">
<path d="M9.5765 10.6165L14.8278 15.8678L15.8885 14.8072L10.6371 9.55584C10.9367 9.54057 11.3137 9.53982 11.8105 9.53982L13.8031 9.53983L13.8031 8.03983L11.7611 8.03982C11.0963 8.03979 10.5234 8.03975 10.0646 8.10143C9.57301 8.16753 9.10175 8.31659 8.7195 8.69883C8.33725 9.08108 8.1882 9.55234 8.1221 10.044C8.06042 10.5027 8.06045 11.0756 8.06049 11.7404L8.06049 13.7825L9.56049 13.7825L9.56049 11.7898C9.56049 11.293 9.56123 10.9161 9.5765 10.6165Z" fill="#001527"/>
<path fill-rule="evenodd" clip-rule="evenodd" d="M5.10545 5.08446C8.91337 1.27654 15.0861 1.27654 18.894 5.08446C22.702 8.89238 22.702 15.0651 18.894 18.873C15.0861 22.681 8.91337 22.681 5.10545 18.873C1.29753 15.0651 1.29753 8.89238 5.10545 5.08446ZM17.8334 6.14512C14.6112 2.92298 9.38825 2.92298 6.16611 6.14512C2.94398 9.36725 2.94398 14.5902 6.16611 17.8124C9.38825 21.0345 14.6112 21.0345 17.8334 17.8124C21.0555 14.5902 21.0555 9.36725 17.8334 6.14512Z" fill="#001527"/>
</svg>
