<svg width="24" height="24" viewBox="0 0 24 24" fill="none" xmlns="http://www.w3.org/2000/svg">
<path d="M14.423 10.6592L9.17169 15.9106L8.11103 14.8499L13.3624 9.59857C13.0628 9.58329 12.6858 9.58255 12.189 9.58255L10.1964 9.58255V8.08255L12.2384 8.08255C12.9033 8.08251 13.4761 8.08248 13.9349 8.14416C14.4265 8.21025 14.8978 8.35931 15.28 8.74156C15.6623 9.12381 15.8113 9.59507 15.8774 10.0867C15.9391 10.5454 15.9391 11.1183 15.939 11.7832L15.939 13.8252H14.439V11.8326C14.439 11.3358 14.4383 10.9588 14.423 10.6592Z" fill="#001527"/>
<path fill-rule="evenodd" clip-rule="evenodd" d="M5.10594 5.10594C8.91386 1.29802 15.0866 1.29802 18.8945 5.10594C22.7024 8.91386 22.7024 15.0866 18.8945 18.8945C15.0866 22.7024 8.91386 22.7024 5.10594 18.8945C1.29802 15.0866 1.29802 8.91386 5.10594 5.10594ZM17.8339 6.1666C14.6117 2.94447 9.38874 2.94447 6.1666 6.1666C2.94447 9.38874 2.94447 14.6117 6.1666 17.8339C9.38874 21.056 14.6117 21.056 17.8339 17.8339C21.056 14.6117 21.056 9.38874 17.8339 6.1666Z" fill="#001527"/>
</svg>
