<svg width="24" height="24" viewBox="0 0 24 24" fill="none" xmlns="http://www.w3.org/2000/svg">
<path d="M16.0455 4.68457C17.0095 4.68457 17.657 4.68617 18.1401 4.75111C18.1485 4.75224 18.1569 4.75339 18.1651 4.75456L10.9834 11.9363L12.0441 12.9969L19.2256 5.81544C19.2267 5.82353 19.2278 5.83171 19.2289 5.83997C19.2939 6.323 19.2955 6.97056 19.2955 7.93458V11.4009H20.7955L20.7955 7.88255C20.7955 6.9841 20.7955 6.23486 20.7156 5.64009C20.6311 5.0123 20.4455 4.4455 19.99 3.99003C19.5345 3.53456 18.9677 3.34889 18.3399 3.26448C17.7452 3.18452 16.996 3.18454 16.0975 3.18457L12.5791 3.18457V4.68457L16.0455 4.68457Z" fill="#001527"/>
<path d="M10.6818 4.59338L10.7201 4.59338V6.09338C9.4125 6.09338 8.48386 6.09416 7.76129 6.16204C7.04966 6.22889 6.61474 6.35566 6.27455 6.56101C5.82288 6.83366 5.44438 7.21216 5.17173 7.66383C4.96638 8.00402 4.83961 8.43894 4.77276 9.15057C4.70487 9.87314 4.7041 10.8018 4.7041 12.1093V12.8073C4.7041 14.352 4.70517 15.4493 4.79846 16.2953C4.89015 17.1269 5.06335 17.6248 5.3468 18.0057C5.53553 18.2593 5.76026 18.484 6.01387 18.6728C6.39478 18.9562 6.89264 19.1294 7.72423 19.2211C8.57032 19.3144 9.66755 19.3155 11.2123 19.3155H11.777C13.0498 19.3155 13.9538 19.3147 14.658 19.2503C15.3517 19.1868 15.7769 19.0663 16.1103 18.8715C16.5929 18.5895 16.9945 18.1878 17.2765 17.7053C17.4714 17.3718 17.5918 16.9467 17.6553 16.253C17.7198 15.5487 17.7205 14.6448 17.7205 13.372H19.2205V13.4092C19.2205 14.6365 19.2205 15.6091 19.1491 16.3897C19.076 17.1886 18.9232 17.8605 18.5716 18.4621C18.1594 19.1674 17.5724 19.7544 16.8672 20.1665C16.2655 20.5181 15.5936 20.6709 14.7947 20.744C14.0141 20.8155 13.0416 20.8155 11.8142 20.8155H11.167C9.67773 20.8155 8.49771 20.8155 7.55983 20.7121C6.59795 20.606 5.80046 20.3837 5.11838 19.8761C4.74771 19.6003 4.41927 19.2719 4.14343 18.9012C3.63587 18.2191 3.41356 17.4216 3.3075 16.4597C3.20408 15.5219 3.20409 14.3419 3.2041 12.8526V12.0711C3.20409 10.8103 3.20409 9.8112 3.27933 9.01027C3.35636 8.19032 3.51737 7.50191 3.88756 6.88865C4.28604 6.22852 4.83924 5.67532 5.49937 5.27684C6.11263 4.90665 6.80104 4.74565 7.62099 4.66862C8.42192 4.59337 9.42101 4.59338 10.6818 4.59338Z" fill="#001527"/>
</svg>
