<svg width="24" height="24" viewBox="0 0 24 24" fill="none" xmlns="http://www.w3.org/2000/svg">
<path d="M12.0001 3.00977C7.03514 3.00977 3.00977 7.03514 3.00977 12.0001H4.50977C4.50977 7.86357 7.86357 4.50977 12.0001 4.50977C14.4205 4.50977 16.5734 5.65827 17.9437 7.44284H14.5908V8.94284H18.5835C19.55 8.94284 20.3335 8.1593 20.3335 7.19282V3.2002H18.8335V6.15937C17.1854 4.23295 14.7357 3.00977 12.0001 3.00977Z" fill="#001527"/>
<path d="M20.9907 12.0001C20.9907 16.965 16.9653 20.9904 12.0004 20.9904C9.26475 20.9904 6.81501 19.7672 5.16699 17.8407V20.7971H3.66699V16.8045C3.66699 15.838 4.45048 15.0544 5.41699 15.0544H9.40963V16.5544H6.05458C7.42484 18.3406 9.5787 19.4904 12.0004 19.4904C16.1369 19.4904 19.4907 16.1366 19.4907 12.0001H20.9907Z" fill="#001527"/>
</svg>
