<svg width="24" height="24" viewBox="0 0 24 24" fill="none" xmlns="http://www.w3.org/2000/svg">
<path d="M16.2059 4.5014C17.1933 4.48824 17.8576 4.481 18.3529 4.54155L18.3931 4.54667L12.9515 9.98828L14.0121 11.0489L19.4537 5.60738L19.4588 5.64743C19.5193 6.1427 19.512 6.80699 19.4989 7.79445V10.6683H20.9989V7.80945L20.9995 7.76162C21.0118 6.84068 21.0221 6.07373 20.9477 5.46541C20.8693 4.82388 20.6855 4.24387 20.221 3.77936C19.7565 3.31485 19.1765 3.13107 18.5349 3.05264C17.9266 2.97827 17.1596 2.98852 16.2387 3.00083L16.1909 3.00147H13.3321V4.50147L16.1959 4.50154L16.2059 4.5014Z" fill="#001527"/>
<path d="M4.54861 18.3951L9.99016 12.9535L11.0508 14.0142L5.60921 19.4558C5.62238 19.4575 5.63577 19.4592 5.64938 19.4609C6.14465 19.5214 6.80894 19.5142 7.7964 19.501L7.8064 19.5009L10.6702 19.501V21.001H7.8114L7.76358 21.0016C6.84264 21.0139 6.07568 21.0242 5.46736 20.9498C4.82583 20.8714 4.24583 20.6876 3.78131 20.2231C3.3168 19.7586 3.13302 19.1786 3.05459 18.537C2.98022 17.9287 2.99047 17.1618 3.00278 16.2408L3.00342 16.193L3.00342 13.3342H4.50342L4.50342 16.208C4.49026 17.1955 4.48296 17.8597 4.54351 18.355C4.54516 18.3686 4.54687 18.3819 4.54861 18.3951Z" fill="#001527"/>
</svg>
