<svg width="24" height="24" viewBox="0 0 24 24" fill="none" xmlns="http://www.w3.org/2000/svg">
<path d="M15.1969 9.86349L15.237 9.86859C15.7323 9.92914 16.3965 9.92191 17.384 9.90875L17.394 9.90861L20.2578 9.90868V11.4087H17.399L17.3512 11.4093C16.4302 11.4216 15.6633 11.4319 15.055 11.3575C14.4134 11.2791 13.8334 11.0953 13.3689 10.6308C12.9044 10.1663 12.7206 9.58627 12.6422 8.94474C12.5678 8.33642 12.5781 7.56946 12.5904 6.64853L12.591 6.6007V3.74189H14.091V6.6157C14.0779 7.60316 14.0706 8.26745 14.1311 8.76272L14.1362 8.80287L19.5778 3.36133L20.6384 4.42199L15.1969 9.86349Z" fill="#001527"/>
<path d="M9.86549 15.1988L4.42394 20.6404L3.36328 19.5797L8.80478 14.1382C8.79165 14.1365 8.7783 14.1348 8.76472 14.1331C8.26945 14.0725 7.60517 14.0798 6.6177 14.0929L6.6077 14.0931L3.7439 14.093L3.7439 12.593H6.6027L6.65052 12.5924C7.57146 12.5801 8.33842 12.5698 8.94675 12.6442C9.58827 12.7226 10.1683 12.9064 10.6328 13.3709C11.0973 13.8354 11.2811 14.4154 11.3595 15.057C11.4339 15.6653 11.4236 16.4322 11.4113 17.3532L11.4107 17.401V20.2598H9.91068V17.386C9.92385 16.3985 9.93115 15.7342 9.8706 15.239C9.86894 15.2254 9.86723 15.212 9.86549 15.1988Z" fill="#001527"/>
</svg>
