<svg width="24" height="24" viewBox="0 0 24 24" fill="none" xmlns="http://www.w3.org/2000/svg">
<path d="M3.75 11.2998C3.75 10.4944 4.42241 9.56324 5.97131 8.78874C7.47534 8.03667 9.6057 7.5498 12 7.5498C14.3943 7.5498 16.5247 8.03667 18.0287 8.78874C19.5776 9.56324 20.25 10.4944 20.25 11.2998C20.25 11.8059 19.9951 12.3527 19.3978 12.8994C18.7988 13.4476 17.9013 13.9482 16.7619 14.3296L16.0507 14.5676L16.5268 15.9901L17.2381 15.752C18.5097 15.3264 19.6122 14.7366 20.4105 14.006C21.2104 13.2739 21.75 12.3537 21.75 11.2998C21.75 9.6202 20.4079 8.30136 18.6996 7.44712C16.9463 6.57044 14.5767 6.0498 12 6.0498C9.4233 6.0498 7.05366 6.57044 5.30044 7.44712C3.59209 8.30136 2.25 9.6202 2.25 11.2998C2.25 12.9794 3.59209 14.2982 5.30044 15.1525C6.98356 15.9941 9.23479 16.5076 11.6919 16.5473L9.43945 18.7998L10.5001 19.8605L13.3233 17.0372C14.0068 16.3538 14.0067 15.2458 13.3233 14.5623L10.5001 11.7391L9.43945 12.7998L11.6867 15.047C9.42012 15.0066 7.4094 14.53 5.97131 13.8109C4.42241 13.0364 3.75 12.1052 3.75 11.2998Z" fill="#001527"/>
</svg>
