<svg width="24" height="24" viewBox="0 0 24 24" fill="none" xmlns="http://www.w3.org/2000/svg">
<path d="M6.94483 6.92296L8.67804 5.18974C9.31334 4.55439 9.8431 4.0246 10.3202 3.66057C10.8238 3.27634 11.3559 3.00684 12 3.00684C12.6442 3.00684 13.1762 3.27634 13.6798 3.66057C14.1569 4.02459 14.6867 4.55437 15.322 5.18969L17.0552 6.92296L15.9946 7.98362L14.2981 6.28717C13.6165 5.60551 13.1574 5.14874 12.77 4.8531L12.75 4.83797V15.4266H11.25V4.83801L11.2301 4.8531C10.8426 5.14874 10.3836 5.60551 9.70193 6.28717L8.00549 7.98362L6.94483 6.92296Z" fill="#001527"/>
<path d="M8.6232 9.42649L7.7024 9.42649C6.80393 9.42646 6.0547 9.42644 5.45992 9.5064C4.83212 9.59081 4.26532 9.77648 3.80985 10.2319C3.35438 10.6874 3.16871 11.2542 3.08431 11.882C3.00434 12.4768 3.00437 13.226 3.0044 14.1245V16.2869C3.00437 17.1854 3.00434 17.9346 3.08431 18.5294C3.16871 19.1572 3.35438 19.724 3.80985 20.1794C4.26532 20.6349 4.83212 20.8206 5.45992 20.905C6.05469 20.985 6.8039 20.9849 7.70237 20.9849H16.2976C17.1961 20.9849 17.9453 20.985 18.5401 20.905C19.1679 20.8206 19.7347 20.6349 20.1902 20.1794C20.6456 19.724 20.8313 19.1572 20.9157 18.5294C20.9957 17.9346 20.9956 17.1854 20.9956 16.2869V14.1245C20.9956 13.226 20.9957 12.4768 20.9157 11.882C20.8313 11.2542 20.6456 10.6874 20.1902 10.2319C19.7347 9.77648 19.1679 9.59081 18.5401 9.5064C17.9453 9.42644 17.1961 9.42646 16.2976 9.42649L15.3465 9.42649V10.9265H16.2456C17.2096 10.9265 17.8572 10.9281 18.3402 10.993C18.8017 11.0551 18.9992 11.1623 19.1295 11.2926C19.2598 11.4229 19.367 11.6204 19.4291 12.0819C19.494 12.5649 19.4956 13.2125 19.4956 14.1765V16.2349C19.4956 17.1989 19.494 17.8465 19.4291 18.3295C19.367 18.791 19.2598 18.9885 19.1295 19.1188C18.9992 19.2491 18.8017 19.3563 18.3402 19.4184C17.8572 19.4833 17.2096 19.4849 16.2456 19.4849H7.7544C6.79039 19.4849 6.14283 19.4833 5.65979 19.4184C5.19833 19.3563 5.00083 19.2491 4.87051 19.1188C4.7402 18.9885 4.63297 18.791 4.57093 18.3295C4.50599 17.8465 4.5044 17.1989 4.5044 16.2349V14.1765C4.5044 13.2125 4.50599 12.5649 4.57093 12.0819C4.63297 11.6204 4.7402 11.4229 4.87051 11.2926C5.00083 11.1623 5.19833 11.0551 5.65979 10.993C6.14283 10.9281 6.79039 10.9265 7.7544 10.9265H8.6232V9.42649Z" fill="#001527"/>
</svg>
