<svg width="24" height="24" viewBox="0 0 24 24" fill="none" xmlns="http://www.w3.org/2000/svg">
<path d="M18.8337 6.15959C17.1856 4.23304 14.7358 3.00977 12.0001 3.00977C7.03514 3.00977 3.00977 7.03514 3.00977 12.0001C3.00977 16.965 7.03514 20.9903 12.0001 20.9903C16.965 20.9903 20.9903 16.965 20.9903 12.0001H19.4903C19.4903 16.1365 16.1365 19.4903 12.0001 19.4903C7.86357 19.4903 4.50976 16.1365 4.50977 12.0001C4.50977 7.86357 7.86357 4.50977 12.0001 4.50977C14.6032 4.50977 16.8968 5.83817 18.2404 7.85752L18.3145 7.96892H14.591V9.46892H18.5837C19.5502 9.46892 20.3337 8.68539 20.3337 7.71891V3.72628H18.8337V6.15959Z" fill="#001527"/>
</svg>
