<svg width="24" height="24" viewBox="0 0 24 24" fill="none" xmlns="http://www.w3.org/2000/svg">
<path d="M15.8438 9.1084L12.4153 12.5064C11.9216 12.9956 11.6026 13.3097 11.3366 13.5118C11.0879 13.7009 10.9703 13.7246 10.8915 13.7263C10.8126 13.728 10.6941 13.7093 10.4375 13.531C10.1633 13.3403 9.83116 13.0402 9.31708 12.5724L8.26834 11.618L7.25879 12.7275L8.34287 13.714C8.81142 14.1404 9.2164 14.509 9.58144 14.7627C9.97341 15.0351 10.4036 15.237 10.9234 15.2259C11.4432 15.2149 11.8644 14.9948 12.2444 14.7059C12.5983 14.4369 12.9872 14.0514 13.4372 13.6054L16.8997 10.1738L15.8438 9.1084Z" fill="#001527"/>
<path fill-rule="evenodd" clip-rule="evenodd" d="M2.25 12C2.25 17.3852 6.61479 21.75 12 21.75C17.3852 21.75 21.75 17.3852 21.75 12C21.75 6.61479 17.3852 2.25 12 2.25C6.61479 2.25 2.25 6.61479 2.25 12ZM3.75 12C3.75 7.44321 7.44321 3.75 12 3.75C16.5568 3.75 20.25 7.44321 20.25 12C20.25 16.5568 16.5568 20.25 12 20.25C7.44321 20.25 3.75 16.5568 3.75 12Z" fill="#001527"/>
</svg>
