<svg width="24" height="24" viewBox="0 0 24 24" fill="none" xmlns="http://www.w3.org/2000/svg">
<path fill-rule="evenodd" clip-rule="evenodd" d="M4.17432 9.23925L8.70589 13.6971C9.33668 14.3176 9.86308 14.8355 10.3367 15.1914C10.8368 15.5672 11.364 15.8303 12.0003 15.8303C12.6366 15.8303 13.1637 15.5672 13.6639 15.1914C14.1375 14.8355 14.6639 14.3176 15.2947 13.6971L19.8262 9.23925L18.7743 8.16992L14.2794 12.5916C13.6024 13.2577 13.1468 13.7036 12.7628 13.9922C12.3961 14.2677 12.1828 14.3303 12.0003 14.3303C11.8178 14.3303 11.6044 14.2677 11.2378 13.9922C10.8537 13.7036 10.3982 13.2577 9.72111 12.5916L5.22624 8.16992L4.17432 9.23925Z" fill="#001527"/>
</svg>
