<svg width="24" height="24" viewBox="0 0 24 24" fill="none" xmlns="http://www.w3.org/2000/svg">
<path fill-rule="evenodd" clip-rule="evenodd" d="M14.7604 19.8262L10.3026 15.2946C9.68207 14.6638 9.1642 14.1374 8.80833 13.6638C8.43252 13.1637 8.16943 12.6365 8.16943 12.0002C8.16943 11.3639 8.43252 10.8368 8.80833 10.3366C9.1642 9.86302 9.68207 9.33661 10.3026 8.70583L14.7604 4.17425L15.8298 5.22617L11.4081 9.72105C10.742 10.3981 10.2961 10.8537 10.0075 11.2377C9.73201 11.6044 9.66943 11.8177 9.66943 12.0002C9.66943 12.1827 9.73201 12.3961 10.0075 12.7627C10.2961 13.1468 10.742 13.6023 11.4081 14.2794L15.8298 18.7742L14.7604 19.8262Z" fill="#001527"/>
</svg>
