<svg width="24" height="24" viewBox="0 0 24 24" fill="none" xmlns="http://www.w3.org/2000/svg">
<path d="M8.75668 9.70149L10.6604 7.79802L9.59976 6.7373L7.6593 8.67754C7.02387 9.31287 6.49399 9.84266 6.12991 10.3198C5.74562 10.8234 5.47607 11.3555 5.47607 11.9997C5.47607 12.6439 5.74562 13.176 6.12991 13.6796C6.49399 14.1568 7.02386 14.6866 7.6593 15.3219L9.59976 17.2621L10.6604 16.2014L8.75668 14.2979C8.07492 13.6162 7.61808 13.1572 7.32239 12.7697C7.03992 12.3995 6.97607 12.184 6.97607 11.9997C6.97607 11.8154 7.03992 11.5999 7.32239 11.2297C7.61808 10.8422 8.07492 10.3832 8.75668 9.70149Z" fill="#001527"/>
<path d="M15.7596 9.70149L17.6633 7.79802L16.6027 6.7373L14.6622 8.67754C14.0268 9.31287 13.4969 9.84266 13.1328 10.3198C12.7485 10.8234 12.479 11.3555 12.479 11.9997C12.479 12.6439 12.7485 13.176 13.1328 13.6796C13.4969 14.1568 14.0268 14.6865 14.6622 15.3219L16.6027 17.2621L17.6633 16.2014L15.7596 14.2979C15.0778 13.6162 14.621 13.1572 14.3253 12.7697C14.0428 12.3995 13.979 12.184 13.979 11.9997C13.979 11.8154 14.0428 11.5999 14.3253 11.2297C14.621 10.8422 15.0778 10.3832 15.7596 9.70149Z" fill="#001527"/>
</svg>
