<svg width="24" height="24" viewBox="0 0 24 24" fill="none" xmlns="http://www.w3.org/2000/svg">
<path fill-rule="evenodd" clip-rule="evenodd" d="M19.8262 14.7609L15.2947 10.3031C14.6639 9.68256 14.1375 9.16469 13.6639 8.80882C13.1637 8.43301 12.6366 8.16992 12.0003 8.16992C11.364 8.16992 10.8368 8.43301 10.3367 8.80882C9.86308 9.16469 9.33668 9.68256 8.70589 10.3031L4.17432 14.7609L5.22624 15.8303L9.72111 11.4086C10.3982 10.7425 10.8537 10.2966 11.2378 10.008C11.6044 9.7325 11.8178 9.66992 12.0003 9.66992C12.1828 9.66992 12.3961 9.7325 12.7628 10.008C13.1468 10.2966 13.6024 10.7425 14.2794 11.4085L18.7743 15.8303L19.8262 14.7609Z" fill="#001527"/>
</svg>
