<svg width="24" height="24" viewBox="0 0 24 24" fill="none" xmlns="http://www.w3.org/2000/svg">
<path d="M13.3619 14.4442L8.11043 9.19281L9.17109 8.13215L14.4226 13.3836C14.4378 13.0841 14.4386 12.7071 14.4386 12.2103V10.2176H15.9386L15.9386 12.2596C15.9386 12.9245 15.9386 13.4974 15.877 13.9561C15.8109 14.4477 15.6618 14.919 15.2796 15.3013C14.8973 15.6835 14.426 15.8326 13.9344 15.8987C13.4757 15.9603 12.9028 15.9603 12.238 15.9603L10.1959 15.9603V14.4603H12.1886C12.6854 14.4603 13.0623 14.4595 13.3619 14.4442Z" fill="#001527"/>
<path fill-rule="evenodd" clip-rule="evenodd" d="M5.10545 5.10594C8.91337 1.29802 15.0861 1.29802 18.894 5.10594C22.702 8.91386 22.702 15.0866 18.894 18.8945C15.0861 22.7024 8.91337 22.7024 5.10545 18.8945C1.29753 15.0866 1.29753 8.91386 5.10545 5.10594ZM17.8334 6.1666C14.6112 2.94447 9.38825 2.94447 6.16611 6.1666C2.94398 9.38874 2.94398 14.6117 6.16611 17.8339C9.38825 21.056 14.6112 21.056 17.8334 17.8339C21.0555 14.6117 21.0555 9.38874 17.8334 6.1666Z" fill="#001527"/>
</svg>
