<svg width="24" height="24" viewBox="0 0 24 24" fill="none" xmlns="http://www.w3.org/2000/svg">
<path d="M11.25 14.698V7.27133H12.75V14.6978C12.9726 14.4968 13.2396 14.2308 13.5909 13.8796L14.9999 12.4706L16.0605 13.5312L14.6166 14.9752C14.1465 15.4453 13.7415 15.8504 13.3735 16.1312C12.9791 16.4321 12.5405 16.6599 11.9999 16.6599C11.4593 16.6599 11.0207 16.4321 10.6263 16.1312C10.2583 15.8504 9.85326 15.4453 9.38317 14.9752L7.93923 13.5312L8.99989 12.4706L10.4089 13.8796C10.7602 14.2309 11.0274 14.497 11.25 14.698Z" fill="#001527"/>
<path fill-rule="evenodd" clip-rule="evenodd" d="M12 2.25C17.3852 2.25 21.75 6.61479 21.75 12C21.75 17.3852 17.3852 21.75 12 21.75C6.61479 21.75 2.25 17.3852 2.25 12C2.25 6.61479 6.61479 2.25 12 2.25ZM12 20.25C16.5568 20.25 20.25 16.5568 20.25 12C20.25 7.44321 16.5568 3.75 12 3.75C7.44321 3.75 3.75 7.44321 3.75 12C3.75 16.5568 7.44321 20.25 12 20.25Z" fill="#001527"/>
</svg>
