<svg width="24" height="24" viewBox="0 0 24 24" fill="none" xmlns="http://www.w3.org/2000/svg">
<path d="M6 12.7502H18V11.2502H6V12.7502Z" fill="#001527"/>
<path fill-rule="evenodd" clip-rule="evenodd" d="M18.8945 5.10594C15.0866 1.29802 8.91386 1.29802 5.10594 5.10594C1.29802 8.91386 1.29802 15.0866 5.10594 18.8945C8.91386 22.7024 15.0866 22.7024 18.8945 18.8945C22.7024 15.0866 22.7024 8.91386 18.8945 5.10594ZM6.1666 6.1666C9.38874 2.94447 14.6117 2.94447 17.8339 6.1666C21.056 9.38874 21.056 14.6117 17.8339 17.8339C14.6117 21.056 9.38874 21.056 6.1666 17.8339C2.94447 14.6117 2.94447 9.38874 6.1666 6.1666Z" fill="#001527"/>
</svg>
