<svg width="24" height="24" viewBox="0 0 24 24" fill="none" xmlns="http://www.w3.org/2000/svg">
<path d="M12.75 9.34445V16.7712H11.25V9.34466C11.0274 9.54567 10.7604 9.81167 10.4091 10.1629L9.00011 11.5719L7.93945 10.5112L9.38337 9.06733C9.85348 8.59717 10.2585 8.19207 10.6265 7.9113C11.0209 7.6104 11.4595 7.38257 12.0001 7.38257C12.5407 7.38257 12.9793 7.6104 13.3737 7.9113C13.7417 8.19207 14.1467 8.59716 14.6168 9.06731L16.0608 10.5112L15.0001 11.5719L13.5911 10.1629C13.2398 9.81155 12.9726 9.54548 12.75 9.34445Z" fill="#001527"/>
<path fill-rule="evenodd" clip-rule="evenodd" d="M12 21.75C6.61479 21.75 2.25 17.3852 2.25 12C2.25 6.61479 6.61479 2.25 12 2.25C17.3852 2.25 21.75 6.61479 21.75 12C21.75 17.3852 17.3852 21.75 12 21.75ZM12 3.75C7.44321 3.75 3.75 7.44321 3.75 12C3.75 16.5568 7.44321 20.25 12 20.25C16.5568 20.25 20.25 16.5568 20.25 12C20.25 7.44321 16.5568 3.75 12 3.75Z" fill="#001527"/>
</svg>
