<svg width="24" height="24" viewBox="0 0 24 24" fill="none" xmlns="http://www.w3.org/2000/svg">
<path d="M9.32332 11.2288L16.7502 11.2288V12.7288L9.32331 12.7288C9.52433 12.9514 9.79037 13.2185 10.1417 13.5698L11.5507 14.9788L10.49 16.0394L9.04609 14.5955C8.57593 14.1254 8.17083 13.7204 7.89006 13.3524C7.58916 12.958 7.36133 12.5193 7.36133 11.9788C7.36133 11.4382 7.58916 10.9996 7.89006 10.6052C8.17083 10.2372 8.57592 9.83215 9.04606 9.36205L10.49 7.91811L11.5507 8.97877L10.1417 10.3878C9.79037 10.7391 9.52434 11.0061 9.32332 11.2288Z" fill="#001527"/>
<path fill-rule="evenodd" clip-rule="evenodd" d="M21.75 12C21.75 17.3852 17.3852 21.75 12 21.75C6.61479 21.75 2.25 17.3852 2.25 12C2.25 6.61479 6.61479 2.25 12 2.25C17.3852 2.25 21.75 6.61479 21.75 12ZM3.75 12C3.75 16.5568 7.44321 20.25 12 20.25C16.5568 20.25 20.25 16.5568 20.25 12C20.25 7.44321 16.5568 3.75 12 3.75C7.44321 3.75 3.75 7.44321 3.75 12Z" fill="#001527"/>
</svg>
