<svg width="24" height="24" viewBox="0 0 24 24" fill="none" xmlns="http://www.w3.org/2000/svg">
<path d="M9.82379 12.8278C9.25906 12.7518 8.50543 12.7502 7.4 12.7502H6V11.2502L7.45309 11.2502C8.49211 11.2502 9.34724 11.2502 10.0237 11.3411C10.7331 11.4365 11.3573 11.6442 11.8567 12.1436C12.3561 12.643 12.5637 13.2671 12.6591 13.9766C12.75 14.653 12.75 15.5081 12.75 16.5471L12.75 18.0002H11.25V16.6002C11.25 15.4948 11.2484 14.7412 11.1725 14.1765C11.0995 13.6333 10.9703 13.3785 10.796 13.2042C10.6218 13.03 10.3669 12.9008 9.82379 12.8278Z" fill="#001527"/>
<path d="M16.6 11.2502C15.4946 11.2502 14.7409 11.2486 14.1762 11.1727C13.6331 11.0997 13.3782 10.9705 13.204 10.7963C13.0297 10.622 12.9005 10.3672 12.8275 9.82403C12.7516 9.2593 12.75 8.50567 12.75 7.40024L12.75 6.00024H11.25L11.25 7.45333C11.25 8.49235 11.25 9.34748 11.3409 10.0239C11.4363 10.7334 11.6439 11.3575 12.1433 11.8569C12.6427 12.3563 13.2669 12.564 13.9763 12.6593C14.6528 12.7503 15.5079 12.7503 16.5469 12.7502L18 12.7502V11.2502H16.6Z" fill="#001527"/>
<path fill-rule="evenodd" clip-rule="evenodd" d="M5.10594 5.10594C8.91386 1.29802 15.0866 1.29802 18.8945 5.10594C22.7024 8.91386 22.7024 15.0866 18.8945 18.8945C15.0866 22.7024 8.91386 22.7024 5.10594 18.8945C1.29802 15.0866 1.29802 8.91386 5.10594 5.10594ZM17.8339 6.1666C14.6117 2.94447 9.38874 2.94447 6.1666 6.1666C2.94447 9.38874 2.94447 14.6117 6.1666 17.8339C9.38874 21.056 14.6117 21.056 17.8339 17.8339C21.056 14.6117 21.056 9.38874 17.8339 6.1666Z" fill="#001527"/>
</svg>
