<svg width="24" height="24" viewBox="0 0 24 24" fill="none" xmlns="http://www.w3.org/2000/svg">
<path d="M12.75 14.6265V3.01855H11.25V14.5901C10.8648 14.2963 10.408 13.8438 9.73131 13.1702L5.33955 8.79826L4.2813 9.86132L8.70979 14.2698C9.34386 14.901 9.8727 15.4275 10.3489 15.7893C10.8515 16.1712 11.3822 16.4389 12.0242 16.4389C12.6662 16.4389 13.1969 16.1712 13.6995 15.7893C14.1757 15.4275 14.7045 14.9011 15.3386 14.2698L19.7671 9.86132L18.7088 8.79826L14.3171 13.1702C13.6367 13.8475 13.1786 14.3013 12.7921 14.5949C12.7778 14.6058 12.7638 14.6163 12.75 14.6265Z" fill="#001527"/>
<path d="M20 20.9402H4V19.4402H20V20.9402Z" fill="#001527"/>
</svg>
