<svg width="24" height="24" viewBox="0 0 24 24" fill="none" xmlns="http://www.w3.org/2000/svg">
<path d="M6.26444 15.2762L6.26444 16.052C6.26441 16.9505 6.26438 17.6997 6.34435 18.2945C6.42875 18.9223 6.61442 19.4891 7.06989 19.9445C7.52536 20.4 8.09216 20.5857 8.71996 20.6701C9.31474 20.7501 10.064 20.75 10.9624 20.75H15.5396C16.4381 20.75 17.1873 20.7501 17.7821 20.6701C18.4099 20.5857 18.9767 20.4 19.4322 19.9445C19.8877 19.4891 20.0733 18.9223 20.1577 18.2945C20.2377 17.6997 20.2377 16.9505 20.2376 16.052V7.94801C20.2377 7.04954 20.2377 6.3003 20.1577 5.70552C20.0733 5.07773 19.8877 4.51093 19.4322 4.05546C18.9767 3.59999 18.4099 3.41432 17.7821 3.32991C17.1873 3.24995 16.4381 3.24997 15.5396 3.25H10.9624C10.064 3.24997 9.31474 3.24995 8.71996 3.32991C8.09216 3.41432 7.52536 3.59999 7.06989 4.05546C6.61442 4.51093 6.42875 5.07773 6.34435 5.70552C6.26438 6.3003 6.26441 7.04952 6.26444 7.948L6.26444 8.75317H7.76444V8C7.76444 7.03599 7.76603 6.38843 7.83097 5.90539C7.89301 5.44393 8.00024 5.24643 8.13055 5.11612C8.26087 4.9858 8.45837 4.87858 8.91983 4.81654C9.40287 4.75159 10.0504 4.75 11.0144 4.75H15.4876C16.4517 4.75 17.0992 4.75159 17.5822 4.81654C18.0437 4.87858 18.2412 4.9858 18.3715 5.11612C18.5018 5.24643 18.6091 5.44393 18.6711 5.90539C18.736 6.38843 18.7376 7.03599 18.7376 8V16C18.7376 16.964 18.736 17.6116 18.6711 18.0946C18.6091 18.5561 18.5018 18.7536 18.3715 18.8839C18.2412 19.0142 18.0437 19.1214 17.5822 19.1835C17.0992 19.2484 16.4517 19.25 15.4876 19.25H11.0144C10.0504 19.25 9.40287 19.2484 8.91983 19.1835C8.45837 19.1214 8.26087 19.0142 8.13055 18.8839C8.00024 18.7536 7.89301 18.5561 7.83097 18.0946C7.76603 17.6116 7.76444 16.964 7.76444 16V15.2762H6.26444Z" fill="#001527"/>
<path d="M2.76172 11.25H12.7009L10.4511 9.00003L11.5118 7.93937L13.6593 10.0869C13.9654 10.393 14.2461 10.6736 14.4437 10.9326C14.6613 11.2177 14.8475 11.563 14.8474 12.0001C14.8474 12.4371 14.6612 12.7823 14.4435 13.0675C14.2459 13.3265 13.9652 13.607 13.659 13.913L11.5116 16.0597L10.4511 14.9989L12.7005 12.75H2.76172V11.25Z" fill="#001527"/>
</svg>
