<svg width="24" height="24" viewBox="0 0 24 24" fill="none" xmlns="http://www.w3.org/2000/svg">
<path d="M9.49903 15.2762L9.49902 16.052C9.499 16.9505 9.49897 17.6997 9.57894 18.2945C9.66334 18.9223 9.84901 19.4891 10.3045 19.9445C10.76 20.4 11.3268 20.5857 11.9545 20.6701C12.5493 20.7501 13.2985 20.75 14.197 20.75H17.2781C18.1766 20.75 18.9258 20.7501 19.5206 20.6701C20.1484 20.5857 20.7152 20.4 21.1707 19.9445C21.6262 19.4891 21.8118 18.9223 21.8962 18.2945C21.9762 17.6997 21.9762 16.9505 21.9761 16.052V7.94801C21.9762 7.04954 21.9762 6.3003 21.8962 5.70552C21.8118 5.07773 21.6262 4.51093 21.1707 4.05546C20.7152 3.59999 20.1484 3.41432 19.5206 3.32991C18.9258 3.24995 18.1766 3.24997 17.2781 3.25H14.197C13.2985 3.24997 12.5493 3.24995 11.9545 3.32991C11.3268 3.41432 10.76 3.59999 10.3045 4.05546C9.84901 4.51093 9.66334 5.07773 9.57894 5.70552C9.49897 6.3003 9.499 7.04951 9.49902 7.94798L9.49903 8.75317H10.999V8C10.999 7.03599 11.0006 6.38843 11.0656 5.90539C11.1276 5.44393 11.2348 5.24643 11.3651 5.11612C11.4955 4.9858 11.693 4.87858 12.1544 4.81654C12.6375 4.75159 13.285 4.75 14.249 4.75H17.2261C18.1901 4.75 18.8377 4.75159 19.3207 4.81654C19.7822 4.87858 19.9797 4.9858 20.11 5.11612C20.2403 5.24643 20.3476 5.44393 20.4096 5.90539C20.4745 6.38843 20.4761 7.03599 20.4761 8V16C20.4761 16.964 20.4745 17.6116 20.4096 18.0946C20.3476 18.5561 20.2403 18.7536 20.11 18.8839C19.9797 19.0142 19.7822 19.1214 19.3207 19.1835C18.8377 19.2484 18.1901 19.25 17.2261 19.25H14.249C13.285 19.25 12.6375 19.2484 12.1544 19.1835C11.693 19.1214 11.4955 19.0142 11.3651 18.8839C11.2348 18.7536 11.1276 18.5561 11.0656 18.0946C11.0006 17.6116 10.999 16.964 10.999 16V15.2762H9.49903Z" fill="#001527"/>
<path d="M5.06149 12.75H14.9998V11.25H5.06112L7.31088 9.00003L6.25022 7.93937L4.10269 10.0869C3.79656 10.393 3.51588 10.6736 3.31829 10.9326C3.1007 11.2177 2.91451 11.563 2.91455 12.0001C2.91459 12.4371 3.10083 12.7823 3.31847 13.0675C3.51611 13.3265 3.79683 13.607 4.10301 13.913L6.2504 16.0597L7.31088 14.9989L5.06149 12.75Z" fill="#001527"/>
</svg>
