<svg width="24" height="24" viewBox="0 0 24 24" fill="none" xmlns="http://www.w3.org/2000/svg">
<path d="M16.6 11.25C15.4946 11.25 14.7409 11.2484 14.1762 11.1725C13.6331 11.0995 13.3782 10.9703 13.204 10.796C13.0297 10.6218 12.9005 10.3669 12.8275 9.82379C12.7516 9.25906 12.75 8.50543 12.75 7.4V4H11.25L11.25 7.45312C11.25 8.49214 11.25 9.34724 11.3409 10.0237C11.4363 10.7331 11.6439 11.3573 12.1433 11.8567C12.6427 12.3561 13.2669 12.5637 13.9763 12.6591C14.6528 12.75 15.5079 12.75 16.5469 12.75L20 12.75V11.25H16.6Z" fill="#001527"/>
<path d="M7.4 12.75C8.50543 12.75 9.25906 12.7516 9.82379 12.8275C10.3669 12.9005 10.6218 13.0297 10.796 13.204C10.9703 13.3782 11.0995 13.6331 11.1725 14.1762C11.2484 14.7409 11.25 15.4946 11.25 16.6V20H12.75V16.5469C12.75 15.5079 12.75 14.6528 12.6591 13.9763C12.5637 13.2669 12.3561 12.6427 11.8567 12.1433C11.3573 11.6439 10.7331 11.4363 10.0237 11.3409C9.34724 11.25 8.49212 11.25 7.45309 11.25L4 11.25V12.75H7.4Z" fill="#001527"/>
</svg>
