<svg width="24" height="24" viewBox="0 0 24 24" fill="none" xmlns="http://www.w3.org/2000/svg">
<path d="M4 3.05957H20V4.55957H4V3.05957Z" fill="#001527"/>
<path d="M11.208 9.40483C10.8214 9.6985 10.3634 10.1523 9.68296 10.8296L5.29121 15.2015L4.23296 14.1384L8.66147 9.72993C9.29552 9.0987 9.82436 8.57221 10.3005 8.21045C10.8032 7.82855 11.3339 7.56083 11.9759 7.56083C12.6178 7.56083 13.1485 7.82855 13.6512 8.21045C14.1273 8.57222 14.6562 9.0987 15.2903 9.72995L19.7187 14.1384L18.6605 15.2015L14.2687 10.8296C13.5921 10.156 13.1353 9.7035 12.7501 9.40968L12.7501 20.9812H11.2501L11.2501 9.37324C11.2363 9.38345 11.2222 9.39398 11.208 9.40483Z" fill="#001527"/>
</svg>
