<svg width="24" height="24" viewBox="0 0 24 24" fill="none" xmlns="http://www.w3.org/2000/svg">
<path d="M15.3 2.625V1.5H16.8V2.625H17.925V4.125H16.8V5.25H15.3V4.125H14.175V2.625H15.3Z" fill="#001527"/>
<path d="M7.38967 4.98194C8.85256 3.51904 11.2324 3.51904 12.6953 4.98194C14.1582 6.44483 14.1582 8.8247 12.6953 10.2876C11.9679 11.015 11.0114 11.3923 10.05 11.3923H3V9.89227H10.05C10.6186 9.89227 11.1921 9.66949 11.6347 9.22693C12.5118 8.34983 12.5118 6.9197 11.6347 6.0426C10.7576 5.16549 9.32744 5.16549 8.45033 6.0426L7.38967 4.98194Z" fill="#001527"/>
<path d="M11.67 15.397H1.5V13.897H11.67C12.5065 13.897 13.3295 14.2108 13.9703 14.8516C15.2382 16.1195 15.2382 18.1844 13.9703 19.4523C12.7024 20.7202 10.6376 20.7202 9.36967 19.4523L10.4303 18.3916C11.1124 19.0737 12.2276 19.0737 12.9097 18.3916C13.5918 17.7095 13.5918 16.5944 12.9097 15.9123C12.5605 15.5631 12.1235 15.397 11.67 15.397Z" fill="#001527"/>
<path d="M20.8403 8.11735C19.6324 6.90945 17.6726 6.90945 16.4647 8.11735L17.5253 9.17801C18.1474 8.5559 19.1576 8.5559 19.7797 9.17801C20.4018 9.80011 20.4018 10.8102 19.7797 11.4323L19.771 11.4411C19.4732 11.7489 19.073 11.9027 18.66 11.9027H14.25V13.4027H18.66C19.4451 13.4027 20.243 13.1079 20.8446 12.4887C22.0482 11.2804 22.0468 9.3238 20.8403 8.11735Z" fill="#001527"/>
<path d="M18.375 18.375V17.25H19.875V18.375H21V19.875H19.875V21H18.375V19.875H17.25V18.375H18.375Z" fill="#001527"/>
</svg>
