<svg width="24" height="24" viewBox="0 0 24 24" fill="none" xmlns="http://www.w3.org/2000/svg">
<path d="M13.245 3.85547V2.73047H14.745V3.85547H15.87V5.35547H14.745V6.48047H13.245V5.35547H12.12V3.85547H13.245Z" fill="#001527"/>
<path fill-rule="evenodd" clip-rule="evenodd" d="M10.8693 3.75488L9.9103 5.09747C8.11187 7.61528 8.30336 11.2042 10.5303 13.4312C12.3096 15.2104 14.9076 15.6716 17.1714 14.9472L18.7111 14.4545L18.093 15.9483C16.7836 19.1126 13.6205 21.4115 10 21.4115C5.18579 21.4115 1.25 17.4758 1.25 12.6615C1.25 8.06538 4.75318 4.35158 9.22718 3.91509L10.8693 3.75488ZM7.85074 5.71892C4.88691 6.65685 2.75 9.3945 2.75 12.6615C2.75 16.6473 6.01421 19.9115 10 19.9115C12.4404 19.9115 14.6509 18.6362 15.9702 16.7264C13.6702 16.9743 11.2534 16.2756 9.46967 14.4919C7.1198 12.142 6.61149 8.6159 7.85074 5.71892Z" fill="#001527"/>
<path d="M18.75 7.875V5.64648H20.25V7.875H22.5V9.375H20.25V11.6462H18.75V9.375H16.5V7.875H18.75Z" fill="#001527"/>
</svg>
