<svg width="24" height="24" viewBox="0 0 24 24" fill="none" xmlns="http://www.w3.org/2000/svg">
<path fill-rule="evenodd" clip-rule="evenodd" d="M5.14655 7.54429C5.52206 4.8282 7.91606 2.75098 10.773 2.75098C13.2711 2.75098 15.4224 4.33854 16.1626 6.56002C16.5085 6.47926 16.8678 6.43998 17.233 6.43998C19.7057 6.43998 21.75 8.39161 21.75 10.845C21.75 13.2981 19.706 15.251 17.233 15.251H6.273C4.07315 15.251 2.25 13.5132 2.25 11.325C2.25 9.50374 3.48621 8.01305 5.14655 7.54429ZM10.773 4.25098C8.48563 4.25098 6.65357 6.02876 6.59674 8.18573L6.57973 8.83117L5.93894 8.91032C4.69053 9.06452 3.75 10.0866 3.75 11.325C3.75 12.6427 4.85885 13.751 6.273 13.751H17.233C18.92 13.751 20.25 12.4279 20.25 10.845C20.25 9.26235 18.9203 7.93998 17.233 7.93998C16.7524 7.93998 16.3212 8.03603 15.9579 8.21199L15.0469 8.65318L14.8901 7.65317C14.5913 5.74779 12.8707 4.25098 10.773 4.25098Z" fill="#001527"/>
<path d="M7.42082 16.4829L5.54582 20.2329L4.20418 19.562L6.07918 15.8121L7.42082 16.4829Z" fill="#001527"/>
<path d="M8.36833 22.0877L10.5379 17.7485L9.1963 17.0777L7.02669 21.4169L8.36833 22.0877Z" fill="#001527"/>
<path d="M14.9208 16.4829L12.6708 20.9829L11.3292 20.312L13.5792 15.8121L14.9208 16.4829Z" fill="#001527"/>
<path d="M16.9028 20.0192L18.2959 17.2329L16.9543 16.5621L15.5611 19.3484L16.9028 20.0192Z" fill="#001527"/>
</svg>
