<svg width="24" height="24" viewBox="0 0 24 24" fill="none" xmlns="http://www.w3.org/2000/svg">
<path d="M10.4841 12.0754L7.00652 14.0817L3.51809 13.1533L3.13232 14.6029L5.16534 15.1439L3.10254 16.334L3.85212 17.6333L5.90515 16.4488L5.37081 18.4486L6.81996 18.8358L7.74075 15.3898L11.2357 13.3735V17.2975L8.70044 19.8327L9.7611 20.8934L11.2357 19.4188V21.9H12.7357V19.3883L14.2256 20.8782L15.2862 19.8175L12.7357 17.267V13.3744L16.1202 15.327L17.0609 18.8089L18.509 18.4177L17.9609 16.3889L20.1195 17.6342L20.8691 16.335L18.7169 15.0933L20.7183 14.5585L20.3311 13.1094L16.8776 14.0322L13.4858 12.0754L16.8776 10.1185L20.3471 11.0419L20.7328 9.59231L18.7188 9.05633L20.8689 7.81588L20.1193 6.5166L17.9549 7.76531L18.4943 5.7466L17.0452 5.35938L16.1193 8.82431L12.7357 10.7764V6.73068L15.271 4.19543L14.2103 3.13477L12.7357 4.60936V2.25H11.2357V4.63986L9.74584 3.14999L8.68518 4.21065L11.2357 6.76118V10.7773L7.74484 8.7633L6.80412 5.28125L5.35603 5.67247L5.90417 7.70138L3.85224 6.51758L3.10266 7.81686L5.14798 8.99685L3.14673 9.5316L3.53395 10.9808L6.9873 10.058L10.4841 12.0754Z" fill="#001527"/>
</svg>
