<svg width="24" height="24" viewBox="0 0 24 24" fill="none" xmlns="http://www.w3.org/2000/svg">
<path fill-rule="evenodd" clip-rule="evenodd" d="M10.773 1.5C7.91606 1.5 5.52206 3.57722 5.14655 6.29331C3.48621 6.76207 2.25 8.25277 2.25 10.074C2.25 12.2623 4.07315 14 6.273 14H17.233C19.706 14 21.75 12.0471 21.75 9.594C21.75 7.14063 19.7057 5.189 17.233 5.189C16.8678 5.189 16.5085 5.22828 16.1626 5.30904C15.4224 3.08756 13.2711 1.5 10.773 1.5ZM6.59674 6.93475C6.65357 4.77778 8.48563 3 10.773 3C12.8707 3 14.5913 4.49681 14.8901 6.40219L15.0469 7.4022L15.9579 6.96101C16.3212 6.78505 16.7524 6.689 17.233 6.689C18.9203 6.689 20.25 8.01137 20.25 9.594C20.25 11.1769 18.92 12.5 17.233 12.5H6.273C4.85885 12.5 3.75 11.3917 3.75 10.074C3.75 8.83565 4.69053 7.81354 5.93894 7.65934L6.57973 7.58019L6.59674 6.93475Z" fill="#001527"/>
<path d="M7.05 16.65C7.05 17.1471 6.64706 17.55 6.15 17.55C5.77127 17.55 5.44717 17.3161 5.31433 16.9848C5.2628 16.8761 5.24121 16.7629 5.24121 16.6603C5.24121 16.5876 5.25204 16.5096 5.27666 16.4317C5.37424 16.0401 5.72824 15.75 6.15 15.75C6.64706 15.75 7.05 16.1529 7.05 16.65Z" fill="#001527"/>
<path d="M17.4 17.55C17.8971 17.55 18.3 17.1471 18.3 16.65C18.3 16.1529 17.8971 15.75 17.4 15.75C16.9029 15.75 16.5 16.1529 16.5 16.65C16.5 17.1471 16.9029 17.55 17.4 17.55Z" fill="#001527"/>
<path d="M12.9499 20.0475C12.9499 20.5445 12.547 20.9475 12.0499 20.9475C11.5528 20.9475 11.1499 20.5445 11.1499 20.0475C11.1499 19.5504 11.5528 19.1475 12.0499 19.1475C12.547 19.1475 12.9499 19.5504 12.9499 20.0475Z" fill="#001527"/>
</svg>
