<svg width="24" height="24" viewBox="0 0 24 24" fill="none" xmlns="http://www.w3.org/2000/svg">
<path d="M10.5771 2.6377C7.44426 2.6377 4.82452 4.92801 4.43805 7.91053C2.61269 8.40335 1.24927 10.031 1.24927 12.0218C1.24927 14.3918 3.22442 16.2771 5.61159 16.2771H7.30655V14.7756H5.61159C4.01091 14.7756 2.75077 13.5204 2.75077 12.0218C2.75077 10.6144 3.81968 9.45574 5.23356 9.2811L5.87499 9.20187L5.89201 8.55578C5.95586 6.13225 8.01329 4.1392 10.5771 4.1392C12.9283 4.1392 14.8602 5.81709 15.1959 7.95825L15.3529 8.95926L16.2648 8.51763C16.6774 8.31783 17.1648 8.2098 17.7053 8.2098C19.6074 8.2098 21.1113 9.70119 21.1113 11.4921C21.1113 13.2833 19.6071 14.7756 17.7053 14.7756H15.2493V16.2771H17.7053C20.3939 16.2771 22.6128 14.1544 22.6128 11.4921C22.6128 8.82958 20.3936 6.7083 17.7053 6.7083C17.2836 6.7083 16.8697 6.75642 16.4732 6.85528C15.6882 4.40078 13.3263 2.6377 10.5771 2.6377Z" fill="#001527"/>
<path d="M12.0162 13.8359L10.6746 13.165L8.08643 18.3414H11.6921L10.3226 20.6133L11.6073 21.3876L14.3478 16.8414H10.5135L12.0162 13.8359Z" fill="#001527"/>
</svg>
