<svg width="24" height="24" viewBox="0 0 24 24" fill="none" xmlns="http://www.w3.org/2000/svg">
<path fill-rule="evenodd" clip-rule="evenodd" d="M6.83203 14.2552V11.7646H8.33203V14.2552C9.30084 14.5709 10.001 15.4815 10.001 16.5557C10.001 17.8916 8.91798 18.9746 7.58203 18.9746C6.24608 18.9746 5.16309 17.8916 5.16309 16.5557C5.16309 15.4815 5.86322 14.5709 6.83203 14.2552ZM7.58203 15.6367C7.07451 15.6367 6.66309 16.0481 6.66309 16.5557C6.66309 17.0632 7.07451 17.4746 7.58203 17.4746C8.08955 17.4746 8.50098 17.0632 8.50098 16.5557C8.50098 16.0481 8.08955 15.6367 7.58203 15.6367Z" fill="#001527"/>
<path fill-rule="evenodd" clip-rule="evenodd" d="M3.83203 5.75C3.83203 3.67893 5.51096 2 7.58203 2C9.6531 2 11.332 3.67893 11.332 5.75V12.4768C12.407 13.4793 13.082 14.9107 13.082 16.5C13.082 19.5376 10.6196 22 7.58203 22C4.54447 22 2.08203 19.5376 2.08203 16.5C2.08203 14.9107 2.75709 13.4793 3.83203 12.4768V5.75ZM5.33203 13.1923V5.75C5.33203 4.50736 6.33939 3.5 7.58203 3.5C8.82467 3.5 9.83203 4.50736 9.83203 5.75V13.1923C10.8884 13.9123 11.582 15.1252 11.582 16.5C11.582 18.7091 9.79117 20.5 7.58203 20.5C5.37289 20.5 3.58203 18.7091 3.58203 16.5C3.58203 15.1252 4.27565 13.9123 5.33203 13.1923Z" fill="#001527"/>
<path d="M22.5 7.65039H15V6.15039H22.5V7.65039Z" fill="#001527"/>
<path d="M15 4.65039H22.5V3.15039H15V4.65039Z" fill="#001527"/>
<path d="M22.5 10.6504H15V9.15039H22.5V10.6504Z" fill="#001527"/>
<path d="M15 13.6504H22.5V12.1504H15V13.6504Z" fill="#001527"/>
</svg>
