<svg width="24" height="24" viewBox="0 0 24 24" fill="none" xmlns="http://www.w3.org/2000/svg">
<path fill-rule="evenodd" clip-rule="evenodd" d="M10.773 1.5C7.91606 1.5 5.52206 3.57722 5.14655 6.29331C3.48621 6.76207 2.25 8.25277 2.25 10.074C2.25 12.2623 4.07315 14 6.273 14H17.233C19.706 14 21.75 12.0471 21.75 9.594C21.75 7.14063 19.7057 5.189 17.233 5.189C16.8678 5.189 16.5085 5.22828 16.1626 5.30904C15.4224 3.08756 13.2711 1.5 10.773 1.5ZM6.59674 6.93475C6.65357 4.77778 8.48563 3 10.773 3C12.8707 3 14.5913 4.49681 14.8901 6.40219L15.0469 7.4022L15.9579 6.96101C16.3212 6.78505 16.7524 6.689 17.233 6.689C18.9203 6.689 20.25 8.01137 20.25 9.594C20.25 11.1769 18.92 12.5 17.233 12.5H6.273C4.85885 12.5 3.75 11.3917 3.75 10.074C3.75 8.83565 4.69053 7.81354 5.93894 7.65934L6.57973 7.58019L6.59674 6.93475Z" fill="#001527"/>
<path d="M7.05 16.65C7.05 17.1471 6.64706 17.55 6.15 17.55C5.77127 17.55 5.44717 17.3161 5.31433 16.9848C5.2628 16.8761 5.24121 16.7629 5.24121 16.6603C5.24121 16.5876 5.25204 16.5096 5.27666 16.4317C5.37424 16.0401 5.72824 15.75 6.15 15.75C6.64706 15.75 7.05 16.1529 7.05 16.65Z" fill="#001527"/>
<path d="M11.8502 17.55C12.3473 17.55 12.7502 17.1471 12.7502 16.65C12.7502 16.1529 12.3473 15.75 11.8502 15.75C11.3531 15.75 10.9502 16.1529 10.9502 16.65C10.9502 17.1471 11.3531 17.55 11.8502 17.55Z" fill="#001527"/>
<path d="M18.3 16.65C18.3 17.1471 17.8971 17.55 17.4 17.55C16.9029 17.55 16.5 17.1471 16.5 16.65C16.5 16.1529 16.9029 15.75 17.4 15.75C17.8971 15.75 18.3 16.1529 18.3 16.65Z" fill="#001527"/>
<path d="M9.15 20.9465C9.64706 20.9465 10.05 20.5435 10.05 20.0465C10.05 19.5494 9.64706 19.1465 9.15 19.1465C8.65294 19.1465 8.25 19.5494 8.25 20.0465C8.25 20.5435 8.65294 20.9465 9.15 20.9465Z" fill="#001527"/>
<path d="M15.5998 20.0465C15.5998 20.5435 15.1969 20.9465 14.6998 20.9465C14.2027 20.9465 13.7998 20.5435 13.7998 20.0465C13.7998 19.5494 14.2027 19.1465 14.6998 19.1465C15.1969 19.1465 15.5998 19.5494 15.5998 20.0465Z" fill="#001527"/>
</svg>
