<svg width="24" height="24" viewBox="0 0 24 24" fill="none" xmlns="http://www.w3.org/2000/svg">
<path d="M10.3051 3.52602V0.916016H11.8051V3.52602H10.3051Z" fill="#001527"/>
<path d="M4.13471 4.1314L5.97971 5.9764L7.04037 4.91574L5.19537 3.07074L4.13471 4.1314Z" fill="#001527"/>
<path fill-rule="evenodd" clip-rule="evenodd" d="M11.3082 5.10178C10.3848 5.0485 9.46621 5.26173 8.65692 5.70156C7.83344 6.1491 7.17568 6.82721 6.73447 7.65536C6.28657 8.48095 6.11209 9.4058 6.18226 10.3181C6.25328 11.2414 6.59072 12.1327 7.16381 12.867C7.39141 13.1586 7.65097 13.4248 7.93701 13.6597C5.88818 13.8818 4.30505 15.6108 4.30505 17.7306C4.30505 20.0026 6.13866 21.8406 8.40005 21.8406H18.1351C20.1543 21.8406 21.7951 20.1998 21.7951 18.1806C21.7951 16.5168 20.7045 15.1276 19.2104 14.6713C18.9375 12.7425 17.5965 11.147 15.8004 10.5252C15.9033 9.73979 15.8097 8.9383 15.5193 8.18938C15.1834 7.32293 14.6158 6.57727 13.8704 6.0271C13.1229 5.47538 12.2331 5.15513 11.3082 5.10178ZM14.3227 10.2492C14.3769 9.73682 14.3094 9.21812 14.1208 8.73168C13.8868 8.12813 13.4943 7.61379 12.9797 7.23396C12.4672 6.85568 11.857 6.63593 11.2219 6.59929C10.5853 6.56256 9.94389 6.70933 9.37319 7.0195C8.81764 7.32143 8.36598 7.78224 8.0572 8.36274L8.05404 8.36868C7.75314 8.92234 7.6281 9.55636 7.67784 10.203C7.72682 10.8397 7.95938 11.4484 8.34629 11.9441C8.68362 12.3763 9.11795 12.7255 9.60841 12.9558C10.4692 11.3412 12.1723 10.2456 14.1301 10.2456C14.1946 10.2456 14.2588 10.2468 14.3227 10.2492ZM10.5518 14.8119C10.8122 13.0758 12.3146 11.7456 14.1301 11.7456C16.1023 11.7456 17.7104 13.3353 17.7603 15.3046L17.7766 15.9489L18.4161 16.0297C19.4701 16.1628 20.2951 17.0624 20.2951 18.1806C20.2951 19.3714 19.3258 20.3406 18.1351 20.3406H8.40005C6.97145 20.3406 5.80505 19.1786 5.80505 17.7306C5.80505 16.2826 6.95647 15.1356 8.38505 15.1356C8.79613 15.1356 9.17339 15.2208 9.47464 15.3714L10.3985 15.8334L10.5518 14.8119Z" fill="#001527"/>
<path d="M4.66504 10.7554H2.04004V9.25537H4.66504V10.7554Z" fill="#001527"/>
<path d="M16.9448 3.01069L15.0998 4.85569L16.1605 5.91635L18.0055 4.07135L16.9448 3.01069Z" fill="#001527"/>
</svg>
