<svg width="24" height="24" viewBox="0 0 24 24" fill="none" xmlns="http://www.w3.org/2000/svg">
<path fill-rule="evenodd" clip-rule="evenodd" d="M8.22237 1.95117L10.8354 2.07206C12.096 2.13037 13.2089 2.91317 13.6899 4.07988L15.8877 9.41102H19.8553C21.2877 9.41102 22.449 10.5723 22.449 12.0048C22.449 13.4373 21.2877 14.5985 19.8553 14.5985H15.8874L13.6901 19.9211C13.2088 21.087 12.0963 21.8692 10.8362 21.9275L8.22211 22.0484L9.7262 14.5985H5.00807C3.65407 14.5985 2.50154 13.6129 2.2914 12.2753L1.42407 6.75477H4.24806C4.95721 6.75477 5.59625 7.18273 5.86625 7.83846L6.51378 9.41102H9.72645L8.22237 1.95117ZM11.2566 9.41102H14.2652L12.3031 4.65159C12.0441 4.02336 11.4448 3.60186 10.766 3.57045L10.0726 3.53837L11.2566 9.41102ZM5.50924 10.911L4.47923 8.40958C4.44066 8.31591 4.34937 8.25477 4.24806 8.25477H3.17813L3.77322 12.0425C3.86874 12.6505 4.39262 13.0985 5.00807 13.0985H11.5593L10.0728 20.4612L10.7669 20.4291C11.4454 20.3977 12.0444 19.9765 12.3036 19.3487L14.8838 13.0985H19.8553C20.4593 13.0985 20.949 12.6088 20.949 12.0048C20.949 11.4007 20.4593 10.911 19.8553 10.911H5.50924Z" fill="#001527"/>
</svg>
