<svg width="24" height="24" viewBox="0 0 24 24" fill="none" xmlns="http://www.w3.org/2000/svg">
<path fill-rule="evenodd" clip-rule="evenodd" d="M10.1294 3.08574L7.03067 2.94238L9.54636 9.4111H6.51378L5.86625 7.83854C5.59625 7.18281 4.95721 6.75485 4.24806 6.75485H1.42407L2.2914 12.2754C2.50154 13.613 3.65407 14.5986 5.00807 14.5986H19.8553C21.2877 14.5986 22.449 13.4373 22.449 12.0049C22.449 10.5724 21.2877 9.4111 19.8553 9.4111H15.7969L12.7196 4.58495C12.1513 3.69378 11.1852 3.13458 10.1294 3.08574ZM11.7392 10.9111L9.26427 4.54732L10.0601 4.58414C10.6286 4.61044 11.1488 4.91154 11.4548 5.3914L14.9743 10.9111H19.8553C20.4593 10.9111 20.949 11.4008 20.949 12.0049C20.949 12.6089 20.4593 13.0986 19.8553 13.0986H5.00807C4.39262 13.0986 3.86874 12.6506 3.77322 12.0426L3.17813 8.25485H4.24806C4.34937 8.25485 4.44066 8.31599 4.47923 8.40966L5.50924 10.9111H11.7392Z" fill="#001527"/>
<path d="M4.00006 21.75H20.0001V20.25H4.00006V21.75Z" fill="#001527"/>
</svg>
