<svg width="24" height="24" viewBox="0 0 24 24" fill="none" xmlns="http://www.w3.org/2000/svg">
<path fill-rule="evenodd" clip-rule="evenodd" d="M8.22243 1.95117L10.8354 2.07206C12.096 2.13037 13.2089 2.91317 13.6899 4.07988L15.8877 9.41102H19.8553C21.2878 9.41102 22.4491 10.5723 22.4491 12.0048C22.4491 13.4373 21.2878 14.5985 19.8553 14.5985H15.8875L13.6902 19.9211C13.2088 21.087 12.0963 21.8692 10.8363 21.9275L8.22218 22.0484L9.72626 14.5985H6.51384L5.86631 16.1711C5.59631 16.8268 4.95727 17.2548 4.24813 17.2548H1.3667L2.52964 12.0087L1.36707 6.75477H4.24813C4.95727 6.75477 5.59631 7.18273 5.86632 7.83846L6.51384 9.41102H9.72651L8.22243 1.95117ZM10.0726 3.53837L11.5591 10.911H5.5093L4.4793 8.40958C4.44073 8.31591 4.34943 8.25477 4.24813 8.25477H3.23527L4.06599 12.009L3.23563 15.7548H4.24813C4.34943 15.7548 4.44073 15.6936 4.4793 15.6L5.5093 13.0985H11.5594L10.0729 20.4612L10.767 20.4291C11.4454 20.3977 12.0445 19.9765 12.3037 19.3487L14.8839 13.0985H19.8553C20.4594 13.0985 20.9491 12.6088 20.9491 12.0048C20.9491 11.4007 20.4594 10.911 19.8553 10.911H14.8836L12.3031 4.65159C12.0441 4.02336 11.4449 3.60186 10.7661 3.57045L10.0726 3.53837Z" fill="#001527"/>
</svg>
