<svg width="24" height="24" viewBox="0 0 24 24" fill="none" xmlns="http://www.w3.org/2000/svg">
<path fill-rule="evenodd" clip-rule="evenodd" d="M10.4779 2.50664L7.40338 2.09375L9.34571 8.75711L6.32467 8.49281L5.81667 6.86979C5.60484 6.19302 5.00553 5.711 4.29909 5.64919L1.48584 5.40306L1.86871 10.9782C1.96148 12.329 3.02372 13.4113 4.37257 13.5293L19.1633 14.8234C20.5903 14.9482 21.8483 13.8926 21.9732 12.4655C22.098 11.0385 21.0424 9.78044 19.6154 9.65559L15.5724 9.30188L12.9275 4.22589C12.4391 3.28858 11.5254 2.64731 10.4779 2.50664ZM11.3994 10.4425L9.4886 3.88725L10.2782 3.99329C10.8423 4.06904 11.3342 4.41434 11.5972 4.91904L14.6223 10.7245L19.4846 11.1499C20.0864 11.2025 20.5316 11.733 20.4789 12.3348C20.4263 12.9366 19.8958 13.3817 19.294 13.3291L4.50331 12.035C3.89019 11.9814 3.40736 11.4895 3.36519 10.8754L3.10249 7.05023L4.16835 7.14348C4.26927 7.15231 4.35489 7.22117 4.38515 7.31785L5.19322 9.89955L11.3994 10.4425Z" fill="#001527"/>
<path d="M5.43072 19.4851L5.43072 15.2355H3.93072L3.93072 19.486L2.57208 18.1268L1.51123 19.1873L3.14871 20.8254C3.36645 21.0433 3.57951 21.2565 3.77922 21.4089C4.00495 21.5812 4.29931 21.7448 4.68005 21.7448C5.06078 21.7448 5.35518 21.5813 5.58094 21.4091C5.78068 21.2567 5.99377 21.0435 6.21156 20.8256L7.84967 19.1875L6.78901 18.1268L5.43072 19.4851Z" fill="#001527"/>
<path d="M9.99995 21.7495H20.9999V20.2495H9.99995V21.7495Z" fill="#001527"/>
</svg>
