<svg width="24" height="24" viewBox="0 0 24 24" fill="none" xmlns="http://www.w3.org/2000/svg">
<path fill-rule="evenodd" clip-rule="evenodd" d="M3.12587 6.75149L5.05901 4.9893C5.99164 4.13915 7.33209 3.90574 8.49719 4.39062L13.821 6.60623L16.6265 3.80071C17.6394 2.78778 19.2817 2.78779 20.2946 3.80071C21.3075 4.81363 21.3075 6.4559 20.2946 7.46882L17.4889 10.2745L19.6988 15.5919C20.1829 16.7567 19.9493 18.0964 19.0995 19.0286L17.3366 20.9625L13.1323 14.6311L10.8607 16.9027L11.5148 18.4725C11.7876 19.1271 11.6383 19.8816 11.1369 20.383L9.09941 22.4205L6.2122 17.8886L1.67505 14.9956L3.71227 12.9584C4.21371 12.457 4.96819 12.3077 5.62278 12.5805L7.19262 13.2346L9.46432 10.9629L3.12587 6.75149ZM5.55648 6.56552L11.8208 10.7277L7.54297 15.0055L5.04586 13.9651C4.95235 13.9261 4.84456 13.9474 4.77293 14.0191L4.05673 14.7353L7.29877 16.8025L9.36029 20.0383L10.0762 19.3224C10.1479 19.2507 10.1692 19.1429 10.1302 19.0494L9.08976 16.5523L13.3678 12.2743L17.5229 18.5316L17.991 18.0181C18.4485 17.5161 18.5743 16.7947 18.3137 16.1675L15.7186 9.92349L19.2339 6.40816C19.6611 5.98103 19.6611 5.2885 19.2339 4.86137C18.8068 4.43423 18.1143 4.43423 17.6871 4.86137L14.1716 8.37688L7.92085 5.77548C7.29349 5.51439 6.5717 5.64007 6.06952 6.09784L5.55648 6.56552Z" fill="#001527"/>
</svg>
