<svg width="24" height="24" viewBox="0 0 24 24" fill="none" xmlns="http://www.w3.org/2000/svg">
<path fill-rule="evenodd" clip-rule="evenodd" d="M1.95142 15.7774L2.0723 13.1644C2.13062 11.9038 2.91342 10.7909 4.08013 10.3099L9.41127 8.11213V4.14453C9.41127 2.71204 10.5725 1.55078 12.005 1.55078C13.4375 1.55078 14.5988 2.71204 14.5988 4.14453L14.5988 8.1124L19.9213 10.3097C21.0873 10.791 21.8694 11.9035 21.9277 13.1636L22.0486 15.7777L14.5988 14.2736V17.486L16.1713 18.1335C16.8271 18.4035 17.255 19.0426 17.255 19.7517V22.6331L12.0089 21.4702L6.75502 22.6328L6.75502 19.7517C6.75502 19.0426 7.18298 18.4035 7.8387 18.1335L9.41127 17.486V14.2733L1.95142 15.7774ZM3.53861 13.9272L10.9113 12.4407V18.4905L8.40983 19.5205C8.31615 19.5591 8.25502 19.6504 8.25502 19.7517V20.7646L12.0092 19.9339L15.755 20.7642V19.7517C15.755 19.6504 15.6939 19.5591 15.6002 19.5205L13.0988 18.4905V12.4405L20.4614 13.927L20.4293 13.2329C20.3979 12.5544 19.9768 11.9554 19.349 11.6962L13.0988 9.11595L13.0988 4.14453C13.0988 3.54047 12.6091 3.05078 12.005 3.05078C11.401 3.05078 10.9113 3.54047 10.9113 4.14453L10.9113 9.11621L4.65183 11.6967C4.02361 11.9557 3.6021 12.5549 3.5707 13.2337L3.53861 13.9272Z" fill="#001527"/>
</svg>
