<svg width="24" height="24" viewBox="0 0 24 24" fill="none" xmlns="http://www.w3.org/2000/svg">
<path fill-rule="evenodd" clip-rule="evenodd" d="M8.55871 3.76472L5.52843 4.42827L9.63262 10.0255L6.70338 10.8104L5.6709 9.45897C5.24038 8.89546 4.51235 8.64748 3.82738 8.83102L1.09961 9.56192L3.36621 14.6699C3.91539 15.9075 5.28373 16.5612 6.5916 16.2108L20.9329 12.3681C22.3166 11.9973 23.1377 10.5751 22.7669 9.19139C22.3962 7.80771 20.9739 6.98657 19.5903 7.35733L15.6702 8.40771L11.4486 4.54247C10.6691 3.82874 9.59117 3.53864 8.55871 3.76472ZM12.1389 10.9068L8.10131 5.40042L8.87957 5.23C9.43551 5.10827 10.0159 5.26447 10.4357 5.64879L15.2639 10.0695L19.9785 8.80622C20.562 8.64987 21.1617 8.99614 21.318 9.57962C21.4744 10.1631 21.1281 10.7628 20.5446 10.9192L6.20337 14.7619C5.60889 14.9212 4.98691 14.6241 4.73728 14.0615L3.18213 10.5568L4.21561 10.2799C4.31346 10.2537 4.41746 10.2891 4.47897 10.3696L6.12129 12.5192L12.1389 10.9068Z" fill="#001527"/>
<path d="M21.4862 18.8587L20.1276 17.4995V21.75H18.6276V17.5004L17.2693 18.8587L16.2086 17.798L17.8467 16.1599C18.0645 15.942 18.2776 15.7288 18.4774 15.5764C18.7031 15.4042 18.9975 15.2407 19.3783 15.2407C19.759 15.2407 20.0534 15.4043 20.2791 15.5766C20.4788 15.729 20.6918 15.9422 20.9096 16.1601L22.5471 17.7982L21.4862 18.8587Z" fill="#001527"/>
<path d="M3.01894 21.75H14.0189V20.25H3.01894V21.75Z" fill="#001527"/>
</svg>
