<svg width="24" height="24" viewBox="0 0 24 24" fill="none" xmlns="http://www.w3.org/2000/svg">
<path d="M8.30781 3.28811H8.54087C9.35678 3.28785 9.91226 3.28767 10.3824 3.41115C11.686 3.75353 12.7052 4.76899 13.0528 6.07037L12.9875 6.07412C12.626 6.09652 12.1795 6.14967 11.7088 6.32719C11.6658 6.34343 11.6231 6.36033 11.5808 6.37788C11.353 5.6354 10.7567 5.06034 10.0014 4.86194C9.74418 4.79439 9.40133 4.78813 8.42434 4.78813C7.44734 4.78813 7.10449 4.79439 6.84731 4.86194C6.06212 5.06817 5.4489 5.68138 5.24268 6.46657C5.17507 6.72398 5.16887 7.05955 5.16887 8.0192C5.16887 8.97885 5.17507 9.31442 5.24268 9.57182C5.4489 10.357 6.06212 10.9702 6.84731 11.1765C7.10449 11.244 7.44734 11.2503 8.42434 11.2503C8.6285 11.2503 8.80496 11.25 8.95875 11.2489L8.95874 11.2745C8.9587 11.6568 8.95866 12.0398 8.97925 12.3681C8.9867 12.487 8.99753 12.6147 9.01499 12.7493C8.86714 12.7504 8.70972 12.7503 8.5412 12.7503H8.30781C7.4919 12.7506 6.93641 12.7507 6.46627 12.6273C5.15761 12.2835 4.13559 11.2615 3.79188 9.95286C3.66841 9.48275 3.66859 8.93524 3.66885 8.1328V7.9056C3.66859 7.10315 3.66841 6.55565 3.79188 6.08553C4.13559 4.77688 5.15761 3.75485 6.46627 3.41115C6.93641 3.28767 7.4919 3.28785 8.30781 3.28811Z" fill="#001527"/>
<path d="M7.84685 14.4551C6.82099 14.455 6.18611 14.4549 5.6419 14.569C3.5637 15.0049 1.93999 16.6286 1.50409 18.7068C1.38994 19.2511 1.39002 19.8859 1.39014 20.9118L1.39015 21.016H2.89015C2.89015 19.8527 2.89418 19.3865 2.97215 19.0148C3.28583 17.5192 4.45429 16.3508 5.94982 16.0371C6.32154 15.9591 6.78775 15.9551 7.95108 15.9551H8.42434V14.4551L7.84685 14.4551Z" fill="#001527"/>
<path d="M12.4728 16.0391L13.5936 16.0391V17.5391H12.5404C11.9011 17.5391 11.6615 17.541 11.4715 17.5686C10.2223 17.7497 9.24107 18.7309 9.05996 19.9802C9.03242 20.1701 9.03047 20.4097 9.03047 21.049H7.53047L7.53046 20.9814C7.53039 20.4332 7.53034 20.0762 7.57548 19.7649C7.85191 17.8582 9.34963 16.3605 11.2563 16.0841C11.5676 16.0389 11.9246 16.039 12.4728 16.0391Z" fill="#001527"/>
<path d="M14.1221 7.55371H14.1682C14.5822 7.55371 14.9271 7.5537 15.21 7.57124C15.5034 7.58943 15.7814 7.62859 16.052 7.73067C16.7917 8.00967 17.3756 8.5935 17.6546 9.33318C17.7062 9.47014 17.7418 9.60867 17.7667 9.75001L17.7122 9.75001C17.4442 9.74996 17.1507 9.7499 16.8951 9.76574C16.7145 9.77694 16.4924 9.79851 16.2474 9.85281C16.1191 9.52122 15.8556 9.25974 15.5227 9.13415C15.4521 9.10752 15.3426 9.08234 15.1171 9.06836C14.8863 9.05405 14.5881 9.05371 14.1451 9.05371C13.7021 9.05371 13.404 9.05405 13.1731 9.06836C12.9476 9.08234 12.8382 9.10752 12.7676 9.13415C12.4314 9.26096 12.166 9.52634 12.0392 9.86256C12.0122 9.93397 11.9873 10.0426 11.9734 10.2641C11.9591 10.4917 11.9587 10.7851 11.9587 11.2222C11.9587 11.6593 11.9591 11.9527 11.9734 12.1803C11.9873 12.4019 12.0122 12.5104 12.0392 12.5819C12.166 12.9181 12.4314 13.1834 12.7676 13.3103C12.8382 13.3369 12.9476 13.3621 13.1731 13.376C13.2503 13.3808 13.335 13.3841 13.4302 13.3862C13.4225 13.596 13.4225 13.82 13.4226 14.0271V14.1171C13.4225 14.3673 13.4225 14.642 13.436 14.8867C13.3079 14.8841 13.1895 14.8799 13.0803 14.8732C12.7868 14.855 12.5088 14.8158 12.2382 14.7137C11.4985 14.4347 10.9147 13.8509 10.6357 13.1112C10.5339 12.8415 10.4946 12.5656 10.4763 12.2742C10.4587 11.994 10.4587 11.6534 10.4587 11.2454V11.199C10.4587 10.791 10.4587 10.4504 10.4763 10.1703C10.4946 9.87882 10.5339 9.60296 10.6357 9.33318C10.9147 8.5935 11.4985 8.00967 12.2382 7.73067C12.5088 7.62859 12.7868 7.58943 13.0803 7.57124C13.3631 7.5537 13.708 7.55371 14.1221 7.55371Z" fill="#001527"/>
<path d="M17.1465 13.8849L17.1517 13.8855C17.1481 13.8851 17.1464 13.8849 17.1465 13.8849Z" fill="#001527"/>
<path fill-rule="evenodd" clip-rule="evenodd" d="M17.6963 11.25H17.8185C18.1121 11.2499 18.3514 11.2497 18.5613 11.2862C19.5807 11.4632 20.3791 12.2615 20.5561 13.2809C20.5925 13.4908 20.5924 13.7259 20.5922 14.013V14.1312C20.5924 14.4184 20.5925 14.6535 20.5561 14.8633C20.3791 15.8828 19.5807 16.6811 18.5613 16.8581C18.3514 16.8946 18.1121 16.8944 17.8185 16.8943H17.6963C17.4027 16.8944 17.1634 16.8946 16.9535 16.8581C15.934 16.6811 15.1357 15.8828 14.9587 14.8633C14.9223 14.6535 14.9224 14.4184 14.9226 14.1312V14.0131C14.9224 13.7259 14.9223 13.4908 14.9587 13.2809C15.1357 12.2615 15.934 11.4632 16.9535 11.2862C17.1634 11.2497 17.4027 11.2499 17.6963 11.25ZM17.7574 12.75C17.3708 12.75 17.2745 12.7529 17.2101 12.764C16.8148 12.8327 16.5052 13.1422 16.4366 13.5375C16.4254 13.6021 16.4226 13.695 16.4226 14.0721C16.4226 14.4493 16.4254 14.5421 16.4366 14.6067C16.5052 15.002 16.8148 15.3116 17.2101 15.3802C17.2745 15.3914 17.3708 15.3942 17.7574 15.3942C18.144 15.3942 18.2403 15.3914 18.3047 15.3802C18.7 15.3116 19.0096 15.002 19.0782 14.6067C19.0894 14.5421 19.0922 14.4493 19.0922 14.0721C19.0922 13.695 19.0894 13.6021 19.0782 13.5375C19.0096 13.1422 18.7 12.8327 18.3047 12.764C18.2403 12.7529 18.144 12.75 17.7574 12.75Z" fill="#001527"/>
<path d="M16.1748 17.7178C14.335 17.7178 12.8436 19.2092 12.8436 21.049H14.3436C14.3436 20.0377 15.1635 19.2178 16.1748 19.2178H19.3477C20.3549 19.2178 21.1714 20.0343 21.1714 21.0414H22.6714C22.6714 19.2058 21.1833 17.7178 19.3477 17.7178H16.1748Z" fill="#001527"/>
</svg>
