<svg width="24" height="24" viewBox="0 0 24 24" fill="none" xmlns="http://www.w3.org/2000/svg">
<path d="M9.07353 11.5338L8.61351 10.9414L7.4288 11.8614L7.88882 12.4538C8.28075 12.9585 8.87816 13.261 9.51692 13.2783C9.52921 13.2786 9.5415 13.2787 9.55379 13.2784C10.1956 13.2642 10.7964 12.9597 11.1873 12.4504L11.644 11.8555L10.4541 10.9422L9.9974 11.5371C9.88705 11.6809 9.71939 11.7687 9.53901 11.7781C9.35613 11.7678 9.18624 11.6789 9.07353 11.5338Z" fill="#001527"/>
<path d="M14.0009 11.5339L13.5411 10.9414L12.3561 11.8611L12.8159 12.4536C13.2075 12.9581 13.8046 13.2607 14.443 13.2783C14.4552 13.2786 14.4674 13.2786 14.4796 13.2784C15.122 13.2646 15.7233 12.9601 16.1145 12.4504L16.5712 11.8555L15.3813 10.9421L14.9247 11.5371C14.8142 11.681 14.6463 11.7688 14.4658 11.7781C14.2831 11.7677 14.1135 11.6789 14.0009 11.5339Z" fill="#001527"/>
<path d="M10.483 15.1864L9.9178 14.6934L8.9317 15.8237L9.49686 16.3167C10.9314 17.5683 13.0698 17.5683 14.5044 16.3167L15.0696 15.8237L14.0835 14.6934L13.5183 15.1864C12.6487 15.945 11.3525 15.945 10.483 15.1864Z" fill="#001527"/>
<path fill-rule="evenodd" clip-rule="evenodd" d="M9.18604 2.67578H9.93604C10.6824 2.67578 11.3982 2.97227 11.9259 3.50002C11.9512 3.52534 11.976 3.55109 12.0003 3.57726C12.0245 3.55109 12.0493 3.52534 12.0746 3.50002C12.6024 2.97227 13.3182 2.67578 14.0645 2.67578H14.8145V4.17578H14.0645C13.716 4.17578 13.3817 4.31423 13.1353 4.56068C13.0644 4.6316 13.0024 4.7098 12.9501 4.79352C16.13 5.15887 18.838 7.33856 19.8577 10.4029C20.9914 10.7516 21.7972 11.8056 21.7972 13.0311C21.7972 14.2566 20.9912 15.3107 19.8574 15.6593C18.736 19.0231 15.5812 21.3203 12.001 21.3222C8.42093 21.3203 5.26533 19.0231 4.1439 15.6593C3.01006 15.3107 2.2041 14.2566 2.2041 13.0311C2.2041 11.8056 3.00991 10.7516 4.14359 10.4029C5.16318 7.33879 7.87089 5.15919 11.0505 4.7936C10.9982 4.70985 10.9362 4.63163 10.8653 4.56068C10.6188 4.31423 10.2846 4.17578 9.93604 4.17578H9.18604V2.67578ZM12.0944 6.2399H11.907C8.8864 6.28123 6.25207 8.3182 5.45695 11.2403C5.37612 11.5374 5.12199 11.7549 4.81603 11.7888C4.18302 11.8591 3.7041 12.3942 3.7041 13.0311C3.7041 13.668 4.18302 14.203 4.81603 14.2733C5.12182 14.3072 5.37585 14.5245 5.45682 14.8213C6.26188 17.7725 8.94167 19.8204 12.0007 19.8222C15.0596 19.8204 17.7394 17.7725 18.5445 14.8213C18.6255 14.5245 18.8795 14.3072 19.1853 14.2733C19.8183 14.203 20.2972 13.668 20.2972 13.0311C20.2972 12.3942 19.8183 11.8591 19.1853 11.7888C18.8793 11.7549 18.6252 11.5374 18.5444 11.2403C17.7492 8.3182 15.1149 6.28123 12.0944 6.2399Z" fill="#001527"/>
</svg>
