<svg width="24" height="24" viewBox="0 0 24 24" fill="none" xmlns="http://www.w3.org/2000/svg">
<path fill-rule="evenodd" clip-rule="evenodd" d="M11.8831 3.28909C11.0672 3.28882 10.5117 3.28864 10.0415 3.41212C8.73289 3.75583 7.71086 4.77785 7.36715 6.08651C7.24368 6.55662 7.24386 7.10413 7.24412 7.90658V8.13377C7.24386 8.93622 7.24368 9.48373 7.36715 9.95384C7.71086 11.2625 8.73289 12.2845 10.0415 12.6282C10.5117 12.7517 11.0672 12.7515 11.8831 12.7513H12.1161C12.932 12.7515 13.4875 12.7517 13.9577 12.6282C15.2663 12.2845 16.2884 11.2625 16.6321 9.95384C16.7555 9.48373 16.7554 8.93622 16.7551 8.13378V7.90657C16.7554 7.10413 16.7555 6.55662 16.6321 6.08651C16.2884 4.77785 15.2663 3.75583 13.9577 3.41212C13.4875 3.28864 12.9321 3.28882 12.1161 3.28909H11.8831ZM10.4226 4.86292C10.6798 4.79537 11.0226 4.78911 11.9996 4.78911C12.9766 4.78911 13.3195 4.79537 13.5766 4.86292C14.3618 5.06914 14.975 5.68236 15.1813 6.46755C15.2489 6.72495 15.2551 7.06053 15.2551 8.02017C15.2551 8.97982 15.2489 9.3154 15.1813 9.5728C14.975 10.358 14.3618 10.9712 13.5766 11.1774C13.3195 11.245 12.9766 11.2512 11.9996 11.2512C11.0226 11.2512 10.6798 11.245 10.4226 11.1774C9.63739 10.9712 9.02417 10.358 8.81795 9.5728C8.75034 9.3154 8.74414 8.97982 8.74414 8.02017C8.74414 7.06053 8.75034 6.72495 8.81795 6.46755C9.02417 5.68236 9.63739 5.06914 10.4226 4.86292Z" fill="#001527"/>
<path d="M9.7454 14.4561C9.05458 14.456 8.63387 14.456 8.26955 14.5026C5.67322 14.8352 3.62911 16.8793 3.29659 19.4756C3.24993 19.8399 3.24996 20.2606 3.25 20.9515L3.25001 21.017H4.75001C4.75001 20.2406 4.75154 19.9231 4.78444 19.6662C5.03021 17.7471 6.54108 16.2363 8.46011 15.9905C8.717 15.9576 9.03453 15.9561 9.81093 15.9561H14.2037C14.9661 15.9561 15.2779 15.9575 15.5302 15.9893C17.457 16.2315 18.9745 17.749 19.2168 19.6758C19.2485 19.9282 19.25 20.24 19.25 21.0024H20.75L20.75 20.9381C20.75 20.2598 20.7501 19.8465 20.7051 19.4887C20.3773 16.8819 18.3242 14.8288 15.7174 14.501C15.3595 14.456 14.9464 14.456 14.268 14.4561H9.7454Z" fill="#001527"/>
</svg>
