<svg width="24" height="24" viewBox="0 0 24 24" fill="none" xmlns="http://www.w3.org/2000/svg">
<path d="M10.0232 3.28909C9.20729 3.28882 8.6518 3.28864 8.18166 3.41212C6.87301 3.75583 5.85098 4.77785 5.50727 6.08651C5.3838 6.55662 5.38398 7.10413 5.38424 7.90658V8.13377C5.38398 8.93622 5.3838 9.48373 5.50727 9.95384C5.85098 11.2625 6.87301 12.2845 8.18166 12.6282C8.6518 12.7517 9.20729 12.7515 10.0232 12.7513H10.2563C10.4808 12.7513 10.6858 12.7514 10.8745 12.7489C10.8571 12.6148 10.8464 12.4875 10.8389 12.369C10.8183 12.0407 10.8184 11.6577 10.8184 11.2755L10.8184 11.2486C10.6332 11.2508 10.4109 11.2512 10.1397 11.2512C9.16273 11.2512 8.81989 11.245 8.5627 11.1774C7.77751 10.9712 7.1643 10.358 6.95807 9.5728C6.89047 9.3154 6.88426 8.97982 6.88426 8.02017C6.88426 7.06053 6.89047 6.72495 6.95807 6.46755C7.1643 5.68236 7.77751 5.06914 8.5627 4.86292C8.81989 4.79537 9.16273 4.78911 10.1397 4.78911C11.1167 4.78911 11.4596 4.79537 11.7168 4.86292C12.4909 5.06623 13.0978 5.66514 13.3124 6.43442C13.3963 6.39636 13.4817 6.36091 13.5685 6.32817C14.0064 6.16299 14.4235 6.1055 14.7705 6.08025C14.4252 4.77459 13.4044 3.75528 12.0978 3.41212C11.6277 3.28864 11.0722 3.28882 10.2563 3.28909H10.0232Z" fill="#001527"/>
<path d="M7.88554 14.4561L10.5705 14.4561V15.9561H7.95107C7.17467 15.9561 6.85713 15.9576 6.60024 15.9905C4.68121 16.2363 3.17035 17.7471 2.92457 19.6662C2.89167 19.9231 2.89014 20.2406 2.89014 21.017H1.39014L1.39014 20.9515C1.3901 20.2606 1.39007 19.8399 1.43673 19.4756C1.76925 16.8793 3.81336 14.8352 6.40969 14.5026C6.77401 14.456 7.19472 14.456 7.88554 14.4561Z" fill="#001527"/>
<path d="M14.3753 16.04H17.6441C17.8528 16.04 17.9856 16.04 18.102 16.0457C20.5427 16.1653 22.4944 18.117 22.614 20.5577C22.6197 20.6741 22.6196 20.8068 22.6196 21.0156V21.0393H21.1196C21.1196 20.799 21.1194 20.7059 21.1157 20.6311C21.034 18.9611 19.6985 17.6257 18.0286 17.5439C17.9538 17.5403 17.8607 17.54 17.6204 17.54H14.4001C14.1495 17.54 14.0524 17.5403 13.9743 17.5443C12.3098 17.6293 10.9794 18.9597 10.8944 20.6242C10.8904 20.7023 10.8901 20.7994 10.8901 21.05H9.39014V21.0252C9.39013 20.8075 9.39012 20.6691 9.39632 20.5477C9.5206 18.1149 11.465 16.1705 13.8978 16.0462C14.0192 16.04 14.1577 16.04 14.3753 16.04Z" fill="#001527"/>
<path fill-rule="evenodd" clip-rule="evenodd" d="M16.0279 7.55469H15.9817C15.5677 7.55468 15.2228 7.55468 14.94 7.57221C14.6465 7.59041 14.3685 7.62957 14.0979 7.73164C13.3582 8.01064 12.7744 8.59448 12.4954 9.33415C12.3936 9.60393 12.3543 9.8798 12.336 10.1712C12.3184 10.4514 12.3184 10.792 12.3184 11.2V11.2463C12.3184 11.6543 12.3184 11.995 12.336 12.2751C12.3543 12.5666 12.3936 12.8424 12.4954 13.1122C12.7744 13.8519 13.3582 14.4357 14.0979 14.7147C14.3685 14.8168 14.6465 14.856 14.94 14.8742C15.2228 14.8917 15.5677 14.8917 15.9817 14.8917H16.0279C16.4419 14.8917 16.7868 14.8917 17.0696 14.8742C17.3631 14.856 17.6411 14.8168 17.9117 14.7147C18.6514 14.4357 19.2352 13.8519 19.5142 13.1122C19.616 12.8424 19.6554 12.5666 19.6736 12.2751C19.6912 11.995 19.6912 11.6544 19.6912 11.2464V11.2C19.6912 10.792 19.6912 10.4514 19.6736 10.1712C19.6554 9.8798 19.616 9.60393 19.5142 9.33415C19.2352 8.59448 18.6514 8.01064 17.9117 7.73164C17.6411 7.62957 17.3631 7.59041 17.0696 7.57221C16.7868 7.55468 16.4419 7.55468 16.0279 7.55469ZM14.6273 9.13512C14.6978 9.1085 14.8073 9.08332 15.0328 9.06934C15.2637 9.05502 15.5618 9.05469 16.0048 9.05469C16.4478 9.05469 16.7459 9.05502 16.9768 9.06934C17.2023 9.08332 17.3118 9.1085 17.3823 9.13512C17.7186 9.26194 17.9839 9.52732 18.1108 9.86354C18.1377 9.93495 18.1627 10.0435 18.1766 10.2651C18.1908 10.4927 18.1912 10.7861 18.1912 11.2232C18.1912 11.6603 18.1908 11.9537 18.1766 12.1812C18.1627 12.4028 18.1377 12.5114 18.1108 12.5828C17.9839 12.919 17.7186 13.1844 17.3823 13.3112C17.3118 13.3379 17.2023 13.363 16.9768 13.377C16.7459 13.3913 16.4478 13.3917 16.0048 13.3917C15.5618 13.3917 15.2637 13.3913 15.0328 13.377C14.8073 13.363 14.6978 13.3379 14.6273 13.3112C14.2911 13.1844 14.0257 12.919 13.8989 12.5828C13.8719 12.5114 13.8469 12.4028 13.833 12.1812C13.8188 11.9537 13.8184 11.6603 13.8184 11.2232C13.8184 10.7861 13.8188 10.4927 13.833 10.2651C13.8469 10.0435 13.8719 9.93495 13.8989 9.86354C14.0257 9.52732 14.2911 9.26194 14.6273 9.13512Z" fill="#001527"/>
</svg>
