<svg width="24" height="24" viewBox="0 0 24 24" fill="none" xmlns="http://www.w3.org/2000/svg">
<path fill-rule="evenodd" clip-rule="evenodd" d="M5.06516 19.1991L6.64843 17.6159L6.65244 17.6186L7.73391 16.5371L7.72983 16.5345L9.21743 15.0469L9.22094 15.0501L10.2838 13.9872L10.2801 13.9842L14.0164 10.2479L14.0194 10.2516L15.0834 9.18764L15.0802 9.18409L16.487 7.77732L16.491 7.78L17.571 6.70006L17.567 6.69731L19.1079 5.15636L18.0473 4.0957L16.2567 5.88631C14.957 5.17766 13.5358 4.6929 12.0672 4.68521C9.6007 4.6723 7.381 5.87677 5.60039 7.2921C3.81128 8.71419 2.38176 10.4163 1.48802 11.5365L1.13086 11.9842L1.46868 12.4467C2.30683 13.594 3.70225 15.2728 5.4388 16.7042L4.0045 18.1385L5.06516 19.1991ZM3.02491 12.0212C3.84973 13.0907 5.06199 14.4695 6.5048 15.6382L8.42492 13.7181C8.38334 13.5373 8.36168 13.3518 8.34901 13.1599C8.32909 12.8586 8.3291 12.4907 8.32911 12.049V11.9998C8.3291 11.5581 8.32909 11.1902 8.34901 10.8889C8.36968 10.5761 8.41421 10.2802 8.53005 9.99404C8.80948 9.30375 9.35693 8.75631 10.0472 8.47687C10.3325 8.36139 10.6261 8.31664 10.9367 8.29587C11.2352 8.27592 11.5986 8.27593 12.0339 8.27593H12.0834C12.5186 8.27593 12.882 8.27592 13.1805 8.29587C13.3814 8.3093 13.5751 8.33276 13.7641 8.37889L15.1445 6.99852C14.1281 6.49713 13.086 6.19057 12.0594 6.18519C10.085 6.17486 8.19503 7.14586 6.53375 8.46634C5.09547 9.60957 3.89061 10.9651 3.02491 12.0212ZM9.82911 12.0244C9.82911 12.1279 9.82913 12.2241 9.82932 12.3137L12.3668 9.77621C12.272 9.77596 12.1697 9.77593 12.0586 9.77593C11.5922 9.77593 11.2793 9.77632 11.0368 9.79253C10.8009 9.8083 10.6858 9.83662 10.6101 9.86727C10.2963 9.99429 10.0475 10.2431 9.92044 10.5569C9.89015 10.6317 9.86161 10.7477 9.84574 10.9878C9.82949 11.2337 9.82911 11.5518 9.82911 12.0244Z" fill="#001527"/>
<path d="M18.7784 7.6139C20.4179 8.96015 21.7623 10.4905 22.5984 11.5357L22.9558 11.9825L22.6194 12.4452C21.7542 13.6354 20.2599 15.3804 18.4341 16.8362C16.6251 18.2786 14.3863 19.5205 12.0506 19.5205C10.6104 19.5205 9.23291 19.0804 7.97434 18.418L9.09288 17.2995C10.0568 17.7505 11.0529 18.0205 12.0506 18.0205C13.8795 18.0205 15.786 17.0291 17.499 15.6633C18.9735 14.4876 20.2275 13.096 21.0599 12.0235C20.2382 11.0392 19.0732 9.77983 17.7123 8.68007L18.7784 7.6139Z" fill="#001527"/>
<path d="M15.7462 10.6462C15.7557 10.726 15.7628 10.8069 15.7682 10.8889C15.7881 11.1902 15.7881 11.5581 15.7881 11.9998V12.049C15.7881 12.4907 15.7881 12.8586 15.7682 13.1599C15.7475 13.4727 15.703 13.7686 15.5872 14.0547C15.3077 14.745 14.7603 15.2925 14.07 15.5719C13.7847 15.6874 13.4911 15.7321 13.1805 15.7529C12.882 15.7729 12.5186 15.7729 12.0833 15.7729H12.0339C11.5986 15.7729 11.2352 15.7729 10.9367 15.7529C10.8449 15.7468 10.7545 15.7385 10.6654 15.727L12.1195 14.2728C12.5525 14.2728 12.8487 14.2717 13.0804 14.2563C13.3164 14.2405 13.4314 14.2122 13.5071 14.1815C13.8209 14.0545 14.0698 13.8057 14.1968 13.4919C14.2271 13.417 14.2556 13.3011 14.2715 13.061C14.2868 12.8291 14.288 12.5333 14.2881 12.1042L15.7462 10.6462Z" fill="#001527"/>
</svg>
