<svg width="24" height="24" viewBox="0 0 24 24" fill="none" xmlns="http://www.w3.org/2000/svg">
<path fill-rule="evenodd" clip-rule="evenodd" d="M12.3837 2.78909H12.6167C13.4326 2.78882 13.9881 2.78864 14.4583 2.91212C15.7669 3.25583 16.789 4.27785 17.1327 5.58651C17.2561 6.05662 17.256 6.60413 17.2557 7.40657V7.63378C17.256 8.43622 17.2561 8.98373 17.1327 9.45384C16.789 10.7625 15.7669 11.7845 14.4583 12.1282C13.9881 12.2517 13.4326 12.2515 12.6167 12.2513H12.3837C11.5678 12.2515 11.0123 12.2517 10.5421 12.1282C9.23348 11.7845 8.21146 10.7625 7.86775 9.45384C7.74428 8.98373 7.74445 8.43622 7.74471 7.63377V7.40658C7.74445 6.60413 7.74428 6.05662 7.86775 5.58651C8.21146 4.27785 9.23348 3.25583 10.5421 2.91212C11.0123 2.78864 11.5678 2.78882 12.3837 2.78909ZM12.5002 4.28911C11.5232 4.28911 11.1804 4.29537 10.9232 4.36292C10.138 4.56914 9.52477 5.18236 9.31854 5.96755C9.25094 6.22495 9.24474 6.56053 9.24474 7.52017C9.24474 8.47982 9.25094 8.8154 9.31854 9.0728C9.52477 9.85799 10.138 10.4712 10.9232 10.6774C11.1804 10.745 11.5232 10.7512 12.5002 10.7512C13.4772 10.7512 13.82 10.745 14.0772 10.6774C14.8624 10.4712 15.4756 9.85799 15.6819 9.0728C15.7495 8.8154 15.7557 8.47982 15.7557 7.52017C15.7557 6.56053 15.7495 6.22495 15.6819 5.96755C15.4756 5.18236 14.8624 4.56914 14.0772 4.36292C13.82 4.29537 13.4772 4.28911 12.5002 4.28911Z" fill="#001527"/>
<path d="M10.2757 13.9561L10.5096 13.9561V15.4561H10.3412C9.56481 15.4561 9.24727 15.4576 8.99038 15.4905C7.07135 15.7363 5.56049 17.2471 5.31471 19.1662C5.28181 19.4231 5.28028 19.7406 5.28028 20.517H3.78028L3.78028 20.4515C3.78023 19.7606 3.7802 19.3399 3.82686 18.9756C4.15938 16.3793 6.20349 14.3352 8.79983 14.0026C9.16415 13.956 9.58486 13.956 10.2757 13.9561Z" fill="#001527"/>
<path d="M18.28 18.3613V19.9617H16.78V18.3613H15.1801V16.8613H16.78V15.2617H18.28V16.8613H19.8801V18.3613H18.28Z" fill="#001527"/>
<path fill-rule="evenodd" clip-rule="evenodd" d="M22.28 17.6113C22.28 20.2342 20.1539 22.3613 17.53 22.3613C14.907 22.3613 12.78 20.2343 12.78 17.6113C12.78 14.9883 14.907 12.8613 17.53 12.8613C20.1539 12.8613 22.28 14.9884 22.28 17.6113ZM14.28 17.6113C14.28 15.8167 15.7354 14.3613 17.53 14.3613C19.3253 14.3613 20.78 15.8166 20.78 17.6113C20.78 19.406 19.3253 20.8613 17.53 20.8613C15.7354 20.8613 14.28 19.4059 14.28 17.6113Z" fill="#001527"/>
</svg>
