<svg width="24" height="24" viewBox="0 0 24 24" fill="none" xmlns="http://www.w3.org/2000/svg">
<path d="M20.8293 3.04504L17.7454 6.12898L16.6847 5.06832L19.7687 1.98438L20.8293 3.04504Z" fill="#001527"/>
<path d="M11.9155 11.9588L4.45814 19.4164L3.39746 18.3558L10.8548 10.8981L11.9155 11.9588Z" fill="#001527"/>
<path d="M13.2341 9.71385C12.4262 8.84741 11.0688 8.80001 10.2024 9.60798L9.35138 10.4015L8.32838 9.30451L9.17937 8.51095C10.6517 7.138 12.9582 7.21854 14.3312 8.69085C15.7041 10.1632 15.6236 12.4697 14.1513 13.8426L13.3003 14.6362L12.2773 13.5392L13.1283 12.7456C13.9947 11.9376 14.0421 10.5803 13.2341 9.71385Z" fill="#001527"/>
<path d="M11.8082 4.972C8.42442 4.972 5.68158 7.71484 5.68158 11.0986V12.9931H7.18158V11.0986C7.18158 8.54327 9.25285 6.472 11.8082 6.472C14.3635 6.472 16.4348 8.54327 16.4348 11.0986V11.5122C16.4348 12.8527 15.8252 14.1212 14.779 14.9581L13.2621 16.1723C12.6921 16.6282 12.2875 17.2591 12.1105 17.9663C11.8317 19.0795 10.8311 19.861 9.68317 19.861C9.01799 19.861 8.41483 19.6024 7.96612 19.1787L7.42081 18.6638L6.39098 19.7544L6.93629 20.2693C7.65232 20.9454 8.62003 21.361 9.68317 21.361C11.5196 21.361 13.1197 20.111 13.5655 18.3307C13.663 17.9413 13.8856 17.5943 14.1989 17.3438L15.716 16.1294C17.1182 15.0077 17.9348 13.3081 17.9348 11.5122V11.0986C17.9348 7.71484 15.1919 4.972 11.8082 4.972Z" fill="#001527"/>
</svg>
