<svg width="24" height="24" viewBox="0 0 24 24" fill="none" xmlns="http://www.w3.org/2000/svg">
<path fill-rule="evenodd" clip-rule="evenodd" d="M17.8336 6.16637C14.6118 2.94454 9.3882 2.94454 6.16637 6.16637C2.94455 9.38818 2.94454 14.6118 6.16637 17.8336C9.38818 21.0554 14.6118 21.0554 17.8336 17.8336C21.0553 14.6119 21.0551 9.38823 17.8336 6.16637ZM18.8943 5.10571C22.7019 8.91332 22.7019 15.0867 18.8943 18.8943C15.0867 22.7019 8.9133 22.7019 5.10571 18.8943C1.2981 15.0867 1.2981 8.9133 5.10571 5.10571C8.91332 1.2981 15.0867 1.2981 18.8943 5.10571Z" fill="#001527"/>
<path d="M13.1271 7.73303C13.1271 8.35273 12.6247 8.8551 12.005 8.8551C11.3853 8.8551 10.8829 8.35273 10.8829 7.73303C10.8829 7.11333 11.3853 6.61096 12.005 6.61096C12.6247 6.61096 13.1271 7.11333 13.1271 7.73303Z" fill="#001527"/>
<path fill-rule="evenodd" clip-rule="evenodd" d="M15.1914 10.5703C14.9868 10.6422 14.7791 10.7013 14.5713 10.7589L13.5153 11.233C13.5154 11.2354 13.5153 11.2377 13.5153 11.2377C13.5153 11.2377 13.5152 11.2401 13.5153 11.2426C13.5214 11.3994 13.5407 11.6185 13.5721 11.8889C13.6345 12.4263 13.7384 13.1117 13.8505 13.7938C13.9624 14.4738 14.081 15.1412 14.1718 15.6392C14.2172 15.888 14.2555 16.0941 14.2825 16.2379L14.2856 16.2545L14.3292 16.4237C14.3863 16.6456 14.3307 16.864 14.2083 17.0376C14.2021 17.0471 14.1942 17.055 14.1864 17.0629C14.1802 17.0691 14.1741 17.0753 14.1687 17.0822C14.1264 17.1331 14.0842 17.1826 14.029 17.2212C13.9354 17.2934 13.8297 17.3512 13.7056 17.375C13.2825 17.456 12.8738 17.1787 12.7927 16.7556L12.7926 16.7546L12.792 16.7516L12.7897 16.7399L12.7812 16.6951L12.7493 16.5256C12.7219 16.3796 12.6831 16.1709 12.6371 15.919C12.6305 15.8831 12.6233 15.843 12.6162 15.8032C12.6128 15.7842 12.6093 15.7653 12.606 15.7469L12.0731 13.6771C12.0707 13.6675 12.0684 13.6581 12.0664 13.6487C12.0664 13.6487 12.0653 13.6453 12.0644 13.6428C12.0591 13.6281 12.0513 13.612 12.0431 13.6003L12.0413 13.5978C12.0353 13.5967 12.0255 13.5956 12.0108 13.5955C11.9993 13.5955 11.991 13.5962 11.9854 13.5969C11.9772 13.6086 11.9691 13.6252 11.9636 13.6406C11.9625 13.6436 11.9613 13.6475 11.9613 13.6475C11.9589 13.6587 11.9562 13.6699 11.9533 13.6809L11.2348 16.4119L11.2138 16.5248C11.2001 16.5978 11.1892 16.6551 11.1818 16.6943L11.1733 16.7392L11.171 16.7508L11.1705 16.7538L11.1702 16.755C11.0892 17.1781 10.6805 17.4553 10.2574 17.3742C9.8343 17.2931 9.55726 16.8836 9.63832 16.4605L9.63881 16.4578L9.64088 16.4469L9.64918 16.4035C9.65104 16.3936 9.65313 16.3825 9.65544 16.3703C9.66208 16.3352 9.67053 16.2905 9.68049 16.2371C9.70747 16.0934 9.74586 15.8873 9.79121 15.6385C9.88203 15.1404 10.0006 14.473 10.1125 13.7931C10.2247 13.1109 10.3284 12.4255 10.3909 11.8881C10.4224 11.6177 10.4417 11.3986 10.4477 11.2419C10.4479 11.2362 10.4479 11.2336 10.4478 11.2308C10.4477 11.2285 10.4477 11.2261 10.4478 11.2218C10.3739 11.1698 10.2755 11.114 10.1594 11.0596C10.0424 11.0048 9.92781 10.9599 9.84126 10.9284C9.7986 10.9129 9.76411 10.9012 9.74141 10.8937L9.71687 10.8857L9.71296 10.8844C9.66355 10.8693 9.62212 10.8428 9.58065 10.8162C9.56859 10.8085 9.55653 10.8008 9.54426 10.7933C9.29957 10.7287 9.05641 10.6566 8.81611 10.5724L7.91719 10.2575C7.52626 10.1205 7.32033 9.69259 7.45729 9.30172C7.59425 8.91079 8.02217 8.70486 8.41304 8.84182L9.31203 9.15676C9.57557 9.24911 9.84346 9.32266 10.1131 9.38705C10.1216 9.389 10.1301 9.38909 10.1387 9.38918C10.1485 9.38929 10.1584 9.3894 10.1683 9.39242L10.1667 9.39846C10.168 9.39413 10.1695 9.39279 10.1695 9.39279L10.171 9.39327L10.1753 9.39456L10.1882 9.39865L10.2281 9.41152C11.7064 9.74191 13.2534 9.66091 14.6945 9.15499L15.5864 8.842C15.9772 8.7048 16.4052 8.91043 16.5424 9.30123C16.6796 9.6921 16.474 10.1201 16.0831 10.2573L15.1914 10.5703ZM11.9622 13.643L11.9637 13.6359L11.9646 13.6313L11.9651 13.6287L11.9654 13.6267C11.9644 13.6322 11.9634 13.6375 11.9622 13.643ZM12.0635 13.6349C12.0631 13.6327 12.0627 13.6306 12.0623 13.6284L12.0626 13.6298L12.0631 13.6324L12.0635 13.6349Z" fill="#001527"/>
</svg>
