<svg width="24" height="24" viewBox="0 0 24 24" fill="none" xmlns="http://www.w3.org/2000/svg">
<path fill-rule="evenodd" clip-rule="evenodd" d="M12.0313 7.55469H11.9852C11.5712 7.55468 11.2263 7.55468 10.9434 7.57221C10.65 7.59041 10.372 7.62957 10.1014 7.73164C9.36169 8.01064 8.77786 8.59448 8.49885 9.33415C8.3971 9.60393 8.35773 9.8798 8.33946 10.1712C8.32189 10.4514 8.32189 10.792 8.3219 11.2V11.2463C8.32189 11.6544 8.32189 11.995 8.33946 12.2751C8.35773 12.5666 8.3971 12.8424 8.49885 13.1122C8.77786 13.8519 9.36169 14.4357 10.1014 14.7147C10.372 14.8168 10.65 14.856 10.9434 14.8742C11.2263 14.8917 11.5712 14.8917 11.9852 14.8917H12.0313C12.4454 14.8917 12.7903 14.8917 13.0731 14.8742C13.3666 14.856 13.6446 14.8168 13.9152 14.7147C14.6549 14.4357 15.2387 13.8519 15.5177 13.1122C15.6195 12.8424 15.6588 12.5666 15.6771 12.2751C15.6947 11.995 15.6947 11.6544 15.6947 11.2464V11.2C15.6947 10.792 15.6947 10.4514 15.6771 10.1712C15.6588 9.8798 15.6195 9.60393 15.5177 9.33415C15.2387 8.59448 14.6549 8.01064 13.9152 7.73164C13.6446 7.62957 13.3666 7.59041 13.0731 7.57221C12.7903 7.55468 12.4454 7.55468 12.0313 7.55469ZM10.6307 9.13512C10.7013 9.1085 10.8108 9.08332 11.0363 9.06934C11.2672 9.05502 11.5653 9.05469 12.0083 9.05469C12.4513 9.05469 12.7494 9.05502 12.9803 9.06934C13.2058 9.08332 13.3152 9.1085 13.3858 9.13512C13.722 9.26194 13.9874 9.52732 14.1142 9.86354C14.1412 9.93495 14.1662 10.0435 14.18 10.2651C14.1943 10.4927 14.1947 10.7861 14.1947 11.2232C14.1947 11.6603 14.1943 11.9537 14.18 12.1812C14.1662 12.4028 14.1412 12.5114 14.1142 12.5828C13.9874 12.919 13.722 13.1844 13.3858 13.3112C13.3152 13.3379 13.2058 13.363 12.9803 13.377C12.7494 13.3913 12.4513 13.3917 12.0083 13.3917C11.5653 13.3917 11.2672 13.3913 11.0363 13.377C10.8108 13.363 10.7013 13.3379 10.6307 13.3112C10.2945 13.1844 10.0292 12.919 9.90233 12.5828C9.8754 12.5114 9.85041 12.4028 9.83652 12.1812C9.82224 11.9537 9.8219 11.6603 9.8219 11.2232C9.8219 10.7861 9.82224 10.4927 9.83652 10.2651C9.85041 10.0435 9.8754 9.93495 9.90233 9.86354C10.0292 9.52732 10.2945 9.26194 10.6307 9.13512Z" fill="#001527"/>
<path d="M10.4035 16.04C7.63659 16.04 5.39355 18.2831 5.39355 21.05H6.89355C6.89355 19.1115 8.46501 17.54 10.4035 17.54H13.6238C15.5564 17.54 17.1231 19.1067 17.1231 21.0393H18.6231C18.6231 18.2783 16.3848 16.04 13.6238 16.04H10.4035Z" fill="#001527"/>
</svg>
