<svg width="24" height="24" viewBox="0 0 24 24" fill="none" xmlns="http://www.w3.org/2000/svg">
<path fill-rule="evenodd" clip-rule="evenodd" d="M10.773 1.5C7.91606 1.5 5.52206 3.57722 5.14655 6.29331C3.48621 6.76207 2.25 8.25277 2.25 10.074C2.25 12.2623 4.07315 14 6.273 14H17.233C19.706 14 21.75 12.0471 21.75 9.594C21.75 7.14063 19.7057 5.189 17.233 5.189C16.8678 5.189 16.5085 5.22828 16.1626 5.30904C15.4224 3.08756 13.2711 1.5 10.773 1.5ZM6.59674 6.93475C6.65357 4.77778 8.48563 3 10.773 3C12.8707 3 14.5913 4.49681 14.8901 6.40219L15.0469 7.4022L15.9579 6.96101C16.3212 6.78505 16.7524 6.689 17.233 6.689C18.9203 6.689 20.25 8.01137 20.25 9.594C20.25 11.1769 18.92 12.5 17.233 12.5H6.273C4.85885 12.5 3.75 11.3917 3.75 10.074C3.75 8.83565 4.69053 7.81354 5.93894 7.65934L6.57973 7.58019L6.59674 6.93475Z" fill="#001527"/>
<path d="M19.0457 16.0859L17.5457 19.0859L16.2041 18.415L17.7041 15.415L19.0457 16.0859Z" fill="#001527"/>
<path d="M6.15 17.55C6.64706 17.55 7.05 17.1471 7.05 16.65C7.05 16.1529 6.64706 15.75 6.15 15.75C5.65294 15.75 5.25 16.1529 5.25 16.65C5.25 17.1471 5.65294 17.55 6.15 17.55Z" fill="#001527"/>
<path d="M11.8502 17.55C12.3473 17.55 12.7502 17.1471 12.7502 16.65C12.7502 16.1529 12.3473 15.75 11.8502 15.75C11.3531 15.75 10.9502 16.1529 10.9502 16.65C10.9502 17.1471 11.3531 17.55 11.8502 17.55Z" fill="#001527"/>
<path d="M14.925 19.65C14.925 20.1471 14.5221 20.55 14.025 20.55C13.5279 20.55 13.125 20.1471 13.125 19.65C13.125 19.1529 13.5279 18.75 14.025 18.75C14.5221 18.75 14.925 19.1529 14.925 19.65Z" fill="#001527"/>
<path d="M8.92074 21.7323L10.4207 18.7323L9.0791 18.0615L7.5791 21.0615L8.92074 21.7323Z" fill="#001527"/>
</svg>
