<svg width="24" height="24" viewBox="0 0 24 24" fill="none" xmlns="http://www.w3.org/2000/svg">
<path d="M12.7354 4.90465V1.13965H11.2354V4.90465H12.7354Z" fill="#001527"/>
<path d="M5.52059 11.4297H1.72559V9.92969H5.52059V11.4297Z" fill="#001527"/>
<path d="M22.2894 11.4297H18.5244V9.92969H22.2894V11.4297Z" fill="#001527"/>
<path d="M19.5201 4.20519L16.8351 6.89019L15.7744 5.82953L18.4594 3.14453L19.5201 4.20519Z" fill="#001527"/>
<path d="M4.46484 4.20519L7.14984 6.89019L8.2105 5.82953L5.5255 3.14453L4.46484 4.20519Z" fill="#001527"/>
<path d="M13.8752 15.4199H2.11523V13.9199H13.8752V15.4199Z" fill="#001527"/>
<path d="M16.0957 15.4199H21.8857V13.9199H16.0957V15.4199Z" fill="#001527"/>
<path d="M10.1104 16.9199H20.8804V18.4199H10.1104V16.9199Z" fill="#001527"/>
<path d="M3.10547 18.4199H7.89047V16.9199H3.10547V18.4199Z" fill="#001527"/>
<path d="M18.8847 21.4199H5.05469V19.9199H18.8847V21.4199Z" fill="#001527"/>
<path d="M9.20898 11.5498C9.20898 10.0119 10.4503 8.75977 11.999 8.75977C13.5498 8.75977 14.789 9.99898 14.789 11.5498H16.289C16.289 9.17055 14.3782 7.25977 11.999 7.25977C9.6177 7.25977 7.70898 9.18762 7.70898 11.5498H9.20898Z" fill="#001527"/>
</svg>
