<svg width="24" height="24" viewBox="0 0 24 24" fill="none" xmlns="http://www.w3.org/2000/svg">
<path fill-rule="evenodd" clip-rule="evenodd" d="M10.773 1.5C7.91606 1.5 5.52206 3.57722 5.14655 6.29331C3.48621 6.76207 2.25 8.25277 2.25 10.074C2.25 12.2623 4.07315 14 6.273 14H17.233C19.706 14 21.75 12.0471 21.75 9.594C21.75 7.14063 19.7057 5.189 17.233 5.189C16.8678 5.189 16.5085 5.22828 16.1626 5.30904C15.4224 3.08756 13.2711 1.5 10.773 1.5ZM6.59674 6.93475C6.65357 4.77778 8.48563 3 10.773 3C12.8707 3 14.5913 4.49681 14.8901 6.40219L15.0469 7.4022L15.9579 6.96101C16.3212 6.78505 16.7524 6.689 17.233 6.689C18.9203 6.689 20.25 8.01137 20.25 9.594C20.25 11.1769 18.92 12.5 17.233 12.5H6.273C4.85885 12.5 3.75 11.3917 3.75 10.074C3.75 8.83565 4.69053 7.81354 5.93894 7.65934L6.57973 7.58019L6.59674 6.93475Z" fill="#001527"/>
<path d="M19.875 17.625V18.75H21.375V17.625H22.5V16.125H21.375V15H19.875V16.125H18.75V17.625H19.875Z" fill="#001527"/>
<path d="M16.125 19.875V18.75H17.625V19.875H18.75V21.375H17.625V22.5H16.125V21.375H15V19.875H16.125Z" fill="#001527"/>
<path d="M10.17 17.25H1.5V15.75H10.17C11.0065 15.75 11.8295 16.0638 12.4703 16.7047C13.7382 17.9726 13.7382 20.0374 12.4703 21.3053C11.2024 22.5732 9.13756 22.5732 7.86967 21.3053L8.93033 20.2447C9.61244 20.9268 10.7276 20.9268 11.4097 20.2447C12.0918 19.5626 12.0918 18.4474 11.4097 17.7653C11.0605 17.4162 10.6235 17.25 10.17 17.25Z" fill="#001527"/>
</svg>
