<svg width="24" height="24" viewBox="0 0 24 24" fill="none" xmlns="http://www.w3.org/2000/svg">
<path fill-rule="evenodd" clip-rule="evenodd" d="M8.81802 8.81802C10.2089 7.42714 12.2837 7.13709 13.9599 7.94785C14.4015 8.16148 14.8155 8.45154 15.182 8.81802C15.5485 9.1845 15.8385 9.59847 16.0521 10.0401C16.8629 11.7163 16.5729 13.7911 15.182 15.182C13.4246 16.9393 10.5754 16.9393 8.81802 15.182C7.06066 13.4246 7.06066 10.5754 8.81802 8.81802ZM14.1213 9.87868C15.2929 11.0503 15.2929 12.9497 14.1213 14.1213C12.9497 15.2929 11.0503 15.2929 9.87868 14.1213C8.70711 12.9497 8.70711 11.0503 9.87868 9.87868C11.0503 8.70711 12.9497 8.70711 14.1213 9.87868Z" fill="#001527"/>
<path d="M11.25 3H12.75V6H11.25V3Z" fill="#001527"/>
<path d="M12.75 18H11.25V21H12.75V18Z" fill="#001527"/>
<path d="M17.8337 5.10547L18.8944 6.16613L16.7731 8.28745L15.7124 7.22679L17.8337 5.10547Z" fill="#001527"/>
<path d="M8.28771 16.7726L7.22705 15.7119L5.10573 17.8332L6.16639 18.8939L8.28771 16.7726Z" fill="#001527"/>
<path d="M21.0002 11.25V12.75H18.0002V11.25H21.0002Z" fill="#001527"/>
<path d="M5.99976 12.75V11.25H2.99976V12.75H5.99976Z" fill="#001527"/>
<path d="M18.894 17.834L17.8334 18.8946L15.7121 16.7733L16.7727 15.7127L18.894 17.834Z" fill="#001527"/>
<path d="M7.22718 8.28722L8.28784 7.22656L6.16652 5.10524L5.10586 6.1659L7.22718 8.28722Z" fill="#001527"/>
</svg>
