<svg width="24" height="24" viewBox="0 0 24 24" fill="none" xmlns="http://www.w3.org/2000/svg">
<path fill-rule="evenodd" clip-rule="evenodd" d="M12 2.25C8.94297 2.25 6.42321 4.55035 6.07905 7.51523C3.9098 7.85619 2.25 9.7345 2.25 12C2.25 14.4623 4.2106 16.4659 6.65453 16.537L4.46997 21.7361H19.53L17.3454 16.537C19.7899 16.4654 21.75 14.4611 21.75 12C21.75 9.7353 20.0901 7.85718 17.9209 7.51624C17.5768 4.55137 15.0572 2.25 12 2.25ZM16.716 15.039H17.21C18.8889 15.039 20.25 13.6777 20.25 12C20.25 10.3222 18.8888 8.961 17.211 8.961H16.461V8.211C16.461 5.74721 14.4638 3.75 12 3.75C9.53603 3.75 7.539 5.7464 7.539 8.21V8.96H6.789C5.11134 8.96 3.75 10.3211 3.75 12C3.75 13.6787 5.11108 15.039 6.789 15.039H7.28398L8.87399 11.2549H15.126L16.716 15.039ZM6.72727 20.2361L9.87075 12.7549H14.1292L17.2727 20.2361H6.72727Z" fill="#001527"/>
</svg>
