<svg width="24" height="24" viewBox="0 0 24 24" fill="none" xmlns="http://www.w3.org/2000/svg">
<path d="M22.001 5.00027C20.3435 5.00027 18.9998 6.34398 18.9998 8.00152C18.9998 7.20554 18.6836 6.44216 18.1207 5.87932C17.5579 5.31648 16.7945 5.00027 15.9985 5.00027C17.6561 5.00027 18.9998 3.65657 18.9998 1.99902C18.9998 3.65657 20.3435 5.00027 22.001 5.00027Z" fill="#001527"/>
<path d="M13 3.25132C12.6952 3.25024 12.3735 3.25024 12.0336 3.25024H11.9664C10.5947 3.25024 9.51928 3.25024 8.65494 3.32086C7.77479 3.39277 7.04769 3.54162 6.38955 3.87696C5.30762 4.42823 4.42798 5.30787 3.87671 6.3898C3.54138 7.04793 3.39252 7.77504 3.32061 8.65518C3.24999 9.51953 3.25 10.595 3.25 11.9667V12.0338C3.25 13.4055 3.24999 14.481 3.32061 15.3453C3.39252 16.2254 3.54138 16.9526 3.87671 17.6107C4.42798 18.6926 5.30762 19.5723 6.38955 20.1235C7.04769 20.4589 7.77479 20.6077 8.65494 20.6796C9.51925 20.7503 10.5946 20.7502 11.9663 20.7502H12.0336C13.4052 20.7502 14.4808 20.7503 15.3451 20.6796C16.2252 20.6077 16.9523 20.4589 17.6104 20.1235C18.6924 19.5723 19.572 18.6926 20.1233 17.6107C20.4586 16.9526 20.6075 16.2254 20.6794 15.3453C20.75 14.481 20.75 13.4056 20.75 12.034V11.9649C20.75 11.6256 20.75 11.3045 20.7489 11.0002H19.2488C19.25 11.31 19.25 11.6423 19.25 12.0002C19.25 13.4128 19.2494 14.427 19.1844 15.2232C19.12 16.0105 18.9964 16.5183 18.7868 16.9297C18.3793 17.7294 17.7291 18.3796 16.9295 18.787C16.518 18.9967 16.0103 19.1203 15.2229 19.1846C14.4268 19.2497 13.4125 19.2502 12 19.2502C10.5875 19.2502 9.57322 19.2497 8.77708 19.1846C7.9897 19.1203 7.48197 18.9967 7.07054 18.787C6.27085 18.3796 5.62068 17.7294 5.21322 16.9297C5.00359 16.5183 4.87996 16.0105 4.81563 15.2232C4.75058 14.427 4.75 13.4128 4.75 12.0002C4.75 10.5877 4.75058 9.57346 4.81563 8.77733C4.87996 7.98995 5.00359 7.48221 5.21322 7.07078C5.62068 6.2711 6.27085 5.62093 7.07054 5.21347C7.48197 5.00383 7.9897 4.88021 8.77708 4.81587C9.57322 4.75083 10.5875 4.75024 12 4.75024C12.3579 4.75024 12.6903 4.75028 13 4.7514V3.25132Z" fill="#001527"/>
<path d="M12 17.0002C12 14.2388 14.2386 12.0002 17 12.0002C14.2386 12.0002 12 9.76167 12 7.00024C12 9.76167 9.76142 12.0002 7 12.0002C9.76142 12.0002 12 14.2388 12 17.0002Z" fill="#001527"/>
</svg>
