<svg width="24" height="24" viewBox="0 0 24 24" fill="none" xmlns="http://www.w3.org/2000/svg">
<path fill-rule="evenodd" clip-rule="evenodd" d="M11.8466 2.26857C11.9002 2.26858 11.9544 2.26859 12.0093 2.26859C12.0642 2.26859 12.1184 2.26858 12.172 2.26857C13.887 2.2683 14.9336 2.26813 15.8052 2.55288C17.5486 3.12245 18.9157 4.48954 19.4853 6.23293C19.77 7.10452 19.7699 8.15112 19.7696 9.86618C19.7696 9.91974 19.7696 9.97396 19.7696 10.0288V13.9895C19.7696 14.0444 19.7696 14.0986 19.7696 14.1522C19.7699 15.8673 19.77 16.9139 19.4853 17.7854C18.9157 19.5288 17.5486 20.8959 15.8052 21.4655C14.9336 21.7502 13.887 21.7501 12.172 21.7498C12.1184 21.7498 12.0642 21.7498 12.0093 21.7498C11.9544 21.7498 11.9002 21.7498 11.8466 21.7498C10.1316 21.7501 9.08499 21.7502 8.2134 21.4655C6.47001 20.8959 5.10292 19.5288 4.53335 17.7854C4.2486 16.9139 4.24877 15.8673 4.24904 14.1522C4.24905 14.0986 4.24906 14.0444 4.24906 13.9895V10.0288C4.24906 9.97395 4.24905 9.91974 4.24904 9.86617C4.24877 8.15111 4.2486 7.10452 4.53335 6.23293C5.10292 4.48954 6.47001 3.12245 8.2134 2.55288C9.08499 2.26813 10.1316 2.2683 11.8466 2.26857ZM12.0093 3.76859C10.0798 3.76859 9.2938 3.77794 8.67923 3.97872C7.39063 4.3997 6.38017 5.41016 5.95919 6.69876C5.7584 7.31333 5.74906 8.09928 5.74906 10.0288V13.9895C5.74906 15.9191 5.7584 16.705 5.95919 17.3196C6.38017 18.6082 7.39063 19.6187 8.67923 20.0397C9.2938 20.2404 10.0798 20.2498 12.0093 20.2498C13.9389 20.2498 14.7248 20.2404 15.3394 20.0397C16.628 19.6187 17.6384 18.6082 18.0594 17.3196C18.2602 16.705 18.2696 15.9191 18.2696 13.9895V10.0288C18.2696 8.09928 18.2602 7.31333 18.0594 6.69876C17.6384 5.41016 16.628 4.3997 15.3394 3.97872C14.7248 3.77794 13.9389 3.76859 12.0093 3.76859Z" fill="#001527"/>
</svg>
