<svg width="24" height="24" viewBox="0 0 24 24" fill="none" xmlns="http://www.w3.org/2000/svg">
<path d="M6.94811 3.75H17.0521C17.9506 3.74997 18.6998 3.74995 19.2946 3.82991C19.9224 3.91432 20.4892 4.09999 20.9447 4.55546C21.4001 5.01093 21.5858 5.57773 21.6702 6.20552C21.7502 6.80031 21.7501 7.54953 21.7501 8.44801L21.7502 13.8936C21.7506 14.452 21.7509 14.8836 21.6438 15.2574C21.3825 16.1694 20.6695 16.8823 19.7575 17.1436C19.3837 17.2507 18.9521 17.2504 18.3937 17.2501L18.2896 17.25V15.75C19.0021 15.75 19.2012 15.7427 19.3444 15.7017C19.7589 15.5829 20.083 15.2588 20.2018 14.8443C20.2428 14.7011 20.2501 14.502 20.2501 13.7895V8.5C20.2501 7.53599 20.2485 6.88843 20.1836 6.4054C20.1215 5.94393 20.0143 5.74644 19.884 5.61612C19.7537 5.4858 19.5562 5.37858 19.0947 5.31654C18.6117 5.2516 17.9641 5.25 17.0001 5.25H7.00011C6.0361 5.25 5.38854 5.2516 4.9055 5.31654C4.44404 5.37858 4.24654 5.4858 4.11623 5.61612C3.98591 5.74644 3.87869 5.94393 3.81665 6.4054C3.7517 6.88843 3.75011 7.53599 3.75011 8.5V13.7317C3.75011 14.5025 3.75865 14.7175 3.80658 14.8715C3.92875 15.264 4.23612 15.5714 4.62865 15.6935C4.78265 15.7415 4.99757 15.75 5.76845 15.75V17.25L5.65581 17.2501C5.05197 17.2505 4.58486 17.2509 4.1829 17.1258C3.31932 16.857 2.64311 16.1808 2.37434 15.3172C2.24924 14.9153 2.2496 14.4481 2.25005 13.8443L2.25011 8.448C2.25008 7.54952 2.25006 6.8003 2.33002 6.20552C2.41443 5.57773 2.6001 5.01093 3.05557 4.55546C3.51104 4.09999 4.07784 3.91432 4.70563 3.82991C5.30041 3.74995 6.04965 3.74997 6.94811 3.75Z" fill="#001527"/>
<path d="M18.601 20.25L11.9997 12.3285L5.39844 20.25H18.601Z" fill="#001527"/>
</svg>
