<svg width="24" height="24" viewBox="0 0 24 24" fill="none" xmlns="http://www.w3.org/2000/svg">
<path d="M12.4607 10.5802H11.6963V9.81195H10.9343V9.04371H11.6963V8.27783H12.4607V9.04371H13.2228V9.81195H12.4607V10.5802Z" fill="#001527"/>
<path d="M15.3213 11.7325C15.3213 10.9902 15.9192 10.3869 16.6578 10.3869C17.3941 10.3869 17.992 10.9902 17.992 11.7325C17.992 12.4748 17.3941 13.0758 16.6578 13.0758C15.9192 13.0758 15.3213 12.4748 15.3213 11.7325Z" fill="#001527"/>
<path d="M16.6578 14.9987H7.50154V13.4622H16.6578V14.9987Z" fill="#001527"/>
<path d="M7.50154 10.3893C8.23779 10.3893 8.83572 10.9926 8.83572 11.7349C8.83572 12.4772 8.23779 13.0758 7.50154 13.0781C6.76058 13.0781 6.16504 12.4772 6.16504 11.7349C6.16504 10.9926 6.76294 10.3893 7.50154 10.3893Z" fill="#001527"/>
<path d="M13.605 13.0781C12.8664 13.0781 12.2684 12.4772 12.2684 11.7349C12.2684 10.9902 12.8664 10.3869 13.605 10.3893C14.3412 10.3893 14.9391 10.9926 14.9391 11.7349C14.9391 12.4772 14.3412 13.0781 13.605 13.0781Z" fill="#001527"/>
<path d="M11.8886 11.7325C11.8886 12.4748 11.2883 13.0758 10.5521 13.0758C9.81112 13.0758 9.21789 12.4772 9.21789 11.7325C9.21789 10.9902 9.81112 10.3869 10.5521 10.3869C11.2883 10.3869 11.8886 10.9902 11.8886 11.7325Z" fill="#001527"/>
<path fill-rule="evenodd" clip-rule="evenodd" d="M12.0383 3.23535H11.9715C10.6075 3.23535 9.53804 3.23534 8.67836 3.3052C7.80301 3.37633 7.07965 3.52356 6.42441 3.85527C5.3319 4.40835 4.44448 5.29577 3.89141 6.38828C3.55941 7.04409 3.41235 7.7705 3.3413 8.65039C3.27148 9.51507 3.27148 10.5921 3.27148 11.9666V12.0331C3.27148 13.4077 3.27148 14.4847 3.3413 15.3494C3.41235 16.2293 3.55941 16.9557 3.89141 17.6115C4.44448 18.704 5.3319 19.5914 6.42441 20.1445C7.07965 20.4762 7.80301 20.6235 8.67836 20.6946C9.53804 20.7644 10.6075 20.7644 11.9715 20.7644H12.0382C13.4023 20.7644 14.4717 20.7644 15.3314 20.6946C16.2068 20.6235 16.9301 20.4762 17.5854 20.1445C18.6779 19.5914 19.5653 18.704 20.1184 17.6115C20.4504 16.9557 20.5974 16.2293 20.6685 15.3494C20.7383 14.4847 20.7383 13.4077 20.7383 12.0332V11.9666C20.7383 10.5921 20.7383 9.51506 20.6685 8.65039C20.5974 7.7705 20.4504 7.04409 20.1184 6.38828C19.5653 5.29577 18.6779 4.40835 17.5854 3.85527C16.9301 3.52356 16.2068 3.37633 15.3314 3.3052C14.4717 3.23534 13.4023 3.23535 12.0383 3.23535ZM7.10191 5.19356C7.51149 4.98621 8.0167 4.86391 8.79985 4.80027C9.59168 4.73593 10.6003 4.73535 12.0049 4.73535C13.4095 4.73535 14.4181 4.73593 15.2099 4.80027C15.9931 4.86391 16.4983 4.98621 16.9079 5.19356C17.7154 5.60235 18.3713 6.25827 18.7801 7.06577C18.9871 7.47479 19.1096 7.98213 19.1733 8.77113C19.2377 9.56837 19.2383 10.585 19.2383 11.9999C19.2383 13.4148 19.2377 14.4314 19.1733 15.2287C19.1096 16.0177 18.9871 16.525 18.7801 16.934C18.3713 17.7415 17.7154 18.3974 16.9079 18.8062C16.4983 19.0136 15.9931 19.1359 15.2099 19.1995C14.4181 19.2639 13.4095 19.2644 12.0049 19.2644C10.6003 19.2644 9.59168 19.2639 8.79985 19.1995C8.0167 19.1359 7.51149 19.0136 7.10191 18.8062C6.2944 18.3974 5.63848 17.7415 5.22969 16.934C5.02263 16.525 4.90015 16.0177 4.83643 15.2287C4.77206 14.4314 4.77148 13.4148 4.77148 11.9999C4.77148 10.585 4.77206 9.56837 4.83643 8.77113C4.90015 7.98213 5.02263 7.47479 5.22969 7.06577C5.63848 6.25827 6.2944 5.60235 7.10191 5.19356Z" fill="#001527"/>
</svg>
