<svg width="24" height="24" viewBox="0 0 24 24" fill="none" xmlns="http://www.w3.org/2000/svg">
<path d="M12.75 7.09839V13.093H11.25V7.09839H12.75Z" fill="#001527"/>
<path d="M12.7969 15.3547C12.7969 15.7948 12.4401 16.1516 12 16.1516C11.5599 16.1516 11.2031 15.7948 11.2031 15.3547C11.2031 14.9146 11.5599 14.5579 12 14.5579C12.4401 14.5579 12.7969 14.9146 12.7969 15.3547Z" fill="#001527"/>
<path fill-rule="evenodd" clip-rule="evenodd" d="M2.25 12C2.25 17.3852 6.61479 21.75 12 21.75C17.3852 21.75 21.75 17.3852 21.75 12C21.75 6.61479 17.3852 2.25 12 2.25C6.61479 2.25 2.25 6.61479 2.25 12ZM3.75 12C3.75 7.44321 7.44321 3.75 12 3.75C16.5568 3.75 20.25 7.44321 20.25 12C20.25 16.5568 16.5568 20.25 12 20.25C7.44321 20.25 3.75 16.5568 3.75 12Z" fill="#001527"/>
</svg>
