<svg width="24" height="24" viewBox="0 0 24 24" fill="none" xmlns="http://www.w3.org/2000/svg">
<path d="M17.0608 10.0003L15.0608 12.0003L17.0608 14.0003L16.0001 15.0609L14.0001 13.0609L12.0001 15.0609L10.9395 14.0003L12.9395 12.0003L10.9395 10.0003L12.0001 8.93961L14.0001 10.9396L16.0001 8.93961L17.0608 10.0003Z" fill="#001527"/>
<path fill-rule="evenodd" clip-rule="evenodd" d="M8.17908 4.9502C7.27877 4.9502 6.43547 5.39089 5.92142 6.13001L2.93082 10.43C2.27436 11.3739 2.27436 12.6265 2.93082 13.5704L5.92142 17.8704C6.43547 18.6095 7.27876 19.0502 8.17907 19.0502L19.2466 19.0502C20.7654 19.0502 21.9966 17.819 21.9966 16.3002V7.70021C21.9966 6.18143 20.7654 4.95022 19.2466 4.95021L8.17908 4.9502ZM7.15287 6.98648C7.38653 6.65051 7.76985 6.45019 8.17908 6.4502L19.2466 6.45021C19.937 6.45021 20.4966 7.00986 20.4966 7.70021V16.3002C20.4966 16.9905 19.937 17.5502 19.2466 17.5502L8.17908 17.5502C7.76985 17.5502 7.38653 17.3499 7.15287 17.0139L4.16227 12.7139C3.86388 12.2849 3.86388 11.7155 4.16227 11.2865L7.15287 6.98648Z" fill="#001527"/>
</svg>
