<svg width="24" height="24" viewBox="0 0 24 24" fill="none" xmlns="http://www.w3.org/2000/svg">
<path fill-rule="evenodd" clip-rule="evenodd" d="M7.58114 3.25586C6.24269 3.25586 5.05961 4.12587 4.66071 5.4035L1.72035 14.821C0.803856 17.7563 2.99354 20.7385 6.06673 20.745L6.08045 20.745C8.51338 20.745 10.5013 18.8397 10.6334 16.4397C10.6381 16.3554 10.6405 16.2705 10.6406 16.1851C10.6406 15.4343 11.2492 14.8257 12 14.8257C12.7508 14.8257 13.3594 15.4343 13.3594 16.1851C13.3615 18.6965 15.3922 20.7332 17.9014 20.7449C17.9102 20.7463 17.9162 20.7464 17.9196 20.745L17.9232 20.745C21.0017 20.745 23.1971 17.7595 22.2797 14.821L19.3393 5.4035C18.9404 4.12587 17.7573 3.25586 16.4189 3.25586C14.7292 3.25586 13.3594 4.62563 13.3594 6.31533V6.62492C12.9551 6.40603 12.4921 6.28174 12 6.28174C11.5079 6.28174 11.0449 6.40603 10.6406 6.62492V6.31533C10.6406 4.62563 9.27083 3.25586 7.58114 3.25586ZM13.3594 9.14111C13.3594 8.39035 12.7508 7.78174 12 7.78174C11.2492 7.78174 10.6406 8.39035 10.6406 9.14111L10.6406 13.6689C11.0449 13.45 11.5079 13.3257 12 13.3257C12.4921 13.3257 12.9551 13.45 13.3594 13.6689V9.14111ZM17.9263 19.245L17.9232 19.245C16.2896 19.245 14.9546 17.9664 14.8643 16.3553C14.8612 16.299 14.8596 16.2422 14.8596 16.1851C14.8596 14.4951 16.2296 13.1251 17.9196 13.1251C19.6095 13.1251 20.9795 14.4951 20.9795 16.1851C20.9795 17.8728 19.6132 19.2413 17.9263 19.245ZM19.8429 12.0494C19.2585 11.7771 18.6068 11.6251 17.9196 11.6251C16.7419 11.6251 15.6685 12.0716 14.8594 12.8044V6.31533C14.8594 5.45406 15.5576 4.75586 16.4189 4.75586C17.1011 4.75586 17.7041 5.19932 17.9075 5.85055L19.8429 12.0494ZM9.1406 12.8044V6.31533C9.1406 5.45406 8.44241 4.75586 7.58114 4.75586C6.89891 4.75586 6.29587 5.19932 6.09254 5.85055L4.15712 12.0494C4.74153 11.7771 5.39323 11.6251 6.08045 11.6251C7.2581 11.6251 8.33149 12.0716 9.1406 12.8044ZM9.13574 16.3553C9.04544 17.9664 7.71042 19.245 6.07677 19.245L6.07366 19.245C4.38682 19.2413 3.02051 17.8728 3.02051 16.1851C3.02051 14.4951 4.39049 13.1251 6.08045 13.1251C7.77041 13.1251 9.14039 14.4951 9.14039 16.1851C9.14039 16.2422 9.13883 16.299 9.13574 16.3553Z" fill="#001527"/>
</svg>
