<svg width="24" height="24" viewBox="0 0 24 24" fill="none" xmlns="http://www.w3.org/2000/svg">
<path fill-rule="evenodd" clip-rule="evenodd" d="M14.9553 2.25H15.0448C15.4776 2.24995 15.8744 2.24991 16.1972 2.29331C16.5527 2.3411 16.9284 2.45355 17.2374 2.76257C17.3875 2.91264 17.4912 3.07844 17.5637 3.25001H19C19.9665 3.25001 20.75 4.03351 20.75 5.00001V16C20.75 16.7149 20.3213 17.3297 19.707 17.6013V20.25H20.75V21.75H6C4.48122 21.75 3.25 20.5188 3.25 19L3.25017 18.9692L3.25 18.9531V6.00001C3.25 5.90508 3.25481 5.81128 3.2642 5.71884C3.40503 4.33213 4.57614 3.25001 6 3.25001H12.4363C12.5088 3.07844 12.6125 2.91264 12.7626 2.76257C13.0716 2.45355 13.4473 2.3411 13.8028 2.29331C14.1256 2.24991 14.5224 2.24995 14.9553 2.25ZM18.207 20.25V17.75H6C5.30964 17.75 4.75 18.3097 4.75 19C4.75 19.6904 5.30964 20.25 6 20.25H18.207ZM19.25 16C19.25 16.1381 19.1381 16.25 19 16.25H8.74219V4.75001H12.2502C12.25 4.81739 12.25 4.88586 12.25 4.95526L12.25 10.2135L15 8.83853L17.75 10.2135L17.75 4.95526C17.75 4.88601 17.75 4.81726 17.7499 4.75001H19C19.1381 4.75001 19.25 4.86194 19.25 5.00001V16ZM7.24219 4.75001V16.25H6C5.54989 16.25 5.12503 16.3581 4.75 16.5499V6.00001C4.75 5.30965 5.30964 4.75001 6 4.75001H7.24219ZM13.8232 3.82324L13.8257 3.82187C13.8276 3.82086 13.8309 3.81924 13.836 3.81717C13.8578 3.80821 13.9061 3.79291 14.0027 3.77993C14.2134 3.7516 14.5074 3.75001 15 3.75001C15.4926 3.75001 15.7866 3.7516 15.9973 3.77993C16.0939 3.79291 16.1423 3.80821 16.164 3.81717C16.1691 3.81924 16.1724 3.82086 16.1743 3.82187L16.1768 3.82324L16.1781 3.82568C16.1792 3.82761 16.1808 3.83093 16.1828 3.83597C16.1918 3.85775 16.2071 3.90611 16.2201 4.00267C16.2484 4.21339 16.25 4.5074 16.25 5.00001V7.78648L15 7.16148L13.75 7.78648V5.00001C13.75 4.5074 13.7516 4.21339 13.7799 4.00267C13.7929 3.90611 13.8082 3.85775 13.8172 3.83597C13.8192 3.83093 13.8209 3.82761 13.8219 3.82568L13.8232 3.82324Z" fill="#001527"/>
</svg>
