<svg width="24" height="24" viewBox="0 0 24 24" fill="none" xmlns="http://www.w3.org/2000/svg">
<path fill-rule="evenodd" clip-rule="evenodd" d="M7.75778 2.12305C5.67104 2.12305 4.12039 3.13362 3.33831 3.78059C2.7565 4.26188 2.52344 4.96592 2.52344 5.61623V22.281L3.70191 21.454L3.70278 21.4534L3.70952 21.4489C3.71774 21.4434 3.73236 21.4338 3.75319 21.4207C3.79487 21.3944 3.86132 21.3541 3.95114 21.3042C4.13096 21.2044 4.4033 21.0673 4.75715 20.9288C5.46531 20.6518 6.49327 20.3723 7.75778 20.3723C9.66237 20.3723 11.0259 21.3036 11.528 21.7102L12 22.0925L12.472 21.7102C12.9741 21.3036 14.3376 20.3723 16.2422 20.3723C17.5067 20.3723 18.5346 20.6518 19.2428 20.9288C19.5966 21.0673 19.869 21.2044 20.0488 21.3042C20.1386 21.3541 20.2051 21.3944 20.2467 21.4207C20.2676 21.4338 20.2822 21.4434 20.2904 21.4489L20.2972 21.4534L20.2983 21.4542L21.4765 22.281V5.61623C21.4765 4.96592 21.2434 4.26188 20.6616 3.78059C19.8795 3.13362 18.3289 2.12305 16.2422 2.12305C14.3086 2.12305 12.8408 3.17294 12 3.97282C11.1591 3.17294 9.69136 2.12305 7.75778 2.12305ZM4.29442 4.93638C4.94218 4.40053 6.16201 3.62305 7.75778 3.62305C9.36618 3.62305 10.6034 4.65587 11.231 5.32651V19.7363C10.3779 19.2911 9.19412 18.8723 7.75778 18.8723C6.27105 18.8723 5.05684 19.2009 4.21064 19.5319C4.14613 19.5572 4.08371 19.5824 4.02344 19.6076V5.61623C4.02344 5.30294 4.13374 5.0693 4.29442 4.93638ZM12.731 19.7562C13.5869 19.3036 14.7845 18.8723 16.2422 18.8723C17.7289 18.8723 18.9431 19.2009 19.7893 19.5319C19.8538 19.5572 19.9162 19.5824 19.9765 19.6076V5.61623C19.9765 5.30294 19.8662 5.0693 19.7055 4.93638C19.0578 4.40053 17.8379 3.62305 16.2422 3.62305C14.6008 3.62305 13.346 4.69866 12.731 5.36729V19.7562Z" fill="#001527"/>
</svg>
