<svg width="24" height="24" viewBox="0 0 24 24" fill="none" xmlns="http://www.w3.org/2000/svg">
<path d="M12.8125 3.8125V1.1875H11.1875V3.8125H12.8125Z" fill="#001527"/>
<path fill-rule="evenodd" clip-rule="evenodd" d="M7.53639 7.53639C10.0016 5.0712 13.9984 5.0712 16.4636 7.53639C18.9288 10.0016 18.9288 13.9984 16.4636 16.4636C13.9984 18.9288 10.0016 18.9288 7.53639 16.4636C5.0712 13.9984 5.0712 10.0016 7.53639 7.53639ZM12.0056 7.3125C10.8041 7.31109 9.60214 7.76873 8.68543 8.68543C6.85486 10.516 6.85486 13.484 8.68543 15.3146C9.60214 16.2313 10.8041 16.6889 12.0056 16.6875V7.3125Z" fill="#001527"/>
<path d="M12.8125 20.1875V22.8125H11.1875V20.1875H12.8125Z" fill="#001527"/>
<path d="M18.36 6.78905L20.219 4.93L19.07 3.78095L17.2109 5.64L18.36 6.78905Z" fill="#001527"/>
<path d="M6.78886 18.36L4.92981 20.219L3.78076 19.07L5.63981 17.211L6.78886 18.36Z" fill="#001527"/>
<path d="M22.8125 11.1875H20.1875V12.8125H22.8125V11.1875Z" fill="#001527"/>
<path d="M1.1875 11.1875H3.8125V12.8125H1.1875V11.1875Z" fill="#001527"/>
<path d="M20.219 19.07L18.36 17.211L17.2109 18.36L19.07 20.219L20.219 19.07Z" fill="#001527"/>
<path d="M4.92981 3.78095L6.78886 5.64L5.63981 6.78905L3.78076 4.93L4.92981 3.78095Z" fill="#001527"/>
</svg>
