<svg width="24" height="24" viewBox="0 0 24 24" fill="none" xmlns="http://www.w3.org/2000/svg">
<path fill-rule="evenodd" clip-rule="evenodd" d="M8.81802 8.81801C10.2089 7.42713 12.2837 7.13708 13.9599 7.94785C14.4015 8.16148 14.8155 8.45153 15.182 8.81801C15.5485 9.18449 15.8385 9.59846 16.0521 10.0401C16.8629 11.7163 16.5729 13.7911 15.182 15.182C13.4246 16.9393 10.5754 16.9393 8.81802 15.182C7.06066 13.4246 7.06066 10.5754 8.81802 8.81801ZM14.1213 9.87867C15.2929 11.0502 15.2929 12.9497 14.1213 14.1213C12.9497 15.2929 11.0503 15.2929 9.87868 14.1213C8.70711 12.9497 8.70711 11.0502 9.87868 9.87867C11.0503 8.7071 12.9497 8.7071 14.1213 9.87867Z" fill="#001527"/>
<path d="M11.25 3H12.75V6H11.25V3Z" fill="#001527"/>
<path d="M12.75 18H11.25V21H12.75V18Z" fill="#001527"/>
<path d="M17.834 5.10571L18.8946 6.16637L16.7733 8.28769L15.7127 7.22703L17.834 5.10571Z" fill="#001527"/>
<path d="M8.28722 16.773L7.22656 15.7123L5.10524 17.8336L6.1659 18.8943L8.28722 16.773Z" fill="#001527"/>
<path d="M21 11.2503V12.7503H18V11.2503H21Z" fill="#001527"/>
<path d="M6 12.7497V11.2497H3V12.7497H6Z" fill="#001527"/>
<path d="M18.8945 17.8338L17.8339 18.8944L15.7126 16.7731L16.7732 15.7125L18.8945 17.8338Z" fill="#001527"/>
<path d="M7.22743 8.28741L8.28809 7.22675L6.16677 5.10543L5.10611 6.16609L7.22743 8.28741Z" fill="#001527"/>
</svg>
