<svg width="24" height="24" viewBox="0 0 24 24" fill="none" xmlns="http://www.w3.org/2000/svg">
<path d="M11.25 4.5H12.75V6H11.25V4.5Z" fill="#001527"/>
<path fill-rule="evenodd" clip-rule="evenodd" d="M13.9599 7.94785C12.2837 7.13708 10.2089 7.42713 8.81802 8.81801C7.06066 10.5754 7.06066 13.4246 8.81802 15.182C10.5754 16.9393 13.4246 16.9393 15.182 15.182C16.5729 13.7911 16.8629 11.7163 16.0521 10.0401C15.8385 9.59846 15.5485 9.18449 15.182 8.81801C14.8155 8.45153 14.4015 8.16148 13.9599 7.94785ZM14.1213 14.1213C15.2929 12.9497 15.2929 11.0502 14.1213 9.87867C12.9497 8.7071 11.0503 8.7071 9.87868 9.87867C8.70711 11.0502 8.70711 12.9497 9.87868 14.1213C11.0503 15.2929 12.9497 15.2929 14.1213 14.1213Z" fill="#001527"/>
<path d="M12.75 18H11.25V19.5H12.75V18Z" fill="#001527"/>
<path d="M19.5 11.25V12.75H18V11.25H19.5Z" fill="#001527"/>
<path d="M6 12.75V11.25H4.5V12.75H6Z" fill="#001527"/>
<path d="M16.7734 6.16637L17.8341 7.22703L16.7734 8.28769L15.7128 7.22703L16.7734 6.16637Z" fill="#001527"/>
<path d="M8.2882 16.773L7.22754 15.7124L6.16688 16.773L7.22754 17.8337L8.2882 16.773Z" fill="#001527"/>
<path d="M17.834 16.773L16.7733 17.8336L15.7127 16.773L16.7733 15.7123L17.834 16.773Z" fill="#001527"/>
<path d="M7.22645 8.28767L8.28711 7.22701L7.22645 6.16634L6.16579 7.22701L7.22645 8.28767Z" fill="#001527"/>
</svg>
