<svg width="24" height="24" viewBox="0 0 24 24" fill="none" xmlns="http://www.w3.org/2000/svg">
<path d="M13.05 12.6788C13.05 13.3416 12.5127 13.8788 11.85 13.8788C11.1872 13.8788 10.65 13.3416 10.65 12.6788C10.65 12.0161 11.1872 11.4788 11.85 11.4788C12.5127 11.4788 13.05 12.0161 13.05 12.6788Z" fill="#001527"/>
<path d="M16.25 13.8788C16.9127 13.8788 17.45 13.3416 17.45 12.6788C17.45 12.0161 16.9127 11.4788 16.25 11.4788C15.5872 11.4788 15.05 12.0161 15.05 12.6788C15.05 13.3416 15.5872 13.8788 16.25 13.8788Z" fill="#001527"/>
<path d="M13.05 17.0788C13.05 17.7416 12.5127 18.2788 11.85 18.2788C11.1872 18.2788 10.65 17.7416 10.65 17.0788C10.65 16.4161 11.1872 15.8788 11.85 15.8788C12.5127 15.8788 13.05 16.4161 13.05 17.0788Z" fill="#001527"/>
<path d="M7.44994 18.2788C8.11268 18.2788 8.64994 17.7416 8.64994 17.0788C8.64994 16.4161 8.11268 15.8788 7.44994 15.8788C6.7872 15.8788 6.24994 16.4161 6.24994 17.0788C6.24994 17.7416 6.7872 18.2788 7.44994 18.2788Z" fill="#001527"/>
<path fill-rule="evenodd" clip-rule="evenodd" d="M16.4998 1.38672V3.11283C18.1755 3.24562 19.2896 3.5662 20.1304 4.34014C20.2319 4.43358 20.3295 4.53118 20.4229 4.63269C21.7441 6.06806 21.7441 8.29719 21.7441 12.7555C21.7441 17.2137 21.7441 19.4428 20.4229 20.8782C20.3295 20.9797 20.2319 21.0773 20.1304 21.1708C18.695 22.492 16.4633 22.492 12 22.492C7.53666 22.492 5.30499 22.492 3.86963 21.1708C3.76812 21.0773 3.67052 20.9797 3.57707 20.8782C2.25586 19.4428 2.25586 17.2137 2.25586 12.7555C2.25586 8.29719 2.25586 6.06806 3.57707 4.63269C3.67052 4.53118 3.76812 4.43358 3.86963 4.34014C4.71035 3.56628 5.82425 3.24568 7.49976 3.11286V1.38672H8.99976V3.04076C9.67363 3.02387 10.42 3.02004 11.2498 3.01917V1.38672H12.7498V3.01917C13.5795 3.02004 14.3259 3.02386 14.9998 3.04075V1.38672H16.4998ZM8.99976 4.54122C9.65464 4.52444 10.3975 4.52027 11.2498 4.51925V5.99268H12.7498V4.51925C13.602 4.52027 14.3449 4.52443 14.9998 4.54121V5.99268H16.4998V4.61781C16.678 4.63332 16.8481 4.65127 17.011 4.67203C18.1509 4.81737 18.7178 5.07863 19.1145 5.44377C19.1856 5.50918 19.2539 5.5775 19.3193 5.64856C19.6568 6.01525 19.9054 6.52673 20.0558 7.5H3.94416C4.09462 6.52673 4.34318 6.01525 4.68071 5.64856C4.74612 5.5775 4.81444 5.50918 4.8855 5.44377C5.28218 5.07863 5.84913 4.81737 6.98905 4.67203C7.1517 4.65129 7.32165 4.63336 7.49976 4.61785V5.99268H8.99976V4.54122ZM3.80567 9C3.75719 9.99095 3.75586 11.2081 3.75586 12.7555C3.75586 15.0246 3.75873 16.5836 3.90894 17.7605C4.05422 18.8988 4.31535 19.4654 4.68071 19.8623C4.74612 19.9334 4.81444 20.0017 4.8855 20.0671C5.28218 20.4323 5.84913 20.6935 6.98905 20.8389C8.16738 20.9891 9.72836 20.992 12 20.992C14.2716 20.992 15.8326 20.9891 17.011 20.8389C18.1509 20.6935 18.7178 20.4323 19.1145 20.0671C19.1856 20.0017 19.2539 19.9334 19.3193 19.8623C19.6847 19.4654 19.9458 18.8988 20.0911 17.7605C20.2413 16.5836 20.2441 15.0246 20.2441 12.7555C20.2441 11.2081 20.2428 9.99095 20.1943 9H3.80567Z" fill="#001527"/>
</svg>
