<svg width="24" height="24" viewBox="0 0 24 24" fill="none" xmlns="http://www.w3.org/2000/svg">
<path d="M10.4571 11.995C10.4571 11.6985 10.2824 11.4298 10.0114 11.3095C9.74043 11.1892 9.42401 11.2398 9.20408 11.4387L7.18774 13.2616L8.19372 14.3743L8.95706 13.6842V16.245H7.61621V17.745H11.7962V16.245H10.4571V11.995Z" fill="#001527"/>
<path d="M12.8801 11.9105C12.923 11.5314 13.2438 11.245 13.6253 11.245H16.5363V12.745H14.2951L14.2151 13.45H14.7503C15.2417 13.45 15.6924 13.6285 16.04 13.9219C16.4744 14.2879 16.7503 14.8378 16.7503 15.45C16.7503 16.7175 15.7222 17.745 14.4543 17.745C13.6482 17.745 12.9673 17.3241 12.5692 16.7175L12.1578 16.0904L13.4119 15.2675L13.8234 15.8945C13.9673 16.1139 14.1944 16.245 14.4543 16.245C14.8944 16.245 15.2503 15.8885 15.2503 15.45C15.2503 15.2966 15.1825 15.1607 15.0733 15.0687C14.9849 14.9941 14.8729 14.95 14.7503 14.95H13.3753C13.1617 14.95 12.9582 14.8589 12.8159 14.6996C12.6736 14.5402 12.606 14.3278 12.6301 14.1155L12.8801 11.9105Z" fill="#001527"/>
<path fill-rule="evenodd" clip-rule="evenodd" d="M16.4998 1.38672V3.1127C18.1755 3.2455 19.2896 3.56608 20.1304 4.34001C20.2319 4.43345 20.3295 4.53106 20.4229 4.63257C21.7441 6.06793 21.7441 8.29707 21.7441 12.7553C21.7441 17.2136 21.7441 19.4427 20.4229 20.8781C20.3295 20.9796 20.2319 21.0772 20.1304 21.1706C18.695 22.4919 16.4633 22.4919 12 22.4919C7.53666 22.4919 5.30499 22.4919 3.86963 21.1706C3.76812 21.0772 3.67052 20.9796 3.57707 20.8781C2.25586 19.4427 2.25586 17.2136 2.25586 12.7553C2.25586 8.29707 2.25586 6.06793 3.57707 4.63257C3.67052 4.53106 3.76812 4.43345 3.86963 4.34001C4.71035 3.56616 5.82425 3.24556 7.49976 3.11274V1.38672H8.99976V3.04064C9.67363 3.02374 10.42 3.01992 11.2498 3.01905V1.38672H12.7498V3.01905C13.5795 3.01992 14.3259 3.02374 14.9998 3.04063V1.38672H16.4998ZM8.99976 4.5411C9.65464 4.52431 10.3975 4.52015 11.2498 4.51913V5.99268H12.7498V4.51912C13.602 4.52014 14.3449 4.52431 14.9998 4.54109V5.99268H16.4998V4.61769C16.678 4.6332 16.8481 4.65115 17.011 4.6719C18.1509 4.81725 18.7178 5.07851 19.1145 5.44365C19.1856 5.50906 19.2539 5.57738 19.3193 5.64844C19.6568 6.01514 19.9054 6.52666 20.0559 7.5H3.94414C4.0946 6.52666 4.34317 6.01514 4.68071 5.64844C4.74612 5.57738 4.81444 5.50906 4.8855 5.44365C5.28218 5.07851 5.84913 4.81725 6.98905 4.6719C7.1517 4.65116 7.32165 4.63323 7.49976 4.61773V5.99268H8.99976V4.5411ZM3.80567 9C3.75719 9.99093 3.75586 11.208 3.75586 12.7553C3.75586 15.0245 3.75873 16.5834 3.90894 17.7604C4.05422 18.8987 4.31535 19.4653 4.68071 19.8622C4.74612 19.9333 4.81444 20.0016 4.8855 20.067C5.28218 20.4321 5.84913 20.6934 6.98905 20.8388C8.16738 20.989 9.72836 20.9919 12 20.9919C14.2716 20.9919 15.8326 20.989 17.011 20.8388C18.1509 20.6934 18.7178 20.4321 19.1145 20.067C19.1856 20.0016 19.2539 19.9333 19.3193 19.8622C19.6847 19.4653 19.9458 18.8987 20.0911 17.7604C20.2413 16.5834 20.2441 15.0245 20.2441 12.7553C20.2441 11.208 20.2428 9.99093 20.1943 9H3.80567Z" fill="#001527"/>
</svg>
