<svg width="24" height="24" viewBox="0 0 24 24" fill="none" xmlns="http://www.w3.org/2000/svg">
<path fill-rule="evenodd" clip-rule="evenodd" d="M3 11.5C3 8.67157 3 7.25736 3.87868 6.37868C4.75736 5.5 6.17157 5.5 9 5.5H10C12.8284 5.5 14.2426 5.5 15.1213 6.37868C15.6691 6.9265 15.8754 7.68249 15.9531 8.85959L19.198 6.85943C19.5626 6.63465 20.0203 6.62474 20.3943 6.83354C20.7683 7.04234 21 7.43715 21 7.86548V16.1346C21 16.5629 20.7683 16.9577 20.3943 17.1665C20.0203 17.3752 19.5626 17.3654 19.198 17.1406L15.9531 15.1404C15.8754 16.3175 15.6691 17.0735 15.1213 17.6213C14.2426 18.5 12.8284 18.5 10 18.5H9C6.17157 18.5 4.75736 18.5 3.87868 17.6213C3 16.7426 3 15.3284 3 12.5V11.5ZM9 7H10C11.4566 7 12.3982 7.00319 13.0919 7.09646C13.7426 7.18393 13.9465 7.32515 14.0607 7.43934C14.1748 7.55353 14.3161 7.75745 14.4035 8.40806C14.4968 9.10182 14.5 10.0434 14.5 11.5V12.5C14.5 13.9566 14.4968 14.8982 14.4035 15.5919C14.3161 16.2426 14.1748 16.4465 14.0607 16.5607C13.9465 16.6748 13.7426 16.8161 13.0919 16.9035C12.3982 16.9968 11.4566 17 10 17H9C7.54338 17 6.60182 16.9968 5.90806 16.9035C5.25745 16.8161 5.05353 16.6748 4.93934 16.5607C4.82515 16.4465 4.68393 16.2426 4.59646 15.5919C4.50319 14.8982 4.5 13.9566 4.5 12.5V11.5C4.5 10.0434 4.50319 9.10182 4.59646 8.40806C4.68393 7.75745 4.82515 7.55353 4.93934 7.43934C5.05353 7.32515 5.25745 7.18393 5.90806 7.09646C6.60182 7.00319 7.54338 7 9 7ZM15.9987 13.4064L19.5 15.5647V8.43532L15.9987 10.5935C16 10.8785 16 11.1802 16 11.5V12.5C16 12.8198 16 13.1215 15.9987 13.4064Z" fill="#001527"/>
</svg>
