<svg width="24" height="24" viewBox="0 0 24 24" fill="none" xmlns="http://www.w3.org/2000/svg">
<path d="M7.90833 10.5537C8.48603 10.5537 8.95435 10.0854 8.95435 9.50769C8.95435 8.92999 8.48603 8.46167 7.90833 8.46167C7.33062 8.46167 6.8623 8.92999 6.8623 9.50769C6.8623 10.0854 7.33062 10.5537 7.90833 10.5537Z" fill="#001527"/>
<path d="M13.0461 9.50769C13.0461 10.0854 12.5778 10.5537 12.0001 10.5537C11.4224 10.5537 10.9541 10.0854 10.9541 9.50769C10.9541 8.92999 11.4224 8.46167 12.0001 8.46167C12.5778 8.46167 13.0461 8.92999 13.0461 9.50769Z" fill="#001527"/>
<path d="M16.0919 10.5537C16.6696 10.5537 17.1379 10.0854 17.1379 9.50769C17.1379 8.92999 16.6696 8.46167 16.0919 8.46167C15.5142 8.46167 15.0459 8.92999 15.0459 9.50769C15.0459 10.0854 15.5142 10.5537 16.0919 10.5537Z" fill="#001527"/>
<path fill-rule="evenodd" clip-rule="evenodd" d="M17.0347 2.1875H6.96535C5.87943 2.18748 4.98901 2.18746 4.28536 2.28206C3.54864 2.38111 2.90541 2.59607 2.39137 3.11012C1.87732 3.62416 1.66236 4.26739 1.56331 5.00411C1.46871 5.70776 1.46873 6.59818 1.46875 7.6841V11.2793C1.46873 12.3652 1.46871 13.2556 1.56331 13.9593C1.66236 14.696 1.87732 15.3392 2.39137 15.8533C2.90541 16.3673 3.54864 16.5823 4.28536 16.6813C4.89643 16.7635 5.64837 16.7743 6.54688 16.7757V21.9691L12.1434 16.7759H17.0346C18.1205 16.7759 19.011 16.7759 19.7146 16.6813C20.4514 16.5823 21.0946 16.3673 21.6086 15.8533C22.1227 15.3392 22.3376 14.696 22.4367 13.9593C22.5313 13.2556 22.5313 12.3652 22.5313 11.2793V7.6841C22.5313 6.59821 22.5313 5.70774 22.4367 5.00411C22.3376 4.26739 22.1227 3.62416 21.6086 3.11012C21.0946 2.59607 20.4514 2.38111 19.7146 2.28206C19.011 2.18746 18.1206 2.18748 17.0347 2.1875ZM3.45203 4.17078C3.64092 3.98188 3.91485 3.84537 4.48524 3.76868C5.0772 3.68909 5.86618 3.6875 7.01875 3.6875H16.9813C18.1338 3.6875 18.9228 3.68909 19.5148 3.76868C20.0852 3.84537 20.3591 3.98188 20.548 4.17078C20.7369 4.35967 20.8734 4.6336 20.9501 5.20399C21.0297 5.79595 21.0313 6.58493 21.0313 7.7375V11.2259C21.0313 12.3785 21.0297 13.1674 20.9501 13.7594C20.8734 14.3298 20.7369 14.6037 20.548 14.7926C20.3591 14.9815 20.0852 15.118 19.5148 15.1947C18.9228 15.2743 18.1338 15.2759 16.9813 15.2759H11.5547L8.04688 18.5309V15.2759H7.01875C5.86618 15.2759 5.0772 15.2743 4.48524 15.1947C3.91485 15.118 3.64092 14.9815 3.45203 14.7926C3.26313 14.6037 3.12662 14.3298 3.04993 13.7594C2.97034 13.1674 2.96875 12.3785 2.96875 11.2259V7.7375C2.96875 6.58493 2.97034 5.79595 3.04993 5.20399C3.12662 4.6336 3.26313 4.35967 3.45203 4.17078Z" fill="#001527"/>
</svg>
