<svg width="24" height="24" viewBox="0 0 24 24" fill="none" xmlns="http://www.w3.org/2000/svg">
<path d="M18 9.3344H5.99023V7.8344H18V9.3344Z" fill="#001527"/>
<path d="M13.5 13.8344H5.99023V12.3344H13.5V13.8344Z" fill="#001527"/>
<path fill-rule="evenodd" clip-rule="evenodd" d="M13.7628 1.76856H10.2366C8.3988 1.76854 6.94316 1.76853 5.80395 1.92169C4.63152 2.07932 3.68258 2.41144 2.93421 3.1598C2.18585 3.90816 1.85373 4.85711 1.6961 6.02953C1.54294 7.16874 1.54295 8.62437 1.54297 10.4621V23.0341L5.29406 20.0565C5.43665 19.9433 5.5161 19.8807 5.5789 19.8373C5.60682 19.8179 5.62309 19.8084 5.63176 19.8037C5.63588 19.8015 5.63914 19.8 5.63914 19.8L5.64026 19.7995L5.64142 19.7992L5.64488 19.7984L5.64951 19.7975C5.65921 19.7958 5.6779 19.7932 5.71179 19.7909C5.788 19.7859 5.88916 19.7856 6.07121 19.7856H13.7628C15.6006 19.7856 17.0562 19.7856 18.1954 19.6324C19.3679 19.4748 20.3168 19.1427 21.0652 18.3943C21.8135 17.646 22.1457 16.697 22.3033 15.5246C22.4564 14.3854 22.4564 12.9298 22.4564 11.092V10.4621C22.4564 8.62441 22.4564 7.16874 22.3033 6.02953C22.1457 4.85711 21.8135 3.90816 21.0652 3.1598C20.3168 2.41144 19.3679 2.07932 18.1954 1.92169C17.0562 1.76853 15.6006 1.76854 13.7628 1.76856ZM3.99487 4.22046C4.41808 3.79725 4.99773 3.54358 6.00382 3.40831C7.03148 3.27015 8.38615 3.26856 10.293 3.26856H13.7064C15.6132 3.26856 16.9679 3.27015 17.9956 3.40831C19.0017 3.54358 19.5813 3.79725 20.0045 4.22046C20.4277 4.64367 20.6814 5.22332 20.8167 6.2294C20.9548 7.25707 20.9564 8.61174 20.9564 10.5186V11.0356C20.9564 12.9424 20.9548 14.2971 20.8167 15.3247C20.6814 16.3308 20.4277 16.9105 20.0045 17.3337C19.5813 17.7569 19.0017 18.0105 17.9956 18.1458C16.9679 18.284 15.6132 18.2856 13.7064 18.2856H6.07121L6.00375 18.2855C5.72784 18.2848 5.43062 18.284 5.14644 18.3831C4.86227 18.4822 4.62992 18.6676 4.41425 18.8396L4.36148 18.8817L3.04297 19.9283V10.5186C3.04297 8.61174 3.04456 7.25707 3.18273 6.2294C3.31799 5.22332 3.57166 4.64367 3.99487 4.22046Z" fill="#001527"/>
</svg>
