<svg width="24" height="24" viewBox="0 0 24 24" fill="none" xmlns="http://www.w3.org/2000/svg">
<path d="M4.5 3.25C2.98122 3.25 1.75 4.48122 1.75 6V6.646H3.25V6C3.25 5.30964 3.80964 4.75 4.5 4.75H19.5C20.1904 4.75 20.75 5.30964 20.75 6V17C20.75 17.6904 20.1904 18.25 19.5 18.25H15.2196V19.75H19.5C21.0188 19.75 22.25 18.5188 22.25 17V6C22.25 4.48122 21.0188 3.25 19.5 3.25H4.5Z" fill="#001527"/>
<path d="M1.75 8.25H2.5C8.46343 8.25 13.25 13.6418 13.25 19V19.75H11.75V19C11.75 14.4168 7.58257 9.75 2.5 9.75H1.75V8.25Z" fill="#001527"/>
<path d="M2.5 12.25H1.75V13.75H2.5C5.39979 13.75 7.75 16.1002 7.75 19V19.75H9.25V19C9.25 15.2718 6.22821 12.25 2.5 12.25Z" fill="#001527"/>
<path d="M2.5 16.25H1.75V17.75H2.5C3.19079 17.75 3.75 18.3092 3.75 19V19.75H5.25V19C5.25 17.4808 4.01921 16.25 2.5 16.25Z" fill="#001527"/>
</svg>
