<svg width="24" height="24" viewBox="0 0 24 24" fill="none" xmlns="http://www.w3.org/2000/svg">
<path d="M12.6008 3.60494C14.4087 1.79705 17.3395 1.79705 19.1474 3.60494C20.9553 5.41284 20.9553 8.34371 19.1474 10.1516L11.9154 17.3836C10.7965 18.5025 8.98166 18.5025 7.86276 17.3836C6.74387 16.2647 6.74387 14.4498 7.86276 13.3309L13.8791 7.31461L14.9398 8.37527L8.92342 14.3916C8.39032 14.9247 8.39032 15.7898 8.92342 16.3229C9.45653 16.8561 10.3217 16.8561 10.8548 16.3229L18.0868 9.09094C19.3089 7.86884 19.3089 5.88771 18.0868 4.6656C16.8647 3.4435 14.8835 3.4435 13.6614 4.6656L6.42942 11.8976C4.51832 13.8087 4.51832 16.9058 6.42942 18.8169C8.34053 20.7281 11.4377 20.7281 13.3488 18.8169L18.2681 13.8976L19.3288 14.9583L14.4094 19.8776C11.9125 22.3745 7.86566 22.3745 5.36876 19.8776C2.87187 17.3807 2.87187 13.3338 5.36876 10.8369L12.6008 3.60494Z" fill="#001527"/>
</svg>
