<svg width="24" height="24" viewBox="0 0 24 24" fill="none" xmlns="http://www.w3.org/2000/svg">
<path d="M12.7502 7.46713V11.2702H16.4889V12.7702H11.2502V7.46713H12.7502Z" fill="#001527"/>
<path fill-rule="evenodd" clip-rule="evenodd" d="M9.64143 3.02051C8.34339 3.02051 7.27026 3.06336 6.40443 3.22389C5.53128 3.38578 4.79258 3.68052 4.23368 4.24275C3.67528 4.80448 3.38306 5.54606 3.22247 6.4225C3.06312 7.29225 3.02051 8.37072 3.02051 9.6764V14.3811C3.02051 15.6868 3.06312 16.7653 3.22247 17.635C3.38306 18.5114 3.67528 19.253 4.23368 19.8147C4.79258 20.377 5.53128 20.6717 6.40443 20.8336C7.27026 20.9941 8.34339 21.037 9.64143 21.037H14.3183C15.6167 21.037 16.6888 20.9941 17.5552 20.8355C18.4285 20.6756 19.1665 20.3856 19.7304 19.8353C20.2948 19.2844 20.5998 18.5558 20.7763 17.6922C20.9512 16.8365 21.0136 15.7764 21.0386 14.4958L21.0387 14.4885V9.6764C21.0387 8.37072 20.9961 7.29225 20.8367 6.4225C20.6761 5.54606 20.3839 4.80448 19.8255 4.24275C19.2666 3.68052 18.5279 3.38578 17.6548 3.22389C16.7889 3.06336 15.7158 3.02051 14.4178 3.02051H9.64143ZM4.52051 9.6764C4.52051 8.37949 4.56497 7.41843 4.69791 6.69283C4.82963 5.97393 5.03495 5.56436 5.29748 5.30026C5.55951 5.03667 5.96514 4.83091 6.67789 4.69876C7.39795 4.56525 8.35229 4.52051 9.64143 4.52051H14.4178C15.7069 4.52051 16.6613 4.56525 17.3813 4.69876C18.0941 4.83091 18.4997 5.03667 18.7617 5.30026C19.0243 5.56436 19.2296 5.97393 19.3613 6.69283C19.4942 7.41843 19.5387 8.37949 19.5387 9.6764V14.4739C19.5138 15.7421 19.4518 16.6818 19.3067 17.3919C19.1629 18.0956 18.9516 18.4993 18.6827 18.7618C18.4133 19.0247 18.0007 19.229 17.285 19.36C16.5624 19.4923 15.607 19.537 14.3183 19.537H9.64143C8.35229 19.537 7.39795 19.4923 6.67789 19.3587C5.96514 19.2266 5.55951 19.0208 5.29748 18.7572C5.03495 18.4931 4.82963 18.0836 4.69791 17.3647C4.56497 16.6391 4.52051 15.678 4.52051 14.3811V9.6764Z" fill="#001527"/>
</svg>
