<svg width="24" height="24" viewBox="0 0 24 24" fill="none" xmlns="http://www.w3.org/2000/svg">
<path fill-rule="evenodd" clip-rule="evenodd" d="M18.8946 5.10592C15.0867 1.29803 8.91381 1.29803 5.10592 5.10592C1.29803 8.91381 1.29803 15.0867 5.10592 18.8946C8.91381 22.7025 15.0867 22.7025 18.8946 18.8946C20.8008 16.9883 21.7304 14.4895 21.7283 11.9996L21.7276 11.2496L20.2276 11.2509L20.2283 12.0009C20.2301 14.117 19.4417 16.2262 17.8339 17.8339C14.6118 21.056 9.38869 21.056 6.16658 17.8339C2.94447 14.6118 2.94447 9.38869 6.16658 6.16658C9.2099 3.12326 14.0383 2.95439 17.2798 5.65998L15.8573 7.08244C14.7955 6.24866 13.4555 5.75025 12 5.75025C8.54779 5.75025 5.75 8.54804 5.75 12.0003C5.75 15.4525 8.54779 18.2503 12 18.2503C15.4522 18.2503 18.25 15.4525 18.25 12.0003V11.2503H16.75V12.0003C16.75 14.624 14.6238 16.7503 12 16.7503C9.37621 16.7503 7.25 14.624 7.25 12.0003C7.25 9.37647 9.37621 7.25025 12 7.25025C13.0414 7.25025 14.0038 7.58492 14.7866 8.15315L13.3411 9.59864C12.2941 9.01325 10.9456 9.16561 10.0555 10.0557C8.98151 11.1297 8.98151 12.8709 10.0555 13.9448C11.1294 15.0188 12.8706 15.0188 13.9445 13.9448C14.8346 13.0547 14.987 11.7064 14.4017 10.6593L19.4249 5.63625L18.8946 5.10592ZM11.1161 11.1164C11.5866 10.6459 12.3388 10.6289 12.8297 11.0653C12.8453 11.0843 12.862 11.1028 12.8798 11.1206C12.8976 11.1384 12.916 11.155 12.9351 11.1707C13.3714 11.6615 13.3543 12.4137 12.8839 12.8842C12.3957 13.3723 11.6043 13.3723 11.1161 12.8842C10.628 12.396 10.628 11.6045 11.1161 11.1164Z" fill="#001527"/>
</svg>
