<svg width="24" height="24" viewBox="0 0 24 24" fill="none" xmlns="http://www.w3.org/2000/svg">
<path fill-rule="evenodd" clip-rule="evenodd" d="M7.69703 7.69676C6.96435 7.70564 6.33248 7.74206 5.80151 7.84052C5.16658 7.95825 4.59977 8.17784 4.16419 8.61606C3.72912 9.05376 3.51165 9.62246 3.39498 10.2593C3.27953 10.8894 3.25 11.6616 3.25 12.5764V15.868C3.25 16.7828 3.27953 17.555 3.39498 18.1852C3.51165 18.822 3.72912 19.3907 4.16419 19.8284C4.59977 20.2666 5.16658 20.4862 5.80151 20.6039C6.42912 20.7203 7.19769 20.75 8.10709 20.75H11.3788C12.2886 20.75 13.0562 20.7202 13.6839 20.6053C14.3185 20.4891 14.8837 20.2734 15.3224 19.8451C15.7617 19.4164 15.9891 18.8579 16.1174 18.2297C16.2274 17.6916 16.2749 17.0489 16.2969 16.3024C17.0027 16.2922 17.6127 16.2553 18.1283 16.1609C18.763 16.0447 19.3281 15.8289 19.7668 15.4007C20.2061 14.972 20.4335 14.4134 20.5619 13.7853C20.6887 13.1649 20.7324 12.4055 20.7499 11.5082L20.75 11.5009V8.13199C20.75 7.21717 20.7205 6.445 20.605 5.81485C20.4884 5.17801 20.2709 4.60932 19.8358 4.17161C19.4002 3.73339 18.8334 3.51381 18.1985 3.39607C17.5709 3.27969 16.8023 3.25 15.8929 3.25H12.5515C11.6421 3.25 10.8736 3.27969 10.246 3.39607C9.61102 3.51381 9.04421 3.73339 8.60863 4.17161C8.17356 4.60932 7.95609 5.17801 7.83942 5.81485C7.74276 6.34247 7.70633 6.96965 7.69703 7.69676ZM9.19725 7.69444H11.4485C12.3579 7.69444 13.1264 7.72414 13.754 7.84052C14.389 7.95825 14.9558 8.17784 15.3914 8.61606C15.8264 9.05376 16.0439 9.62246 16.1606 10.2593C16.276 10.8894 16.3056 11.6616 16.3056 12.5764V14.802C16.9625 14.7917 17.4653 14.7573 17.8581 14.6854C18.3351 14.5981 18.5748 14.4681 18.7191 14.3272C18.8628 14.187 18.9965 13.9533 19.0922 13.4849C19.1893 13.0102 19.2326 12.3711 19.25 11.4862V8.13199C19.25 7.22593 19.2186 6.57117 19.1296 6.08515C19.0418 5.60583 18.9112 5.36913 18.772 5.22906C18.6332 5.0895 18.3995 4.95892 17.925 4.87093C17.4432 4.78159 16.7934 4.75 15.8929 4.75H12.5515C11.651 4.75 11.0013 4.78159 10.5194 4.87093C10.0449 4.95892 9.81121 5.0895 9.67249 5.22906C9.53326 5.36913 9.40268 5.60583 9.31486 6.08515C9.24085 6.48917 9.20668 7.00979 9.19725 7.69444ZM14.8056 15.9307V12.5764C14.8056 11.6704 14.7742 11.0156 14.6851 10.5296C14.5973 10.0503 14.4667 9.81358 14.3275 9.67351C14.1888 9.53395 13.9551 9.40336 13.4806 9.31538C12.9987 9.22603 12.349 9.19444 11.4485 9.19444H8.10709C7.20659 9.19444 6.55682 9.22603 6.07499 9.31538C5.60049 9.40336 5.36676 9.53395 5.22805 9.67351C5.08882 9.81358 4.95823 10.0503 4.87042 10.5296C4.78138 11.0156 4.75 11.6704 4.75 12.5764V15.868C4.75 16.7741 4.78138 17.4288 4.87042 17.9148C4.95823 18.3942 5.08882 18.6309 5.22805 18.7709C5.36676 18.9105 5.60049 19.0411 6.07499 19.1291C6.55682 19.2184 7.20659 19.25 8.10709 19.25H11.3788C12.279 19.25 12.9297 19.2185 13.4137 19.1299C13.8907 19.0425 14.1304 18.9125 14.2747 18.7717C14.4184 18.6314 14.5521 18.3977 14.6478 17.9294C14.7448 17.4546 14.7881 16.8155 14.8056 15.9307Z" fill="#001527"/>
</svg>
