<svg width="24" height="24" viewBox="0 0 24 24" fill="none" xmlns="http://www.w3.org/2000/svg">
<path d="M3.75 3V17C3.75 17.964 3.7516 18.6116 3.81654 19.0946C3.87858 19.5561 3.9858 19.7536 4.11612 19.8839C4.24644 20.0142 4.44393 20.1214 4.9054 20.1835C5.38843 20.2484 6.03599 20.25 7 20.25H21V21.75H6.94801C6.04953 21.75 5.30031 21.7501 4.70552 21.6701C4.07773 21.5857 3.51093 21.4 3.05546 20.9445C2.59999 20.4891 2.41432 19.9223 2.32991 19.2945C2.24995 18.6997 2.24997 17.9505 2.25 17.052L2.25 3H3.75Z" fill="#001527"/>
<path d="M19.3039 13.4476L15.6701 9.81381C14.9867 9.13039 13.8787 9.13039 13.1953 9.8138L11.0166 11.9925C10.919 12.0901 10.7607 12.0901 10.663 11.9925L6.88195 8.21137L5.82129 9.27203L9.60238 13.0531C10.2858 13.7365 11.3938 13.7365 12.0772 13.0531L14.2559 10.8745C14.3536 10.7768 14.5118 10.7768 14.6095 10.8745L18.2433 14.5083H15.2539V16.0083H19.0539C20.0204 16.0083 20.8039 15.2248 20.8039 14.2583V10.4583H19.3039V13.4476Z" fill="#001527"/>
</svg>
