<svg width="24" height="24" viewBox="0 0 24 24" fill="none" xmlns="http://www.w3.org/2000/svg">
<path fill-rule="evenodd" clip-rule="evenodd" d="M19.0768 2.78991C18.3934 2.10649 17.2854 2.10649 16.6019 2.78991L3.72954 15.6623C3.26324 16.1286 2.98003 16.7469 2.93153 17.4046L2.63086 21.4815L6.70775 21.1808C7.36541 21.1323 7.98374 20.8491 8.45003 20.3828L21.3224 7.5104C22.0058 6.82698 22.0058 5.71894 21.3224 5.03552L19.0768 2.78991ZM17.6626 3.85057C17.7602 3.75294 17.9185 3.75294 18.0161 3.85057L20.2618 6.09618C20.3594 6.19381 20.3594 6.35211 20.2618 6.44974L18.0051 8.70644L15.4059 6.10727L17.6626 3.85057ZM14.3452 7.16793L4.7902 16.723C4.57825 16.9349 4.44952 17.216 4.42747 17.5149L4.25469 19.8576L6.59743 19.6849C6.89636 19.6628 7.17742 19.5341 7.38937 19.3221L16.9444 9.7671L14.3452 7.16793Z" fill="#001527"/>
</svg>
