<svg width="24" height="24" viewBox="0 0 24 24" fill="none" xmlns="http://www.w3.org/2000/svg">
<path fill-rule="evenodd" clip-rule="evenodd" d="M15.0893 2.21778L8.98707 2.21777C8.0886 2.21775 7.33936 2.21772 6.74459 2.29769C6.11679 2.38209 5.54999 2.56776 5.09452 3.02323C4.63905 3.4787 4.45338 4.0455 4.36898 4.6733C4.28901 5.26807 4.28904 6.01728 4.28906 6.91574V17.0516C4.28904 17.9501 4.28901 18.6993 4.36898 19.2941C4.45338 19.9219 4.63905 20.4887 5.09452 20.9442C5.54999 21.3997 6.11679 21.5853 6.74459 21.6697C7.33937 21.7497 8.08859 21.7497 8.98707 21.7496H15.0129C15.9114 21.7497 16.6606 21.7497 17.2554 21.6697C17.8832 21.5853 18.45 21.3997 18.9055 20.9442C19.361 20.4887 19.5466 19.9219 19.631 19.2941C19.711 18.6993 19.711 17.9501 19.7109 17.0517L19.7109 6.72724L17.5784 4.60185L15.0893 2.21778ZM6.15518 4.08389C6.2855 3.95358 6.483 3.84635 6.94446 3.78431C7.42749 3.71937 8.07505 3.71778 9.03907 3.71778H13.5654V8.41992H18.2109V16.9996C18.2109 17.9636 18.2093 18.6112 18.1444 19.0942C18.0824 19.5557 17.9751 19.7532 17.8448 19.8835C17.7145 20.0138 17.517 20.1211 17.0555 20.1831C16.5725 20.248 15.925 20.2496 14.9609 20.2496H9.03907C8.07505 20.2496 7.42749 20.248 6.94446 20.1831C6.483 20.1211 6.2855 20.0138 6.15518 19.8835C6.02487 19.7532 5.91764 19.5557 5.8556 19.0942C5.79066 18.6112 5.78907 17.9636 5.78907 16.9996V6.96778C5.78907 6.00377 5.79066 5.35621 5.8556 4.87317C5.91764 4.41171 6.02487 4.21421 6.15518 4.08389ZM17.7794 6.91992L16.5301 5.67482L15.0654 4.27198V6.91992H17.7794Z" fill="#001527"/>
</svg>
