<svg width="24" height="24" viewBox="0 0 24 24" fill="none" xmlns="http://www.w3.org/2000/svg">
<path fill-rule="evenodd" clip-rule="evenodd" d="M5.75 2.25V5.25725C5.91043 5.26335 6.06046 5.27394 6.19721 5.29232C6.55269 5.34012 6.92842 5.45256 7.23744 5.76159C7.54647 6.07061 7.65891 6.44633 7.70671 6.80182C7.75011 7.12462 7.75006 7.52145 7.75001 7.95427V8.04377C7.75006 8.47658 7.75011 8.87342 7.70671 9.19623C7.65891 9.55171 7.54647 9.92744 7.23744 10.2365C6.92842 10.5455 6.55269 10.6579 6.19721 10.7057C5.8744 10.7491 5.47758 10.7491 5.04476 10.749H4.95526C4.52245 10.7491 4.12561 10.7491 3.8028 10.7057C3.44732 10.6579 3.07159 10.5455 2.76257 10.2365C2.45355 9.92744 2.3411 9.55171 2.29331 9.19623C2.24991 8.87342 2.24995 8.47659 2.25 8.04377V7.95427C2.24995 7.52146 2.24991 7.12463 2.29331 6.80182C2.3411 6.44633 2.45355 6.07061 2.76257 5.76159C3.07159 5.45256 3.44732 5.34012 3.8028 5.29232C3.93955 5.27394 4.08958 5.26335 4.25 5.25725V2.25H5.75ZM4.62362 6.75H5.37639C5.65386 6.75212 5.84684 6.75871 5.99734 6.77895C6.0939 6.79193 6.14226 6.80722 6.16404 6.81618C6.16909 6.81826 6.1724 6.81987 6.17434 6.82088L6.17677 6.82226L6.17815 6.82469C6.17916 6.82663 6.18077 6.82994 6.18285 6.83499C6.19181 6.85677 6.2071 6.90513 6.22008 7.00169C6.24841 7.21241 6.25001 7.50642 6.25001 7.99902C6.25001 8.49163 6.24841 8.78564 6.22008 8.99636C6.2071 9.09292 6.19181 9.14128 6.18285 9.16306C6.18077 9.1681 6.17916 9.17142 6.17815 9.17335L6.17677 9.17579L6.17434 9.17716C6.1724 9.17817 6.16909 9.17979 6.16404 9.18186C6.14226 9.19082 6.0939 9.20612 5.99734 9.2191C5.78662 9.24743 5.49261 9.24902 5.00001 9.24902C4.5074 9.24902 4.21339 9.24743 4.00267 9.2191C3.90611 9.20612 3.85775 9.19082 3.83597 9.18186C3.83093 9.17979 3.82761 9.17817 3.82568 9.17716L3.82324 9.17579L3.82187 9.17335C3.82086 9.17142 3.81924 9.1681 3.81717 9.16306C3.80821 9.14128 3.79291 9.09292 3.77993 8.99636C3.7516 8.78564 3.75001 8.49163 3.75001 7.99902C3.75001 7.50642 3.7516 7.21241 3.77993 7.00169C3.79291 6.90513 3.80821 6.85677 3.81717 6.83499C3.81924 6.82994 3.82086 6.82663 3.82187 6.82469L3.82324 6.82226L3.82568 6.82088C3.82761 6.81987 3.83093 6.81826 3.83597 6.81618C3.85775 6.80722 3.90611 6.79193 4.00267 6.77895C4.15317 6.75871 4.34615 6.75212 4.62362 6.75Z" fill="#001527"/>
<path d="M5.75 11.752V21.75H4.25V11.752H5.75Z" fill="#001527"/>
<path fill-rule="evenodd" clip-rule="evenodd" d="M12.75 13.2582V2.25H11.25V13.2582C11.0896 13.2643 10.9395 13.2749 10.8028 13.2933C10.4473 13.3411 10.0716 13.4535 9.76257 13.7626C9.45355 14.0716 9.3411 14.4473 9.29331 14.8028C9.24991 15.1256 9.24995 15.5224 9.25 15.9553V16.0447C9.24995 16.4776 9.24991 16.8744 9.29331 17.1972C9.3411 17.5527 9.45355 17.9284 9.76257 18.2374C10.0716 18.5465 10.4473 18.6589 10.8028 18.7067C11.1256 18.7501 11.5224 18.7501 11.9552 18.75H12.0448C12.4775 18.7501 12.8744 18.7501 13.1972 18.7067C13.5527 18.6589 13.9284 18.5465 14.2374 18.2374C14.5465 17.9284 14.6589 17.5527 14.7067 17.1972C14.7501 16.8744 14.7501 16.4776 14.75 16.0448V15.9553C14.7501 15.5225 14.7501 15.1256 14.7067 14.8028C14.6589 14.4473 14.5465 14.0716 14.2374 13.7626C13.9284 13.4535 13.5527 13.3411 13.1972 13.2933C13.0605 13.2749 12.9104 13.2643 12.75 13.2582ZM12.0201 14.75C12.5006 14.75 12.7895 14.752 12.9973 14.7799C13.0939 14.7929 13.1423 14.8082 13.164 14.8172C13.1691 14.8192 13.1724 14.8209 13.1743 14.8219L13.1768 14.8232L13.1781 14.8257C13.1781 14.8257 13.1794 14.8281 13.1802 14.8299C13.1802 14.8299 13.1819 14.8336 13.1828 14.836C13.1918 14.8577 13.2071 14.9061 13.2201 15.0027C13.2484 15.2134 13.25 15.5074 13.25 16C13.25 16.4926 13.2484 16.7866 13.2201 16.9973C13.2071 17.0939 13.1918 17.1423 13.1828 17.164C13.1808 17.1691 13.1792 17.1724 13.1781 17.1743L13.1768 17.1768L13.1743 17.1781C13.1724 17.1791 13.1691 17.1808 13.164 17.1828C13.1423 17.1918 13.0939 17.2071 12.9973 17.2201C12.7866 17.2484 12.4926 17.25 12 17.25C11.5074 17.25 11.2134 17.2484 11.0027 17.2201C10.9061 17.2071 10.8578 17.1918 10.836 17.1828C10.8309 17.1808 10.8276 17.1791 10.8257 17.1781L10.8232 17.1768L10.8219 17.1743C10.8209 17.1724 10.8192 17.1691 10.8172 17.164C10.8082 17.1423 10.7929 17.0939 10.7799 16.9973C10.7516 16.7866 10.75 16.4926 10.75 16C10.75 15.5074 10.7516 15.2134 10.7799 15.0027C10.7929 14.9061 10.8082 14.8577 10.8172 14.836C10.8192 14.8309 10.8209 14.8276 10.8219 14.8257L10.8232 14.8232L10.8257 14.8219C10.8257 14.8219 10.8283 14.8205 10.8303 14.8196C10.8303 14.8196 10.8338 14.8181 10.836 14.8172C10.8578 14.8082 10.9061 14.7929 11.0027 14.7799C11.2105 14.752 11.4994 14.75 11.98 14.75H12.0201Z" fill="#001527"/>
<path d="M12.75 19.9258V21.75H11.25V19.9258H12.75Z" fill="#001527"/>
<path fill-rule="evenodd" clip-rule="evenodd" d="M19.75 5.25741V2.25H18.25V5.25741C18.0896 5.2635 17.9395 5.27409 17.8028 5.29247C17.4473 5.34027 17.0716 5.45271 16.7626 5.76174C16.4535 6.07076 16.3411 6.44649 16.2933 6.80197C16.2499 7.12478 16.25 7.52161 16.25 7.95443V8.04392C16.25 8.47674 16.2499 8.87357 16.2933 9.19638C16.3411 9.55186 16.4535 9.92759 16.7626 10.2366C17.0716 10.5456 17.4473 10.6581 17.8028 10.7059C18.1256 10.7493 18.5224 10.7492 18.9553 10.7492H19.0448C19.4776 10.7492 19.8744 10.7493 20.1972 10.7059C20.5527 10.6581 20.9284 10.5456 21.2374 10.2366C21.5465 9.92759 21.6589 9.55186 21.7067 9.19638C21.7501 8.87359 21.7501 8.47678 21.75 8.04399V7.95443C21.7501 7.52164 21.7501 7.12476 21.7067 6.80197C21.6589 6.44649 21.5465 6.07076 21.2374 5.76174C20.9284 5.45271 20.5527 5.34027 20.1972 5.29247C20.0605 5.27409 19.9104 5.2635 19.75 5.25741ZM18.6449 6.75H19.3551C19.644 6.75194 19.843 6.75835 19.9973 6.7791C20.0939 6.79208 20.1423 6.80737 20.164 6.81633C20.1691 6.81841 20.1724 6.82003 20.1743 6.82104L20.1768 6.82241L20.1781 6.82485C20.1792 6.82678 20.1808 6.83009 20.1828 6.83514C20.1918 6.85692 20.2071 6.90528 20.2201 7.00184C20.2484 7.21256 20.25 7.50657 20.25 7.99918C20.25 8.49178 20.2484 8.78579 20.2201 8.99651C20.2071 9.09307 20.1918 9.14143 20.1828 9.16321C20.1808 9.16826 20.1792 9.17157 20.1781 9.1735L20.1768 9.17594L20.1743 9.17731C20.1724 9.17832 20.1691 9.17994 20.164 9.18202C20.1423 9.19098 20.0939 9.20627 19.9973 9.21925C19.7866 9.24758 19.4926 9.24918 19 9.24918C18.5074 9.24918 18.2134 9.24758 18.0027 9.21925C17.9061 9.20627 17.8578 9.19098 17.836 9.18202C17.8309 9.17994 17.8276 9.17832 17.8257 9.17731L17.8232 9.17594L17.8219 9.1735C17.8209 9.17157 17.8192 9.16826 17.8172 9.16321C17.8082 9.14143 17.7929 9.09307 17.7799 8.99651C17.7516 8.78579 17.75 8.49178 17.75 7.99918C17.75 7.50657 17.7516 7.21256 17.7799 7.00184C17.7929 6.90528 17.8082 6.85692 17.8172 6.83514C17.8192 6.83009 17.8209 6.82678 17.8219 6.82485L17.8232 6.82241L17.8257 6.82104C17.8276 6.82003 17.8309 6.81841 17.836 6.81633C17.8578 6.80737 17.9061 6.79208 18.0027 6.7791C18.157 6.75835 18.356 6.75194 18.6449 6.75Z" fill="#001527"/>
<path d="M19.75 11.958V21.75H18.25V11.958H19.75Z" fill="#001527"/>
</svg>
