<svg width="24" height="24" viewBox="0 0 24 24" fill="none" xmlns="http://www.w3.org/2000/svg">
<path fill-rule="evenodd" clip-rule="evenodd" d="M16.0073 2.03125H7.99314C7.09468 2.03122 6.34544 2.0312 5.75066 2.11116C5.12287 2.19557 4.55607 2.38124 4.1006 2.83671C3.64513 3.29218 3.45946 3.85898 3.37505 4.48677C3.29509 5.08155 3.29511 5.83077 3.29514 6.72925L3.29503 7.90715C3.29407 8.75238 3.2933 9.42223 3.59083 10.0109C3.88836 10.5995 4.42816 10.9962 5.1093 11.4966L7.52275 13.274C7.73291 13.4288 7.85099 13.5166 7.93343 13.5895C7.97028 13.6221 7.98848 13.6419 7.99718 13.6524C8.00129 13.6573 8.00382 13.661 8.00382 13.661L8.00459 13.6623L8.00515 13.6637C8.00515 13.6637 8.00665 13.6679 8.0082 13.6742C8.01149 13.6874 8.01663 13.7138 8.021 13.7628C8.03078 13.8723 8.03147 14.0195 8.03147 14.2805V22.3991L16.1252 18.6016V14.2604C16.1252 14.0044 16.1259 13.8602 16.1353 13.7527C16.1395 13.7047 16.1445 13.6788 16.1477 13.6658C16.1485 13.6624 16.1497 13.6583 16.1497 13.6583L16.1506 13.6554L16.1512 13.654L16.1519 13.6528C16.1519 13.6528 16.1544 13.649 16.1584 13.6441C16.1668 13.6337 16.1844 13.6141 16.2201 13.5816C16.2999 13.509 16.4142 13.4211 16.6178 13.266L18.9485 11.4909C19.6088 10.9892 20.132 10.5917 20.4195 10.0112C20.7071 9.43073 20.7063 8.77367 20.7054 7.94446L20.7053 6.72926C20.7053 5.83078 20.7054 5.08156 20.6254 4.48677C20.541 3.85898 20.3553 3.29218 19.8998 2.83671C19.4444 2.38124 18.8776 2.19557 18.2498 2.11116C17.655 2.0312 16.9058 2.03122 16.0073 2.03125ZM5.16126 3.89737C5.29157 3.76705 5.48907 3.65983 5.95053 3.59779C6.43357 3.53285 7.08113 3.53125 8.04514 3.53125H15.9553C16.9193 3.53125 17.5669 3.53285 18.0499 3.59779C18.5114 3.65983 18.7089 3.76705 18.8392 3.89737C18.9695 4.02769 19.0767 4.22518 19.1388 4.68665C19.2037 5.16968 19.2053 5.81724 19.2053 6.78125V7.79974C19.2053 8.13963 19.2034 8.39798 19.1969 8.59961H4.80461C4.7973 8.39059 4.79514 8.12003 4.79514 7.75949V6.78125C4.79514 5.81724 4.79673 5.16968 4.86168 4.68665C4.92372 4.22518 5.03094 4.02769 5.16126 3.89737ZM5.74523 10.0996C5.8537 10.1812 5.97709 10.2727 6.1178 10.3763L8.4123 12.0663L8.49094 12.1239C8.80846 12.3561 9.15209 12.6073 9.3433 12.9857C9.53451 13.364 9.53305 13.7896 9.53169 14.183L9.53147 14.2805V20.0384L14.6252 17.6484V14.2604L14.625 14.1648C14.6237 13.7788 14.6223 13.3612 14.8071 12.9882C14.9919 12.6151 15.3249 12.3632 15.6328 12.1304L15.709 12.0727L17.9245 10.3852C18.0655 10.2778 18.1886 10.1834 18.2963 10.0996H5.74523Z" fill="#001527"/>
</svg>
