<svg width="24" height="24" viewBox="0 0 24 24" fill="none" xmlns="http://www.w3.org/2000/svg">
<path d="M11.8358 1.4502C8.2721 1.4502 5.08036 3.02172 2.89987 5.49862L2.4043 6.06156L3.53018 7.05271L4.02576 6.48977C5.93527 4.32067 8.72353 2.9502 11.8358 2.9502C14.9481 2.9502 17.7364 4.32067 19.6459 6.48977L20.1414 7.05271L21.2673 6.06156L20.7718 5.49862C18.5913 3.02172 15.3995 1.4502 11.8358 1.4502Z" fill="#001527"/>
<path d="M2.0918 14.2002C2.0918 8.81525 6.45531 4.4502 11.8378 4.4502C17.2203 4.4502 21.5838 8.81525 21.5838 14.2002C21.5838 16.2712 19.9052 17.9502 17.8348 17.9502C15.7644 17.9502 14.0858 16.2712 14.0858 14.2002C14.0858 12.9572 13.0784 11.9502 11.8368 11.9502C10.5952 11.9502 9.5878 12.9572 9.5878 14.2002C9.5878 17.1554 11.1419 19.7479 13.4797 21.2058L14.1161 21.6027L13.3223 22.8755L12.6859 22.4786C9.92768 20.7585 8.0878 17.6949 8.0878 14.2002C8.0878 12.1291 9.76642 10.4502 11.8368 10.4502C13.9072 10.4502 15.5858 12.1291 15.5858 14.2002C15.5858 15.4431 16.5932 16.4502 17.8348 16.4502C19.0764 16.4502 20.0838 15.4431 20.0838 14.2002C20.0838 9.64314 16.3913 5.9502 11.8378 5.9502C7.28428 5.9502 3.5918 9.64314 3.5918 14.2002C3.5918 15.252 3.70949 16.2772 3.9264 17.2666L4.08701 17.9992L2.6218 18.3204L2.4612 17.5878C2.22211 16.4972 2.0918 15.3644 2.0918 14.2002Z" fill="#001527"/>
<path d="M6.58789 14.2002C6.58789 11.3001 8.93743 8.9502 11.8349 8.9502C14.7324 8.9502 17.0819 11.3001 17.0819 14.2002V14.9502H18.5819V14.2002C18.5819 10.4723 15.5614 7.4502 11.8349 7.4502C8.10835 7.4502 5.08789 10.4723 5.08789 14.2002C5.08789 16.9187 5.9415 19.438 7.39167 21.5076L7.82207 22.1218L9.0505 21.261L8.62011 20.6468C7.34028 18.8204 6.58789 16.5997 6.58789 14.2002Z" fill="#001527"/>
<path d="M12.5869 14.2002V13.4502H11.0869V14.2002C11.0869 17.9281 14.1074 20.9502 17.8339 20.9502C17.9392 20.9502 18.0578 20.9423 18.1385 20.9369L18.1712 20.9347L18.1985 20.933L18.9474 20.8914L18.8642 19.3937L18.1153 19.4354C18.0633 19.4382 18.023 19.441 17.9891 19.4432L17.988 19.4433C17.9273 19.4474 17.8861 19.4502 17.8339 19.4502C14.9365 19.4502 12.5869 17.1003 12.5869 14.2002Z" fill="#001527"/>
</svg>
