<svg width="24" height="24" viewBox="0 0 24 24" fill="none" xmlns="http://www.w3.org/2000/svg">
<path d="M8.24902 12.03C8.24902 12.4442 7.91324 12.78 7.49902 12.78C7.08481 12.78 6.74902 12.4442 6.74902 12.03C6.74902 11.6158 7.08481 11.28 7.49902 11.28C7.91324 11.28 8.24902 11.6158 8.24902 12.03Z" fill="#001527"/>
<path d="M7.49902 17.2803C7.91324 17.2803 8.24902 16.9445 8.24902 16.5303C8.24902 16.1161 7.91324 15.7803 7.49902 15.7803C7.08481 15.7803 6.74902 16.1161 6.74902 16.5303C6.74902 16.9445 7.08481 17.2803 7.49902 17.2803Z" fill="#001527"/>
<path d="M12.7402 12.03C12.7402 12.4442 12.4044 12.78 11.9902 12.78C11.576 12.78 11.2402 12.4442 11.2402 12.03C11.2402 11.6158 11.576 11.28 11.9902 11.28C12.4044 11.28 12.7402 11.6158 12.7402 12.03Z" fill="#001527"/>
<path d="M16.4902 12.78C16.9044 12.78 17.2402 12.4442 17.2402 12.03C17.2402 11.6158 16.9044 11.28 16.4902 11.28C16.076 11.28 15.7402 11.6158 15.7402 12.03C15.7402 12.4442 16.076 12.78 16.4902 12.78Z" fill="#001527"/>
<path d="M12.7402 16.5303C12.7402 16.9445 12.4044 17.2803 11.9902 17.2803C11.576 17.2803 11.2402 16.9445 11.2402 16.5303C11.2402 16.1161 11.576 15.7803 11.9902 15.7803C12.4044 15.7803 12.7402 16.1161 12.7402 16.5303Z" fill="#001527"/>
<path d="M16.4902 17.2803C16.9044 17.2803 17.2402 16.9445 17.2402 16.5303C17.2402 16.1161 16.9044 15.7803 16.4902 15.7803C16.076 15.7803 15.7402 16.1161 15.7402 16.5303C15.7402 16.9445 16.076 17.2803 16.4902 17.2803Z" fill="#001527"/>
<path d="M8.24902 7.52502C8.24902 7.93924 7.91324 8.27502 7.49902 8.27502C7.08481 8.27502 6.74902 7.93924 6.74902 7.52502C6.74902 7.11081 7.08481 6.77502 7.49902 6.77502C7.91324 6.77502 8.24902 7.11081 8.24902 7.52502Z" fill="#001527"/>
<path d="M11.9902 8.27502C12.4044 8.27502 12.7402 7.93924 12.7402 7.52502C12.7402 7.11081 12.4044 6.77502 11.9902 6.77502C11.576 6.77502 11.2402 7.11081 11.2402 7.52502C11.2402 7.93924 11.576 8.27502 11.9902 8.27502Z" fill="#001527"/>
<path d="M17.2402 7.52502C17.2402 7.93924 16.9044 8.27502 16.4902 8.27502C16.076 8.27502 15.7402 7.93924 15.7402 7.52502C15.7402 7.11081 16.076 6.77502 16.4902 6.77502C16.9044 6.77502 17.2402 7.11081 17.2402 7.52502Z" fill="#001527"/>
<path fill-rule="evenodd" clip-rule="evenodd" d="M12.0462 2.25H11.9557C10.1192 2.24999 8.67959 2.24999 7.53745 2.37373C6.37192 2.50001 5.42754 2.76232 4.62121 3.34815C4.13307 3.70281 3.70379 4.13209 3.34913 4.62024C2.7633 5.42656 2.50098 6.37094 2.3747 7.53648C2.25096 8.67861 2.25097 10.1182 2.25098 11.9547V12.0452C2.25097 13.8818 2.25096 15.3214 2.3747 16.4635C2.50098 17.6291 2.7633 18.5734 3.34913 19.3798C3.70379 19.8679 4.13307 20.2972 4.62121 20.6518C5.42754 21.2377 6.37192 21.5 7.53745 21.6263C8.67957 21.75 10.1191 21.75 11.9556 21.75H12.0462C13.8827 21.75 15.3224 21.75 16.4645 21.6263C17.63 21.5 18.5744 21.2377 19.3807 20.6518C19.8689 20.2972 20.2982 19.8679 20.6528 19.3798C21.2387 18.5734 21.501 17.6291 21.6272 16.4635C21.751 15.3214 21.751 13.8818 21.751 12.0453V11.9547C21.751 10.1182 21.751 8.67859 21.6272 7.53648C21.501 6.37094 21.2387 5.42656 20.6528 4.62024C20.2982 4.13209 19.8689 3.70281 19.3807 3.34815C18.5744 2.76232 17.63 2.50001 16.4645 2.37373C15.3224 2.24999 13.8828 2.24999 12.0462 2.25ZM5.50289 4.56168C6.01089 4.19259 6.66111 3.97745 7.69902 3.865C8.75097 3.75103 10.1094 3.75 12.001 3.75C13.8925 3.75 15.251 3.75103 16.3029 3.865C17.3408 3.97745 17.9911 4.19259 18.4991 4.56168C18.8599 4.82382 19.1772 5.14111 19.4393 5.50191C19.8084 6.00992 20.0235 6.66013 20.136 7.69805C20.2499 8.74999 20.251 10.1084 20.251 12C20.251 13.8916 20.2499 15.25 20.136 16.302C20.0235 17.3399 19.8084 17.9901 19.4393 18.4981C19.1772 18.8589 18.8599 19.1762 18.4991 19.4383C17.9911 19.8074 17.3408 20.0225 16.3029 20.135C15.251 20.249 13.8925 20.25 12.001 20.25C10.1094 20.25 8.75097 20.249 7.69902 20.135C6.66111 20.0225 6.01089 19.8074 5.50289 19.4383C5.14209 19.1762 4.82479 18.8589 4.56265 18.4981C4.19357 17.9901 3.97843 17.3399 3.86598 16.302C3.75201 15.25 3.75098 13.8916 3.75098 12C3.75098 10.1084 3.75201 8.74999 3.86598 7.69805C3.97843 6.66013 4.19357 6.00992 4.56265 5.50191C4.82479 5.14111 5.14209 4.82382 5.50289 4.56168Z" fill="#001527"/>
</svg>
