<svg width="24" height="24" viewBox="0 0 24 24" fill="none" xmlns="http://www.w3.org/2000/svg">
<path fill-rule="evenodd" clip-rule="evenodd" d="M13.3217 4.84739C15.3683 2.80087 18.6928 2.80087 20.7393 4.84739C22.7858 6.89391 22.7858 10.2184 20.7393 12.2649L12.0407 20.9635L12.0177 20.9404L11.96 20.9981L3.26145 12.2996C1.21493 10.253 1.21493 6.92852 3.26145 4.882C5.30797 2.83548 8.63249 2.83548 10.679 4.882L11.9928 6.19584L12.4415 5.74419L12.4447 5.74096L13.3217 4.84739ZM12.0408 18.8422L12.0177 18.8191L11.96 18.8768L4.32211 11.2389C2.86138 9.77816 2.86138 7.40339 4.32211 5.94266C5.78285 4.48193 8.15762 4.48193 9.61835 5.94266L11.9964 8.32067L13.5089 6.7981L14.3848 5.90568C15.8457 4.44732 18.2187 4.44811 19.6786 5.90805C21.1394 7.36878 21.1394 9.74355 19.6786 11.2043L12.0408 18.8422Z" fill="#001527"/>
</svg>
