<svg width="24" height="24" viewBox="0 0 24 24" fill="none" xmlns="http://www.w3.org/2000/svg">
<path fill-rule="evenodd" clip-rule="evenodd" d="M11.9935 2.39551L12.9674 3.15794L20.2335 8.62377C20.2424 8.63066 20.2519 8.63802 20.2621 8.64577C20.4565 8.79439 20.8622 9.10445 20.9673 9.69264L20.979 9.75807V21.6046H13.6903V16.6045C13.6903 16.6017 13.6901 16.5983 13.6901 16.5983C13.6886 16.5966 13.686 16.594 13.682 16.5907C13.671 16.5818 13.6517 16.5697 13.6232 16.56C13.5947 16.5503 13.5632 16.5449 13.5323 16.5449H10.3542C10.3024 16.5449 10.2689 16.554 10.2492 16.5618C10.2292 16.5697 10.2173 16.5788 10.2103 16.5856C10.1988 16.5967 10.1962 16.6066 10.1962 16.6066V21.6046H3.021V9.82454C3.021 9.33318 3.20731 8.91753 3.4989 8.65757L3.52428 8.63494L10.9356 3.14565L11.9935 2.39551ZM11.8159 4.36027L4.52669 9.75912C4.52376 9.77361 4.521 9.79508 4.521 9.82454V20.1046H8.69617V16.6045C8.69617 15.766 9.39225 15.0449 10.3542 15.0449H13.5323C14.2519 15.0449 15.1903 15.5499 15.1903 16.6045V20.1046H19.479V9.94534C19.47 9.93614 19.4567 9.92348 19.4367 9.90641C19.4061 9.88032 19.3719 9.85376 19.3203 9.81389L12.0541 4.34797L11.9491 4.26578L11.8159 4.36027Z" fill="#001527"/>
</svg>
