<svg width="24" height="24" viewBox="0 0 24 24" fill="none" xmlns="http://www.w3.org/2000/svg">
<path fill-rule="evenodd" clip-rule="evenodd" d="M19.25 5.0918H18.1963V5.80859L18.1885 6.12598C18.026 9.33499 15.4221 11.898 12.1973 11.999C15.4219 12.1004 18.0261 14.6642 18.1885 17.873L18.1963 18.1914V18.9072H19.25V20.4072H4.75V18.9072H5.80273V18.1914L5.81055 17.873C5.97297 14.6643 8.57637 12.1006 11.8008 11.999C8.57664 11.8972 5.97295 9.33447 5.81055 6.12598L5.80273 5.80762V5.0918H4.75V3.5918H19.25V5.0918ZM11.999 13.4951C9.40533 13.4953 7.30278 15.5977 7.30273 18.1914V18.9043H16.6963V18.1914C16.6962 15.5976 14.5929 13.4951 11.999 13.4951ZM7.30273 5.80762C7.30278 8.40147 9.40613 10.5039 12 10.5039C14.5937 10.5037 16.6962 8.40135 16.6963 5.80762V5.09473H7.30273V5.80762Z" fill="#001527"/>
</svg>
