<svg width="24" height="24" viewBox="0 0 24 24" fill="none" xmlns="http://www.w3.org/2000/svg">
<path d="M3.75 3V17C3.75 17.964 3.7516 18.6116 3.81654 19.0946C3.87858 19.5561 3.9858 19.7536 4.11612 19.8839C4.24644 20.0142 4.44393 20.1214 4.9054 20.1835C5.38843 20.2484 6.03599 20.25 7 20.25H21V21.75H6.94801C6.04953 21.75 5.30031 21.7501 4.70552 21.6701C4.07773 21.5857 3.51093 21.4 3.05546 20.9445C2.59999 20.4891 2.41432 19.9223 2.32991 19.2945C2.24995 18.6997 2.24997 17.9505 2.25 17.052L2.25 3H3.75Z" fill="#001527"/>
<path d="M19.3039 10.5524L15.6701 14.1862C14.9867 14.8696 13.8787 14.8696 13.1953 14.1862L11.0166 12.0075C10.919 11.9099 10.7607 11.9099 10.663 12.0075L6.88195 15.7886L5.82129 14.728L9.60238 10.9469C10.2858 10.2635 11.3938 10.2635 12.0772 10.9469L14.2559 13.1255C14.3536 13.2232 14.5118 13.2232 14.6095 13.1255L18.2433 9.49171H15.2539V7.99171H19.0539C20.0204 7.99171 20.8039 8.77522 20.8039 9.74171V13.5417H19.3039V10.5524Z" fill="#001527"/>
</svg>
