<svg width="24" height="24" viewBox="0 0 24 24" fill="none" xmlns="http://www.w3.org/2000/svg">
<path d="M12.7969 8.64526C12.7969 8.20516 12.4401 7.84839 12 7.84839C11.5599 7.84839 11.2031 8.20516 11.2031 8.64526C11.2031 9.08537 11.5599 9.44214 12 9.44214C12.4401 9.44214 12.7969 9.08537 12.7969 8.64526Z" fill="#001527"/>
<path d="M12.75 16.9016V10.907H11.25V16.9016H12.75Z" fill="#001527"/>
<path fill-rule="evenodd" clip-rule="evenodd" d="M2.25 12C2.25 6.61479 6.61479 2.25 12 2.25C17.3852 2.25 21.75 6.61479 21.75 12C21.75 17.3852 17.3852 21.75 12 21.75C6.61479 21.75 2.25 17.3852 2.25 12ZM3.75 12C3.75 16.5568 7.44321 20.25 12 20.25C16.5568 20.25 20.25 16.5568 20.25 12C20.25 7.44321 16.5568 3.75 12 3.75C7.44321 3.75 3.75 7.44321 3.75 12Z" fill="#001527"/>
</svg>
