<svg width="24" height="24" viewBox="0 0 24 24" fill="none" xmlns="http://www.w3.org/2000/svg">
<path d="M7.09064 11.3025C7.60938 11.3025 8.02991 10.882 8.02991 10.3633C8.02991 9.84451 7.60938 9.42399 7.09064 9.42399C6.57189 9.42399 6.15137 9.84451 6.15137 10.3633C6.15137 10.882 6.57189 11.3025 7.09064 11.3025Z" fill="#001527"/>
<path d="M11.3024 10.3633C11.3024 10.882 10.8818 11.3025 10.3631 11.3025C9.84435 11.3025 9.42383 10.882 9.42383 10.3633C9.42383 9.84451 9.84435 9.42399 10.3631 9.42399C10.8818 9.42399 11.3024 9.84451 11.3024 10.3633Z" fill="#001527"/>
<path d="M13.6356 11.3025C14.1543 11.3025 14.5748 10.882 14.5748 10.3633C14.5748 9.84451 14.1543 9.42399 13.6356 9.42399C13.1168 9.42399 12.6963 9.84451 12.6963 10.3633C12.6963 10.882 13.1168 11.3025 13.6356 11.3025Z" fill="#001527"/>
<path d="M17.8473 10.3633C17.8473 10.882 17.4268 11.3025 16.908 11.3025C16.3893 11.3025 15.9688 10.882 15.9688 10.3633C15.9688 9.84451 16.3893 9.42399 16.908 9.42399C17.4268 9.42399 17.8473 9.84451 17.8473 10.3633Z" fill="#001527"/>
<path d="M16.908 14.5756C17.4268 14.5756 17.8473 14.1551 17.8473 13.6363C17.8473 13.1176 17.4268 12.6971 16.908 12.6971C16.3893 12.6971 15.9688 13.1176 15.9688 13.6363C15.9688 14.1551 16.3893 14.5756 16.908 14.5756Z" fill="#001527"/>
<path d="M8.03186 13.6363C8.03186 14.1551 7.61134 14.5756 7.09259 14.5756C6.57385 14.5756 6.15332 14.1551 6.15332 13.6363C6.15332 13.1176 6.57385 12.6971 7.09259 12.6971C7.61134 12.6971 8.03186 13.1176 8.03186 13.6363Z" fill="#001527"/>
<path d="M9.42383 14.3863H14.5752V12.8863H9.42383V14.3863Z" fill="#001527"/>
<path fill-rule="evenodd" clip-rule="evenodd" d="M16.303 5.18555H7.64429C6.74583 5.18552 5.99659 5.1855 5.40181 5.26546C4.77402 5.34987 4.20722 5.53554 3.75175 5.99101C3.29628 6.44648 3.11061 7.01328 3.0262 7.64107C2.94624 8.23585 2.94626 8.98505 2.94629 9.88352V14.0525C2.94626 14.951 2.94624 15.7002 3.0262 16.295C3.11061 16.9228 3.29628 17.4896 3.75175 17.945C4.20722 18.4005 4.77402 18.5862 5.40181 18.6706C5.99659 18.7505 6.7458 18.7505 7.64427 18.7505H16.303C17.2014 18.7505 17.9507 18.7505 18.5455 18.6706C19.1733 18.5862 19.7401 18.4005 20.1955 17.945C20.651 17.4896 20.8367 16.9228 20.9211 16.295C21.001 15.7002 21.001 14.951 21.001 14.0525V9.88355C21.001 8.98507 21.001 8.23585 20.9211 7.64107C20.8367 7.01328 20.651 6.44648 20.1955 5.99101C19.7401 5.53554 19.1733 5.34987 18.5455 5.26546C17.9507 5.1855 17.2014 5.18552 16.303 5.18555ZM4.81241 7.05167C4.94273 6.92135 5.14022 6.81413 5.60168 6.75209C6.08472 6.68714 6.73228 6.68555 7.69629 6.68555H16.251C17.215 6.68555 17.8626 6.68714 18.3456 6.75209C18.807 6.81413 19.0045 6.92135 19.1349 7.05167C19.2652 7.18198 19.3724 7.37948 19.4344 7.84094C19.4994 8.32398 19.501 8.97154 19.501 9.93555V14.0005C19.501 14.9645 19.4994 15.6121 19.4344 16.0951C19.3724 16.5566 19.2652 16.7541 19.1349 16.8844C19.0045 17.0147 18.807 17.1219 18.3456 17.184C17.8626 17.2489 17.215 17.2505 16.251 17.2505H7.69629C6.73228 17.2505 6.08472 17.2489 5.60168 17.184C5.14022 17.1219 4.94273 17.0147 4.81241 16.8844C4.68209 16.7541 4.57487 16.5566 4.51283 16.0951C4.44789 15.6121 4.44629 14.9645 4.44629 14.0005V9.93555C4.44629 8.97154 4.44789 8.32398 4.51283 7.84094C4.57487 7.37948 4.68209 7.18198 4.81241 7.05167Z" fill="#001527"/>
</svg>
