<svg width="24" height="24" viewBox="0 0 24 24" fill="none" xmlns="http://www.w3.org/2000/svg">
<path d="M6.24609 2.24609H17.7503V3.74609H6.24609V2.24609Z" fill="#001527"/>
<path d="M4.24623 5.24734H19.7521V6.74734H4.24623V5.24734Z" fill="#001527"/>
<path fill-rule="evenodd" clip-rule="evenodd" d="M17.0556 8.2486H6.9441C6.04563 8.24857 5.29639 8.24854 4.70162 8.32851C4.07382 8.41291 3.50702 8.59858 3.05155 9.05405C2.59608 9.50952 2.41041 10.0763 2.32601 10.7041C2.24604 11.2989 2.24607 12.0481 2.24609 12.9466V17.0556C2.24607 17.9541 2.24604 18.7033 2.32601 19.2981C2.41041 19.9259 2.59608 20.4927 3.05155 20.9481C3.50702 21.4036 4.07382 21.5893 4.70162 21.6737C5.29637 21.7537 6.04554 21.7536 6.94395 21.7536H17.0556C17.954 21.7536 18.7033 21.7537 19.2981 21.6737C19.9259 21.5893 20.4927 21.4036 20.9481 20.9481C21.4036 20.4927 21.5893 19.9259 21.6737 19.2981C21.7537 18.7033 21.7536 17.9541 21.7536 17.0556V12.9466C21.7536 12.0481 21.7537 11.2989 21.6737 10.7041C21.5893 10.0763 21.4036 9.50952 20.9481 9.05405C20.4927 8.59859 19.9259 8.41291 19.2981 8.32851C18.7033 8.24854 17.9541 8.24857 17.0556 8.2486ZM4.11221 10.1147C4.24253 9.9844 4.44003 9.87718 4.90149 9.81513C5.38453 9.75019 6.03209 9.7486 6.9961 9.7486H17.0036C17.9676 9.7486 18.6152 9.75019 19.0982 9.81513C19.5597 9.87718 19.7572 9.9844 19.8875 10.1147C20.0178 10.245 20.125 10.4425 20.1871 10.904C20.252 11.387 20.2536 12.0346 20.2536 12.9986V17.0036C20.2536 17.9676 20.252 18.6152 20.1871 19.0982C20.125 19.5597 20.0178 19.7572 19.8875 19.8875C19.7572 20.0178 19.5597 20.125 19.0982 20.1871C18.6152 20.252 17.9676 20.2536 17.0036 20.2536H6.9961C6.03208 20.2536 5.38452 20.252 4.90149 20.1871C4.44003 20.125 4.24253 20.0178 4.11221 19.8875C3.9819 19.7572 3.87467 19.5597 3.81263 19.0982C3.74769 18.6152 3.7461 17.9676 3.7461 17.0036V12.9986C3.7461 12.0346 3.74769 11.387 3.81263 10.904C3.87467 10.4425 3.9819 10.245 4.11221 10.1147Z" fill="#001527"/>
</svg>
