<svg width="24" height="24" viewBox="0 0 24 24" fill="none" xmlns="http://www.w3.org/2000/svg">
<path d="M20.3084 3.69176C18.2974 1.68079 15.0366 1.68101 13.0249 3.69161L10.1614 6.55509L11.222 7.61575L14.0854 4.75242C15.5116 3.32723 17.8226 3.32745 19.2476 4.75227C20.673 6.1785 20.6727 8.48974 19.2477 9.91476L16.3844 12.7781L17.445 13.8388L20.3084 10.9754C22.3193 8.96445 22.319 5.70354 20.3084 3.69176Z" fill="#001527"/>
<path d="M8.88982 16.1708L16.1705 8.89014L15.1098 7.82948L7.82915 15.1101L8.88982 16.1708Z" fill="#001527"/>
<path d="M4.75235 14.0855L7.61568 11.2222L6.55502 10.1615L3.69169 13.0248C1.68071 15.0358 1.68108 18.2967 3.69169 20.3085C5.70266 22.3195 8.96357 22.3191 10.9753 20.3085L13.8387 17.4452L12.778 16.3845L9.91469 19.2478C8.4885 20.673 6.17748 20.6728 4.7525 19.248C3.3271 17.8218 3.32733 15.5105 4.75235 14.0855Z" fill="#001527"/>
</svg>
