<svg width="24" height="24" viewBox="0 0 24 24" fill="none" xmlns="http://www.w3.org/2000/svg">
<path d="M4.29199 6.76562C4.71376 6.76562 5.05566 6.42372 5.05566 6.00195C5.05566 5.58019 4.71376 5.23828 4.29199 5.23828C3.87023 5.23828 3.52832 5.58019 3.52832 6.00195C3.52832 6.42372 3.87023 6.76562 4.29199 6.76562Z" fill="#001527"/>
<path d="M7.51013 6.74951H20.9945V5.24951H7.51013V6.74951Z" fill="#001527"/>
<path d="M7.51013 12.7495H20.9945V11.2495H7.51013V12.7495Z" fill="#001527"/>
<path d="M20.9945 18.7495H7.51013V17.2495H20.9945V18.7495Z" fill="#001527"/>
<path d="M5.05566 11.9995C5.05566 12.4213 4.71376 12.7632 4.29199 12.7632C3.87023 12.7632 3.52832 12.4213 3.52832 11.9995C3.52832 11.5777 3.87023 11.2358 4.29199 11.2358C4.71376 11.2358 5.05566 11.5777 5.05566 11.9995Z" fill="#001527"/>
<path d="M4.29199 18.7632C4.71376 18.7632 5.05566 18.4213 5.05566 17.9995C5.05566 17.5777 4.71376 17.2358 4.29199 17.2358C3.87023 17.2358 3.52832 17.5777 3.52832 17.9995C3.52832 18.4213 3.87023 18.7632 4.29199 18.7632Z" fill="#001527"/>
</svg>
