<svg width="24" height="24" viewBox="0 0 24 24" fill="none" xmlns="http://www.w3.org/2000/svg">
<path d="M11.5236 21.7726C11.5236 21.7726 11.5239 21.7729 12 21.1934L12.4761 21.7729C12.1994 22.0002 11.8003 21.9999 11.5236 21.7726Z" fill="#001527"/>
<path fill-rule="evenodd" clip-rule="evenodd" d="M12 6.44336C9.92879 6.44336 8.25 8.12215 8.25 10.1934C8.25 12.2646 9.92879 13.9434 12 13.9434C14.0712 13.9434 15.75 12.2646 15.75 10.1934C15.75 8.12215 14.0712 6.44336 12 6.44336ZM9.75 10.1934C9.75 8.95057 10.7572 7.94336 12 7.94336C13.2428 7.94336 14.25 8.95057 14.25 10.1934C14.25 11.4361 13.2428 12.4434 12 12.4434C10.7572 12.4434 9.75 11.4361 9.75 10.1934Z" fill="#001527"/>
<path fill-rule="evenodd" clip-rule="evenodd" d="M11.5236 21.7726L12 21.1934C12.4761 21.7729 12.4769 21.7722 12.4769 21.7722L12.4783 21.771L12.4832 21.767L12.5003 21.7528C12.5149 21.7406 12.536 21.7229 12.5632 21.7C12.6174 21.6541 12.6957 21.5871 12.7947 21.5005C12.9925 21.3273 13.2733 21.0756 13.6093 20.7576C14.2804 20.1225 15.1769 19.2182 16.0755 18.1431C17.8371 16.0354 19.75 13.105 19.75 10.1934C19.75 5.91315 16.2802 2.44336 12 2.44336C7.71979 2.44336 4.25 5.91315 4.25 10.1934C4.25 13.105 6.16287 16.0354 7.92454 18.1431C8.82313 19.2182 9.71961 20.1225 10.3907 20.7576C10.7267 21.0756 11.0075 21.3273 11.2053 21.5005C11.3043 21.5871 11.3826 21.6541 11.4368 21.7C11.464 21.7229 11.4851 21.7406 11.4997 21.7528L11.5168 21.767L11.5217 21.771L11.5236 21.7726ZM5.75 10.1934C5.75 6.74157 8.54821 3.94336 12 3.94336C15.4518 3.94336 18.25 6.74157 18.25 10.1934C18.25 12.5317 16.6629 15.1013 14.9245 17.1811C14.0731 18.1998 13.2196 19.0611 12.5782 19.6682C12.3566 19.8779 12.1608 20.0568 12 20.2007C11.8392 20.0568 11.6434 19.8779 11.4218 19.6682C10.7804 19.0611 9.92687 18.1998 9.07546 17.1811C7.33713 15.1013 5.75 12.5317 5.75 10.1934Z" fill="#001527"/>
</svg>
