<svg width="24" height="24" viewBox="0 0 24 24" fill="none" xmlns="http://www.w3.org/2000/svg">
<path fill-rule="evenodd" clip-rule="evenodd" d="M7.25 9.28846V7C7.25 4.37679 9.37679 2.25 12 2.25C14.6232 2.25 16.75 4.37679 16.75 7V9.28845C16.9439 9.3001 17.1254 9.31636 17.2945 9.33909C17.9223 9.4235 18.4891 9.60917 18.9445 10.0646C19.4 10.5201 19.5857 11.0869 19.6701 11.7147C19.7501 12.3095 19.75 13.0587 19.75 13.9572V17.0283C19.75 17.9267 19.7501 18.676 19.6701 19.2708C19.5857 19.8986 19.4 20.4654 18.9445 20.9208C18.4891 21.3763 17.9223 21.562 17.2945 21.6464C16.6997 21.7263 15.9505 21.7263 15.052 21.7263H8.94801C8.04954 21.7263 7.3003 21.7263 6.70552 21.6464C6.07773 21.562 5.51093 21.3763 5.05546 20.9208C4.59999 20.4654 4.41432 19.8986 4.32991 19.2708C4.24995 18.676 4.24997 17.9268 4.25 17.0283V13.9572C4.24997 13.0587 4.24995 12.3095 4.32991 11.7147C4.41432 11.0869 4.59999 10.5201 5.05546 10.0646C5.51093 9.60917 6.07773 9.4235 6.70552 9.33909C6.87458 9.31636 7.05611 9.3001 7.25 9.28846ZM8.75 7C8.75 5.20521 10.2052 3.75 12 3.75C13.7948 3.75 15.25 5.20521 15.25 7V9.25921C15.1848 9.25917 15.1188 9.25918 15.052 9.25918H8.948C8.88118 9.25918 8.81517 9.25917 8.75 9.25921V7ZM6.11612 11.1253C6.24644 10.995 6.44393 10.8878 6.9054 10.8257C7.38843 10.7608 8.03599 10.7592 9 10.7592H15C15.964 10.7592 16.6116 10.7608 17.0946 10.8257C17.5561 10.8878 17.7536 10.995 17.8839 11.1253C18.0142 11.2556 18.1214 11.4531 18.1835 11.9146C18.2484 12.3976 18.25 13.0452 18.25 14.0092V16.9763C18.25 17.9403 18.2484 18.5879 18.1835 19.0709C18.1214 19.5324 18.0142 19.7298 17.8839 19.8602C17.7536 19.9905 17.5561 20.0977 17.0946 20.1597C16.6116 20.2247 15.964 20.2263 15 20.2263H9C8.03599 20.2263 7.38843 20.2247 6.9054 20.1597C6.44393 20.0977 6.24644 19.9905 6.11612 19.8602C5.9858 19.7298 5.87858 19.5324 5.81654 19.0709C5.7516 18.5879 5.75 17.9403 5.75 16.9763V14.0092C5.75 13.0452 5.7516 12.3976 5.81654 11.9146C5.87858 11.4531 5.9858 11.2556 6.11612 11.1253Z" fill="#001527"/>
</svg>
