<svg width="24" height="24" viewBox="0 0 24 24" fill="none" xmlns="http://www.w3.org/2000/svg">
<path fill-rule="evenodd" clip-rule="evenodd" d="M11.9998 3.74609C7.44142 3.74609 3.74609 7.44142 3.74609 11.9998C3.74609 16.5583 7.44142 20.2536 11.9998 20.2536H17.7519V21.7536H11.9998C6.613 21.7536 2.24609 17.3867 2.24609 11.9998C2.24609 6.613 6.613 2.24609 11.9998 2.24609C17.3867 2.24609 21.7536 6.613 21.7536 11.9998V13.5005C21.7536 15.296 20.2981 16.7515 18.5026 16.7515C17.268 16.7515 16.1942 16.0634 15.6437 15.0497C14.7721 16.09 13.4632 16.7515 11.9998 16.7515C9.37557 16.7515 7.24818 14.6241 7.24818 11.9998C7.24818 9.37557 9.37557 7.24818 11.9998 7.24818C14.6241 7.24818 16.7515 9.37557 16.7515 11.9998V13.5005C16.7515 14.4675 17.5355 15.2515 18.5026 15.2515C19.4696 15.2515 20.2536 14.4675 20.2536 13.5005V11.9998C20.2536 7.44142 16.5583 3.74609 11.9998 3.74609ZM15.2515 11.9998C15.2515 10.204 13.7957 8.74818 11.9998 8.74818C10.204 8.74818 8.74818 10.204 8.74818 11.9998C8.74818 13.7957 10.204 15.2515 11.9998 15.2515C13.7957 15.2515 15.2515 13.7957 15.2515 11.9998Z" fill="#001527"/>
</svg>
