<svg width="24" height="24" viewBox="0 0 24 24" fill="none" xmlns="http://www.w3.org/2000/svg">
<path fill-rule="evenodd" clip-rule="evenodd" d="M15.0314 4.26953H8.9588C7.59122 4.26951 6.48889 4.2695 5.62192 4.38606C4.72181 4.50707 3.96394 4.76597 3.36202 5.36788C2.76011 5.9698 2.50121 6.72767 2.3802 7.62778C2.26364 8.49474 2.26365 9.59706 2.26367 10.9646V13.0353C2.26365 14.4029 2.26364 15.5052 2.3802 16.3722C2.50121 17.2723 2.76011 18.0302 3.36202 18.6321C3.96394 19.234 4.72181 19.4929 5.62192 19.6139C6.48889 19.7305 7.59121 19.7305 8.9588 19.7304H15.0314C16.399 19.7305 17.5013 19.7305 18.3683 19.6139C19.2684 19.4929 20.0263 19.234 20.6282 18.6321C21.2301 18.0302 21.489 17.2723 21.61 16.3722C21.7266 15.5052 21.7266 14.4029 21.7266 13.0353V10.9647C21.7266 9.59707 21.7266 8.49475 21.61 7.62778C21.489 6.72767 21.2301 5.9698 20.6282 5.36788C20.0263 4.76597 19.2684 4.50707 18.3683 4.38606C17.5014 4.2695 16.399 4.26951 15.0314 4.26953ZM4.71811 6.19917C4.97251 6.04809 5.31473 5.94085 5.82179 5.87268C6.57714 5.77113 7.57826 5.76953 9.01367 5.76953H14.9766C16.412 5.76953 17.4131 5.77113 18.1684 5.87268C18.6208 5.9335 18.942 6.02541 19.1867 6.15181L13.8161 9.84188C13.2598 10.2241 12.892 10.4755 12.5885 10.6383C12.3014 10.7923 12.1353 10.8308 11.9939 10.8315C11.8525 10.8322 11.686 10.7954 11.3974 10.6442C11.0923 10.4845 10.722 10.2367 10.162 9.86011L4.71811 6.19917ZM3.92596 7.47409C3.90371 7.58227 3.88402 7.69972 3.86682 7.82765C3.76527 8.583 3.76367 9.58412 3.76367 11.0195V12.9804C3.76367 14.4159 3.76527 15.417 3.86682 16.1723C3.96547 16.9061 4.14592 17.2947 4.42268 17.5714C4.69945 17.8482 5.08802 18.0286 5.82179 18.1273C6.57714 18.2288 7.57826 18.2304 9.01367 18.2304H14.9766C16.412 18.2304 17.4131 18.2288 18.1684 18.1273C18.9022 18.0286 19.2908 17.8482 19.5676 17.5714C19.8443 17.2947 20.0248 16.9061 20.1234 16.1723C20.225 15.417 20.2266 14.4159 20.2266 12.9804V11.0195C20.2266 9.58412 20.225 8.583 20.1234 7.82765C20.1012 7.66269 20.0749 7.51518 20.0443 7.38246L14.6327 11.1007C14.1181 11.4543 13.6824 11.7537 13.2976 11.9601C12.8882 12.1797 12.4754 12.3291 12.0014 12.3315C11.5273 12.3339 11.1131 12.1886 10.7016 11.9731C10.3147 11.7705 9.87602 11.4755 9.35789 11.127L3.92596 7.47409Z" fill="#001527"/>
</svg>
