<svg width="24" height="24" viewBox="0 0 24 24" fill="none" xmlns="http://www.w3.org/2000/svg">
<path fill-rule="evenodd" clip-rule="evenodd" d="M12 2.25C9.92879 2.25 8.25 3.92879 8.25 6V12C8.25 14.0712 9.92879 15.75 12 15.75C14.0712 15.75 15.75 14.0712 15.75 12V6C15.75 3.92879 14.0712 2.25 12 2.25ZM9.75 6C9.75 4.75721 10.7572 3.75 12 3.75C13.2428 3.75 14.25 4.75721 14.25 6V12C14.25 13.2428 13.2428 14.25 12 14.25C10.7572 14.25 9.75 13.2428 9.75 12V6Z" fill="#001527"/>
<path d="M6.75 12V9.25H5.25V12C5.25 15.4747 7.87481 18.3358 11.25 18.7088V20.25H7.07007V21.75H16.9301V20.25H12.75V18.7088C16.1252 18.3358 18.75 15.4747 18.75 12V9.25H17.25V12C17.25 14.8998 14.8998 17.25 12 17.25C9.10021 17.25 6.75 14.8998 6.75 12Z" fill="#001527"/>
</svg>
