<svg width="24" height="24" viewBox="0 0 24 24" fill="none" xmlns="http://www.w3.org/2000/svg">
<path fill-rule="evenodd" clip-rule="evenodd" d="M12.8541 1.89844L11.8208 3.24293C10.995 4.31749 10.5044 5.66158 10.5044 7.12239C10.5044 10.642 13.3576 13.4952 16.8772 13.4952C18.338 13.4952 19.6821 13.0046 20.7567 12.1788L22.1012 11.1455L21.9611 12.8354C21.536 17.9651 17.239 21.9952 12 21.9952C6.47958 21.9952 2.00439 17.52 2.00439 11.9996C2.00439 6.76054 6.03449 2.46355 11.1642 2.03847L12.8541 1.89844ZM9.73348 3.80954C6.14209 4.80115 3.50439 8.09263 3.50439 11.9996C3.50439 16.6916 7.30801 20.4952 12 20.4952C15.907 20.4952 19.1984 17.8575 20.1901 14.2661C19.1828 14.7339 18.06 14.9952 16.8772 14.9952C12.5292 14.9952 9.00439 11.4704 9.00439 7.12239C9.00439 5.93954 9.26565 4.81679 9.73348 3.80954Z" fill="#001527"/>
</svg>
