<svg width="24" height="24" viewBox="0 0 24 24" fill="none" xmlns="http://www.w3.org/2000/svg">
<path d="M10.7256 18.003C10.7256 18.7068 11.2962 19.2774 12 19.2774C12.7038 19.2774 13.2744 18.7068 13.2744 18.003C13.2744 17.2991 12.7038 16.7286 12 16.7286C11.2962 16.7286 10.7256 17.2991 10.7256 18.003Z" fill="#001527"/>
<path d="M12 13.2747C11.2962 13.2747 10.7256 12.7041 10.7256 12.0002C10.7256 11.2964 11.2962 10.7258 12 10.7258C12.7038 10.7258 13.2744 11.2964 13.2744 12.0002C13.2744 12.7041 12.7038 13.2747 12 13.2747Z" fill="#001527"/>
<path d="M12 7.27246C11.2962 7.27246 10.7256 6.70189 10.7256 5.99805C10.7256 5.29421 11.2962 4.72363 12 4.72363C12.7038 4.72363 13.2744 5.29421 13.2744 5.99805C13.2744 6.70189 12.7038 7.27246 12 7.27246Z" fill="#001527"/>
</svg>
