<svg width="24" height="24" viewBox="0 0 24 24" fill="none" xmlns="http://www.w3.org/2000/svg">
<path d="M18.0029 13.2744C18.7068 13.2744 19.2773 12.7038 19.2773 12C19.2773 11.2962 18.7068 10.7256 18.0029 10.7256C17.2991 10.7256 16.7285 11.2962 16.7285 12C16.7285 12.7038 17.2991 13.2744 18.0029 13.2744Z" fill="#001527"/>
<path d="M13.2744 12C13.2744 12.7038 12.7038 13.2744 12 13.2744C11.2962 13.2744 10.7256 12.7038 10.7256 12C10.7256 11.2962 11.2962 10.7256 12 10.7256C12.7038 10.7256 13.2744 11.2962 13.2744 12Z" fill="#001527"/>
<path d="M7.27246 12C7.27246 12.7038 6.70189 13.2744 5.99805 13.2744C5.29421 13.2744 4.72363 12.7038 4.72363 12C4.72363 11.2962 5.29421 10.7256 5.99805 10.7256C6.70189 10.7256 7.27246 11.2962 7.27246 12Z" fill="#001527"/>
</svg>
