<svg width="24" height="24" viewBox="0 0 24 24" fill="none" xmlns="http://www.w3.org/2000/svg">
<path d="M20.8942 21.2632L20.9417 21.3126L22.0229 20.2728L11.9026 9.75009C14.4343 9.72727 16.9738 10.5996 18.901 12.3671L19.4537 12.8741L20.4676 11.7686L19.9149 11.2617C17.3534 8.91245 13.87 7.93743 10.5432 8.33663L7.67084 5.34999C12.5218 3.96748 18.0647 4.97281 21.9095 8.36598L22.4718 8.86226L23.4644 7.73761L22.902 7.24133C18.4621 3.32287 12.0095 2.28935 6.50788 4.14078L4.17098 1.71094L3.10522 2.73593L20.9096 21.2484L20.8942 21.2632Z" fill="#001527"/>
<path d="M12.617 14.7899L11.1867 13.3028C9.88471 13.4736 8.62691 14.0565 7.62647 15.0517L7.09473 15.5806L8.15255 16.6441L8.6843 16.1151C9.7567 15.0484 11.2205 14.6067 12.617 14.7899Z" fill="#001527"/>
<path d="M8.3795 10.3839L7.25643 9.21617C6.10893 9.7093 5.03315 10.3911 4.08398 11.2617L3.53125 11.7686L4.54513 12.8741L5.09786 12.3671C6.06391 11.4811 7.18383 10.82 8.3795 10.3839Z" fill="#001527"/>
<path d="M4.69624 6.55415L3.62071 5.43585C2.72778 5.94777 1.88127 6.5496 1.09748 7.24133L0.535156 7.73761L1.52771 8.86226L2.09004 8.36598C2.8921 7.65812 3.76807 7.05418 4.69624 6.55415Z" fill="#001527"/>
<path d="M13.6121 19.6248C13.6121 20.2393 13.1139 20.7374 12.4994 20.7374C11.8849 20.7374 11.3867 20.2393 11.3867 19.6248C11.3867 19.0103 11.8849 18.5121 12.4994 18.5121C13.1139 18.5121 13.6121 19.0103 13.6121 19.6248Z" fill="#001527"/>
</svg>
