<svg width="24" height="24" viewBox="0 0 24 24" fill="none" xmlns="http://www.w3.org/2000/svg">
<path fill-rule="evenodd" clip-rule="evenodd" d="M10.6742 2.1657C10.9633 2.11124 11.298 2.09961 11.6537 2.09961H12.1537C12.5095 2.09961 12.8441 2.11124 13.1332 2.1657C13.4296 2.22154 13.7498 2.33504 14.009 2.59428C14.2683 2.85352 14.3818 3.17375 14.4376 3.47012C14.4921 3.7592 14.5037 4.09387 14.5037 4.44961V5.80236C17.022 6.00092 17.4222 6.88586 17.7537 10.4496L18.2537 17.1496L18.3266 18.3496H14.9285C14.9284 19.8638 13.6926 21.0995 12.1785 21.0995C10.6643 21.0995 9.42852 19.8638 9.42847 18.3496H5.68555L5.75367 17.1496L6.25367 10.4496C6.49715 7.04097 6.87235 6.06938 9.30371 5.82427V4.44961C9.30371 4.09387 9.31534 3.7592 9.3698 3.47012C9.42564 3.17375 9.53914 2.85352 9.79838 2.59428C10.0576 2.33504 10.3779 2.22154 10.6742 2.1657ZM10.9285 18.3496C10.9285 19.0354 11.4927 19.5995 12.1785 19.5995C12.8642 19.5995 13.4284 19.0354 13.4285 18.3496H10.9285ZM13.0037 4.44961V5.75067C12.89 5.74994 12.7733 5.74961 12.6537 5.74961H11.3537C11.163 5.74961 10.9798 5.75059 10.8037 5.75284V4.44961C10.8037 4.10535 10.8171 3.89002 10.8439 3.74785C10.8516 3.70675 10.8592 3.67889 10.8651 3.66099C10.883 3.65512 10.9109 3.64751 10.9519 3.63977C11.0941 3.61298 11.3095 3.59961 11.6537 3.59961H12.1537C12.498 3.59961 12.7133 3.61298 12.8555 3.63977C12.8966 3.64751 12.9244 3.65512 12.9423 3.66099C12.9482 3.6789 12.9558 3.70675 12.9636 3.74785C12.9903 3.89002 13.0037 4.10535 13.0037 4.44961ZM16.2589 10.575C16.1594 9.50897 16.0617 8.7913 15.9279 8.28239C15.7973 7.7854 15.6707 7.64349 15.6187 7.59613C15.5677 7.54966 15.4198 7.44025 14.9254 7.35985C14.4146 7.27679 13.7062 7.24961 12.6537 7.24961H11.3537C10.283 7.24961 9.55761 7.28278 9.03837 7.37179C8.53354 7.45834 8.37843 7.57358 8.32435 7.6238C8.2714 7.67296 8.14843 7.81439 8.0293 8.30044C7.90624 8.80252 7.82472 9.50841 7.74986 10.5565L7.74952 10.5612L7.28023 16.8496H16.7271L16.2589 10.575Z" fill="#001527"/>
</svg>
