<svg width="24" height="24" viewBox="0 0 24 24" fill="none" xmlns="http://www.w3.org/2000/svg">
<path d="M15.25 6.25073H10.75V7.75073H15.25V6.25073Z" fill="#001527"/>
<path fill-rule="evenodd" clip-rule="evenodd" d="M8.25 14.0007C8.25 11.3774 10.3766 9.25073 13 9.25073C15.6234 9.25073 17.75 11.3774 17.75 14.0007C17.75 16.6241 15.6234 18.7507 13 18.7507C10.3766 18.7507 8.25 16.6241 8.25 14.0007ZM13 10.7507C11.2051 10.7507 9.75 12.2058 9.75 14.0007C9.75 15.7957 11.2051 17.2507 13 17.2507C14.7949 17.2507 16.25 15.7957 16.25 14.0007C16.25 12.2058 14.7949 10.7507 13 10.7507Z" fill="#001527"/>
<path fill-rule="evenodd" clip-rule="evenodd" d="M15.8093 3.26563C16.7308 3.26562 17.7018 3.8597 17.9932 4.74047L18.5438 6.334H20.5318C21.7141 6.334 22.7044 7.4667 22.7044 8.65794V19.4426C22.7044 20.6338 21.746 21.5995 20.5636 21.5995H3.43675C2.25439 21.5995 1.2959 20.6338 1.2959 19.4426V8.65794C1.2959 7.4667 2.27451 6.27145 3.45687 6.27145H7.51467L8.07703 4.74047C8.36843 3.8597 9.41044 3.26562 10.3319 3.26563H15.8093ZM7.51467 7.77145C8.14365 7.77145 8.70583 7.37904 8.92269 6.78864L9.48505 5.25766C9.49065 5.2424 9.49601 5.22706 9.50111 5.21163C9.51142 5.18047 9.57096 5.0654 9.76551 4.94331C9.95827 4.82235 10.1755 4.76562 10.3319 4.76562H15.8093C16.1989 4.76562 16.5148 5.04754 16.5691 5.21163L16.5754 5.23034L17.126 6.82388C17.3349 7.42842 17.9042 7.834 18.5438 7.834H20.5318C20.6306 7.834 20.7916 7.88339 20.9549 8.06187C21.1205 8.24282 21.2044 8.47022 21.2044 8.65794V19.4426C21.2044 19.816 20.907 20.0995 20.5636 20.0995H3.43675C3.09338 20.0995 2.7959 19.816 2.7959 19.4426V18.251H3.58456C4.82091 18.251 5.75005 17.202 5.75005 16.001V12.001C5.75005 10.7999 4.82091 9.75098 3.58456 9.75098H2.7959V8.65794C2.7959 8.45891 2.8858 8.20659 3.061 8.00673C3.23418 7.80915 3.38816 7.77145 3.45687 7.77145H7.51467ZM2.7959 11.251V16.751H3.58456C3.91171 16.751 4.25005 16.4568 4.25005 16.001V12.001C4.25005 11.5452 3.91171 11.251 3.58456 11.251H2.7959Z" fill="#001527"/>
</svg>
