<svg width="24" height="24" viewBox="0 0 24 24" fill="none" xmlns="http://www.w3.org/2000/svg">
<path d="M6.25684 11.7565H8.70508V10.2565H6.25684V11.7565Z" fill="#001527"/>
<path fill-rule="evenodd" clip-rule="evenodd" d="M6.38672 2.18359H17.6133V7.05032C18.2482 7.05364 18.7947 7.06795 19.2505 7.12923C19.8783 7.21363 20.4451 7.3993 20.9006 7.85477C21.3561 8.31025 21.5417 8.87705 21.6261 9.50484C21.7061 10.0996 21.7061 10.8488 21.7061 11.7473V13.0359C21.7061 13.9344 21.7061 14.6836 21.6261 15.2784C21.5417 15.9062 21.3561 16.473 20.9006 16.9284C20.4449 17.3841 19.8773 17.5697 19.2488 17.654C18.7934 17.7151 18.2475 17.7295 17.6133 17.7329V22.2495H6.38672V17.7328C5.75442 17.7293 5.21016 17.7147 4.75602 17.6541C4.12563 17.5699 3.55579 17.3848 3.0994 16.9284C2.64393 16.473 2.45826 15.9062 2.37386 15.2784C2.29389 14.6836 2.29392 13.9344 2.29395 13.0359V11.7473C2.29392 10.8489 2.29389 10.0996 2.37386 9.50484C2.45826 8.87705 2.64393 8.31025 3.0994 7.85477C3.55487 7.3993 4.12167 7.21363 4.74947 7.12923C5.20529 7.06795 5.75182 7.05364 6.38672 7.05032V2.18359ZM7.88672 3.68359V7.04932H16.1133V3.68359H7.88672ZM17.6133 16.2326C18.2282 16.2292 18.6854 16.2162 19.0493 16.1673C19.5121 16.1052 19.7099 15.9978 19.8399 15.8678C19.9703 15.7375 20.0775 15.54 20.1395 15.0785C20.2045 14.5955 20.2061 13.9479 20.2061 12.9839V11.7993C20.2061 10.8353 20.2045 10.1877 20.1395 9.70471C20.0775 9.24325 19.9703 9.04575 19.8399 8.91544C19.7096 8.78512 19.5121 8.6779 19.0507 8.61585C18.5676 8.55091 17.9201 8.54932 16.9561 8.54932H7.04395C6.07994 8.54932 5.43238 8.55091 4.94934 8.61585C4.48788 8.6779 4.29038 8.78512 4.16007 8.91544C4.02975 9.04575 3.92253 9.24325 3.86048 9.70471C3.79554 10.1877 3.79395 10.8353 3.79395 11.7993V12.9839C3.79395 13.9479 3.79554 14.5955 3.86048 15.0785C3.92253 15.54 4.02975 15.7375 4.16007 15.8678C4.28946 15.9972 4.48782 16.105 4.95449 16.1673C5.31821 16.2158 5.77463 16.229 6.38672 16.2326V14.7495H17.6133V16.2326ZM7.88672 20.7495V16.2495H16.1133V20.7495H7.88672Z" fill="#001527"/>
</svg>
