<svg width="24" height="24" viewBox="0 0 24 24" fill="none" xmlns="http://www.w3.org/2000/svg">
<path d="M12 6.40631C10.3969 6.40631 9.09277 7.70358 9.09277 9.31093V10.0609H10.5928V9.31093C10.5928 8.53495 11.2224 7.90631 12 7.90631C12.7764 7.90631 13.4059 8.53507 13.4059 9.31223C13.4059 9.7806 13.1555 10.0527 12.6705 10.3792C12.0765 10.7781 11.2487 11.4508 11.2487 12.7261V13.7451H12.7487V12.7261C12.7487 12.2396 13.0103 11.9579 13.5078 11.6238C14.0882 11.2331 14.9059 10.5695 14.9059 9.31223C14.9059 7.70605 13.6043 6.40631 12 6.40631Z" fill="#001527"/>
<path fill-rule="evenodd" clip-rule="evenodd" d="M12 1.5C6.20054 1.5 1.5 6.20054 1.5 12C1.5 17.7995 6.20054 22.5 12 22.5C17.7995 22.5 22.5 17.7995 22.5 12C22.5 6.20054 17.7995 1.5 12 1.5ZM3 12C3 7.02896 7.02896 3 12 3C16.971 3 21 7.02896 21 12C21 16.971 16.971 21 12 21C7.02896 21 3 16.971 3 12Z" fill="#001527"/>
<path d="M12.9002 16.35C12.9002 16.8194 12.5196 17.2 12.0502 17.2C11.5808 17.2 11.2002 16.8194 11.2002 16.35C11.2002 15.8806 11.5808 15.5 12.0502 15.5C12.5196 15.5 12.9002 15.8806 12.9002 16.35Z" fill="#001527"/>
</svg>
