<svg width="24" height="24" viewBox="0 0 24 24" fill="none" xmlns="http://www.w3.org/2000/svg">
<path d="M9.33337 8.85635C9.33337 7.4554 10.47 6.32493 11.8669 6.32493C13.265 6.32493 14.3994 7.45766 14.3994 8.85743C14.3994 9.96527 13.6743 10.5478 13.1861 10.8764C12.9822 11.0133 12.8413 11.1311 12.7495 11.2547C12.6703 11.3614 12.6159 11.4871 12.6159 11.68V12.6524H11.1159V11.68C11.1159 10.5572 11.8494 9.96719 12.3489 9.63177C12.5474 9.49811 12.6828 9.38438 12.7713 9.26517C12.8473 9.16274 12.8994 9.04258 12.8994 8.85743C12.8994 8.28667 12.4372 7.82493 11.8669 7.82493C11.2955 7.82493 10.8334 8.28677 10.8334 8.85635V9.60635H9.33337V8.85635Z" fill="#001527"/>
<path d="M12.7506 14.5783C12.7506 15.0045 12.4051 15.35 11.979 15.35C11.5528 15.35 11.2074 15.0045 11.2074 14.5783C11.2074 14.1522 11.5528 13.8067 11.979 13.8067C12.4051 13.8067 12.7506 14.1522 12.7506 14.5783Z" fill="#001527"/>
<path fill-rule="evenodd" clip-rule="evenodd" d="M10.2375 1.76856H13.7638C15.6016 1.76854 17.0572 1.76853 18.1964 1.92169C19.3688 2.07932 20.3178 2.41144 21.0661 3.1598C21.8145 3.90816 22.1466 4.85711 22.3043 6.02953C22.4574 7.16874 22.4574 8.62436 22.4574 10.4621V23.0341L18.7063 20.0565C18.5637 19.9433 18.4843 19.8807 18.4215 19.8373C18.3935 19.8179 18.3773 19.8084 18.3686 19.8037C18.3645 19.8015 18.3612 19.8 18.3612 19.8L18.3601 19.7995L18.3589 19.7992C18.3589 19.7992 18.3555 19.7983 18.3508 19.7975C18.3412 19.7958 18.3225 19.7932 18.2886 19.7909C18.2124 19.7859 18.1112 19.7856 17.9292 19.7856H10.2375C8.39979 19.7856 6.94413 19.7856 5.80492 19.6324C4.6325 19.4748 3.68355 19.1427 2.93519 18.3943C2.18683 17.646 1.85471 16.697 1.69708 15.5246C1.54392 14.3854 1.54393 12.9298 1.54395 11.092V10.4621C1.54393 8.62441 1.54392 7.16874 1.69708 6.02953C1.85471 4.85711 2.18683 3.90816 2.93519 3.1598C3.68355 2.41144 4.6325 2.07932 5.80492 1.92169C6.94413 1.76853 8.39977 1.76854 10.2375 1.76856ZM20.0055 4.22046C19.5823 3.79725 19.0026 3.54358 17.9965 3.40831C16.9689 3.27015 15.6142 3.26856 13.7074 3.26856H10.2939C8.38712 3.26856 7.03246 3.27015 6.00479 3.40831C4.99871 3.54358 4.41906 3.79725 3.99585 4.22046C3.57264 4.64367 3.31897 5.22332 3.1837 6.2294C3.04554 7.25707 3.04395 8.61174 3.04395 10.5186V11.0356C3.04395 12.9424 3.04554 14.2971 3.1837 15.3247C3.31897 16.3308 3.57264 16.9105 3.99585 17.3337C4.41906 17.7569 4.99871 18.0105 6.00479 18.1458C7.03246 18.284 8.38712 18.2856 10.2939 18.2856H17.9292L17.9966 18.2855C18.2725 18.2848 18.5697 18.284 18.8539 18.3831C19.1381 18.4822 19.3704 18.6676 19.5861 18.8396L19.6389 18.8817L20.9574 19.9283V10.5186C20.9574 8.61174 20.9558 7.25707 20.8176 6.2294C20.6824 5.22332 20.4287 4.64367 20.0055 4.22046Z" fill="#001527"/>
</svg>
