<svg width="24" height="24" viewBox="0 0 24 24" fill="none" xmlns="http://www.w3.org/2000/svg">
<path d="M11.7908 13.3586L15.4375 9.71191L14.3768 8.65125L10.8007 12.2274L9.17516 10.6019L8.1145 11.6625L9.81058 13.3586C10.3574 13.9054 11.244 13.9054 11.7908 13.3586Z" fill="#001527"/>
<path fill-rule="evenodd" clip-rule="evenodd" d="M6.80787 16.2441C9.37256 18.8088 13.4267 18.9763 16.1859 16.7464L19.5001 20.0606L20.5607 19L17.2465 15.6858C19.3205 13.1193 19.3205 9.43258 17.2465 6.86617L17.2745 6.8382L16.2138 5.77754L16.1858 5.80551C13.4267 3.57574 9.37254 3.74319 6.80787 6.30787C4.06404 9.05169 4.06404 13.5003 6.80787 16.2441ZM15.6835 7.36853C13.5254 5.21049 10.0266 5.21049 7.86853 7.36853C5.71049 9.52656 5.71049 13.0254 7.86853 15.1835C9.96844 17.2834 13.3379 17.3399 15.5062 15.3531L15.8531 15.0062C17.8399 12.8379 17.7834 9.46844 15.6835 7.36853Z" fill="#001527"/>
</svg>
