<svg width="24" height="24" viewBox="0 0 24 24" fill="none" xmlns="http://www.w3.org/2000/svg">
<path fill-rule="evenodd" clip-rule="evenodd" d="M15.6858 16.7465C12.9267 18.9763 8.87254 18.8088 6.30787 16.2441C3.56404 13.5003 3.56404 9.05169 6.30787 6.30787C8.87254 3.74319 12.9267 3.57574 15.6858 5.80551L15.7138 5.77754L16.7745 6.8382L16.7465 6.86617C18.8205 9.43261 18.8205 13.1194 16.7465 15.6858L20.0606 19L19 20.0606L15.6858 16.7465ZM7.36853 7.36853C9.52656 5.21049 13.0254 5.21049 15.1835 7.36853C17.2829 9.46797 17.3399 12.8364 15.3545 15.0048L15.0048 15.3545C12.8364 17.3399 9.46797 17.2829 7.36853 15.1835C5.21049 13.0254 5.21049 9.52656 7.36853 7.36853Z" fill="#001527"/>
</svg>
