<svg width="24" height="24" viewBox="0 0 24 24" fill="none" xmlns="http://www.w3.org/2000/svg">
<path fill-rule="evenodd" clip-rule="evenodd" d="M12.0533 8.2749H12.0038C11.5686 8.2749 11.2052 8.27489 10.9067 8.29484C10.5961 8.31561 10.3025 8.36036 10.0172 8.47584C9.32689 8.75528 8.77945 9.30272 8.50001 9.99301C8.38417 10.2792 8.33964 10.575 8.31897 10.8878C8.29906 11.1892 8.29907 11.557 8.29907 11.9987V12.048C8.29907 12.4897 8.29906 12.8575 8.31897 13.1589C8.33964 13.4717 8.38417 13.7676 8.50001 14.0537C8.77945 14.744 9.32689 15.2914 10.0172 15.5709C10.3025 15.6864 10.5961 15.7311 10.9067 15.7519C11.2052 15.7718 11.5686 15.7718 12.0039 15.7718H12.0533C12.4886 15.7718 12.852 15.7718 13.1504 15.7519C13.4611 15.7311 13.7547 15.6864 14.04 15.5709C14.7303 15.2914 15.2777 14.744 15.5571 14.0537C15.673 13.7676 15.7175 13.4717 15.7382 13.1589C15.7581 12.8575 15.7581 12.4897 15.7581 12.048V11.9987C15.7581 11.557 15.7581 11.1892 15.7382 10.8878C15.7175 10.575 15.673 10.2792 15.5571 9.99301C15.2777 9.30272 14.7303 8.75528 14.04 8.47584C13.7547 8.36036 13.4611 8.31561 13.1504 8.29484C12.852 8.27489 12.4886 8.2749 12.0533 8.2749ZM10.58 9.86624C10.6558 9.83559 10.7708 9.80727 11.0067 9.7915C11.2492 9.77529 11.5622 9.7749 12.0286 9.7749C12.4949 9.7749 12.8079 9.77529 13.0504 9.7915C13.2863 9.80727 13.4014 9.83559 13.4771 9.86624C13.7909 9.99326 14.0397 10.2421 14.1667 10.5559C14.197 10.6307 14.2256 10.7467 14.2414 10.9867C14.2577 11.2327 14.2581 11.5508 14.2581 12.0234C14.2581 12.496 14.2577 12.814 14.2414 13.06C14.2256 13.3001 14.197 13.416 14.1667 13.4909C14.0397 13.8046 13.7909 14.0535 13.4771 14.1805C13.4014 14.2111 13.2863 14.2395 13.0504 14.2552C12.8079 14.2714 12.4949 14.2718 12.0286 14.2718C11.5622 14.2718 11.2492 14.2714 11.0067 14.2552C10.7708 14.2395 10.6558 14.2111 10.58 14.1805C10.2663 14.0535 10.0174 13.8046 9.89041 13.4909C9.86011 13.416 9.83157 13.3001 9.81571 13.06C9.79945 12.814 9.79907 12.496 9.79907 12.0234C9.79907 11.5508 9.79945 11.2327 9.81571 10.9867C9.83157 10.7467 9.86011 10.6307 9.89041 10.5559C10.0174 10.2421 10.2663 9.99326 10.58 9.86624Z" fill="#001527"/>
<path fill-rule="evenodd" clip-rule="evenodd" d="M22.5987 11.536C21.7049 10.4157 20.2754 8.71365 18.4863 7.29156C16.7057 5.87623 14.486 4.67176 12.0195 4.68467C9.69076 4.69686 7.48101 5.9087 5.68615 7.31061C3.87561 8.72476 2.38783 10.4107 1.48826 11.5352L1.13086 11.9819L1.46727 12.4447C2.33248 13.6349 3.8268 15.3798 5.65258 16.8356C7.46162 18.278 9.70034 19.52 12.0361 19.52C14.4519 19.52 16.6914 18.2815 18.4889 16.8332C20.2992 15.3746 21.7544 13.6283 22.618 12.4461L22.9558 11.9837L22.5987 11.536ZM12.0273 6.18465C14.0017 6.17432 15.8917 7.14532 17.5529 8.4658C18.9912 9.60903 20.1961 10.9646 21.0618 12.0206C20.2305 13.0986 19.0056 14.4906 17.5478 15.6652C15.8598 17.0252 13.9511 18.02 12.0361 18.02C10.2072 18.02 8.30066 17.0286 6.58772 15.6628C5.11321 14.4871 3.85919 13.0955 3.02676 12.023C3.89541 10.9825 5.14764 9.63454 6.60948 8.49275C8.30807 7.16604 10.1923 6.19426 12.0273 6.18465Z" fill="#001527"/>
</svg>
