<svg width="24" height="24" viewBox="0 0 24 24" fill="none" xmlns="http://www.w3.org/2000/svg">
<path fill-rule="evenodd" clip-rule="evenodd" d="M11.0699 4.06952C13.0149 2.12446 16.05 1.81448 18.2827 2.70754L19.3422 3.13133L16.9095 5.54958L16.9077 5.55136L15.2607 7.19965L16.8142 8.75316L18.5491 7.10847L20.8803 4.78836L21.3445 5.71673C22.4998 8.02744 21.9409 11.0198 20.0305 12.9302L20.0225 12.9382L20.0142 12.946C18.2324 14.623 15.8539 15.1305 13.7108 14.5499L7.23053 21.0302C6.03763 22.2231 4.16276 22.2231 2.96987 21.0302C1.77697 19.8373 1.77697 17.9624 2.96987 16.7695L9.43637 10.303C8.77197 8.13049 9.39269 5.74669 11.0699 4.06952ZM16.5534 3.78847C15.0076 3.56214 13.2817 3.97897 12.1305 5.13018C10.731 6.5297 10.314 8.51488 10.9966 10.2213L11.1802 10.6805L4.03053 17.8302C3.42342 18.4373 3.42342 19.3624 4.03053 19.9695C4.63763 20.5766 5.56276 20.5766 6.16987 19.9695L13.3031 12.8363L13.748 12.992C15.4885 13.6011 17.4886 13.2574 18.9778 11.8615C20.1734 10.6605 20.6554 8.93432 20.3556 7.42678L19.5943 8.18453L16.7862 10.8465L13.1397 7.20005L15.8484 4.48932L15.8502 4.48754L16.5534 3.78847Z" fill="#001527"/>
</svg>
