<svg width="24" height="24" viewBox="0 0 24 24" fill="none" xmlns="http://www.w3.org/2000/svg">
<path fill-rule="evenodd" clip-rule="evenodd" d="M14.6516 9.34835C13.1872 7.88388 10.8128 7.88388 9.34835 9.34835C7.88388 10.8128 7.88388 13.1872 9.34835 14.6516C10.8128 16.1161 13.1872 16.1161 14.6516 14.6516C16.1161 13.1872 16.1161 10.8128 14.6516 9.34835ZM13.591 10.409C12.7123 9.53033 11.2877 9.53033 10.409 10.409C9.53033 11.2877 9.53033 12.7123 10.409 13.591C11.2877 14.4697 12.7123 14.4697 13.591 13.591C14.4697 12.7123 14.4697 11.2877 13.591 10.409Z" fill="#001527"/>
<path fill-rule="evenodd" clip-rule="evenodd" d="M9.45 2.25H14.5314V4.356C14.5314 4.55653 14.652 4.72808 14.8221 4.79505L14.8304 4.79843L14.8607 4.81072C14.9017 4.82729 14.9525 4.84788 15.0015 4.86904L14.9989 4.86793L14.7074 5.559L15.006 4.87099L15.0015 4.86904C15.2179 4.95906 15.4646 4.91015 15.6301 4.74467L15.6651 4.70972L17.2668 3.48252L18.5134 4.7443L17.9834 5.275L18.517 4.74788L19.2364 5.46628L20.6906 6.9483L19.233 8.35417L19.2368 8.35033L18.7064 7.82L19.2271 8.35982L19.233 8.35417C19.0701 8.52004 19.0228 8.76547 19.1131 8.98062L19.1125 8.9791L18.4224 9.273L19.1135 8.98159L19.1131 8.98062C19.1402 9.04434 19.1642 9.10487 19.1857 9.16036C19.2528 9.32935 19.4246 9.45 19.6254 9.45H21.7314V14.55H19.6254C19.4246 14.55 19.2528 14.6707 19.1857 14.8396C19.1642 14.8951 19.1402 14.9557 19.1131 15.0194L19.1135 15.0184L18.4224 14.727L19.1125 15.0209L19.1131 15.0194C19.0228 15.2345 19.0701 15.48 19.233 15.6458L19.2271 15.6402L18.7064 16.18L19.2368 15.6497L19.233 15.6458L20.6906 17.0517L19.2364 18.5337L18.517 19.2521L17.9834 18.725L18.5134 19.2557L17.2668 20.5175L15.6651 19.2903L15.6301 19.2553C15.4646 19.0899 15.2179 19.0409 15.0015 19.131L15.006 19.129L14.7074 18.441L14.9989 19.1321L15.0015 19.131C14.9525 19.1521 14.9017 19.1727 14.8607 19.1893L14.8304 19.2016L14.8221 19.2049C14.652 19.2719 14.5314 19.4435 14.5314 19.644V21.75H9.45V19.644C9.45 19.4435 9.32949 19.2719 9.15932 19.2049L9.15103 19.2016L9.12072 19.1893C9.07977 19.1727 9.02891 19.1521 8.97994 19.131L8.98259 19.1321L9.274 18.441L8.97543 19.129L8.97994 19.131C8.76353 19.0409 8.51681 19.0899 8.35133 19.2553L8.31638 19.2903L6.71465 20.5175L5.46804 19.2557L5.998 18.725L5.46448 19.2521L4.74501 18.5337L3.29087 17.0517L4.74847 15.6458L4.74467 15.6497L5.275 16.18L4.75434 15.6402L4.74847 15.6458C4.91132 15.48 4.95861 15.2345 4.86833 15.0194L4.86898 15.0209L5.559 14.727L4.86793 15.0184L4.86833 15.0194C4.84123 14.9557 4.81729 14.8951 4.7957 14.8396C4.7287 14.6707 4.55683 14.55 4.356 14.55H2.25V9.45H4.356C4.55683 9.45 4.7287 9.32935 4.7957 9.16036C4.81729 9.10487 4.84123 9.04434 4.86833 8.98062L4.86793 8.98159L5.559 9.273L4.86898 8.9791L4.86833 8.98062C4.95861 8.76547 4.91132 8.52004 4.74847 8.35417L4.75434 8.35982L5.275 7.82L4.74467 8.35033L4.74847 8.35417L3.29087 6.9483L4.74501 5.46628L5.46625 4.74609L5.46448 4.74788L5.998 5.275L5.46804 4.7443L5.46625 4.74609L6.71465 3.48252L8.31638 4.70972L8.35133 4.74467C8.51681 4.91015 8.76353 4.95906 8.97994 4.86904L8.97543 4.87099L9.274 5.559L8.98259 4.86793L8.97994 4.86904C9.02889 4.84788 9.07974 4.82731 9.12068 4.81074L9.15103 4.79843L9.15932 4.79505C9.32949 4.72808 9.45 4.55653 9.45 4.356V2.25ZM10.95 20.25H13.0314V19.644C13.0314 18.8461 13.511 18.1111 14.2682 17.8109L14.3089 17.7944C14.3477 17.7787 14.3773 17.7667 14.4089 17.753L14.416 17.7499C15.1781 17.4285 16.0541 17.5895 16.6515 18.1564L17.1293 18.5224L17.4535 18.1943L18.1738 17.475L18.5603 17.0811L18.176 16.7104C17.5782 16.1126 17.4029 15.2145 17.7314 14.4356L17.7324 14.4331C17.7508 14.3901 17.7684 14.3457 17.7884 14.2942L17.7895 14.2913C18.0888 13.5309 18.8267 13.05 19.6254 13.05H20.2314V10.95H19.6254C18.8267 10.95 18.0888 10.4691 17.7895 9.70866L17.7884 9.70583C17.7684 9.65426 17.7508 9.60994 17.7324 9.5669L17.7314 9.56441C17.4029 8.78546 17.5782 7.88743 18.176 7.28958L18.5603 6.91894L18.1738 6.52499L17.4535 5.80571L17.1293 5.47755L16.6515 5.84361C16.0541 6.41054 15.1781 6.57146 14.416 6.25011L14.4089 6.24701C14.3772 6.23328 14.3477 6.22131 14.3089 6.20562L14.2682 6.18908C13.511 5.88889 13.0314 5.15386 13.0314 4.356V3.75H10.95V4.356C10.95 5.15386 10.4704 5.88889 9.71326 6.18908L9.67252 6.20561C9.63376 6.22131 9.60421 6.23328 9.57257 6.24701L9.56543 6.25011C8.80336 6.57146 7.92739 6.41054 7.32996 5.84361L6.85219 5.47755L6.52798 5.80571L5.80767 6.52499L5.42113 6.91894L5.80542 7.28958C6.40327 7.88743 6.57854 8.78546 6.25007 9.56441L6.24902 9.5669C6.23069 9.60994 6.21306 9.65426 6.193 9.70583L6.19191 9.70866C5.89262 10.4691 5.15476 10.95 4.356 10.95H3.75V13.05H4.356C5.15476 13.05 5.89262 13.5309 6.19191 14.2913L6.193 14.2942C6.21306 14.3457 6.23069 14.3901 6.24902 14.4331L6.25007 14.4356C6.57854 15.2145 6.40327 16.1126 5.80542 16.7104L5.42113 17.0811L5.80767 17.475L6.52798 18.1943L6.85219 18.5224L7.32996 18.1564C7.92739 17.5895 8.80336 17.4285 9.56543 17.7499L9.57257 17.753C9.6042 17.7667 9.63375 17.7787 9.67249 17.7944L9.71326 17.8109C10.4704 18.1111 10.95 18.8461 10.95 19.644V20.25Z" fill="#001527"/>
</svg>
