<svg width="24" height="24" viewBox="0 0 24 24" fill="none" xmlns="http://www.w3.org/2000/svg">
<path fill-rule="evenodd" clip-rule="evenodd" d="M16.9329 4.11221C15.8472 3.02741 14.0876 3.0277 13.0022 4.11307C12.1246 4.99069 11.9564 6.3091 12.4977 7.35565L9.47118 9.62182C8.40157 8.97244 6.98847 9.10986 6.06424 10.0341C4.97858 11.1197 4.97859 12.8799 6.06424 13.9656C6.98847 14.8898 8.40157 15.0273 9.47118 14.3779L12.4977 16.644C11.9564 17.6906 12.1246 19.009 13.0022 19.8866C14.0879 20.9723 15.8481 20.9723 16.9337 19.8866C18.0194 18.801 18.0194 17.0408 16.9337 15.9551L16.9329 15.9543C16.0091 15.0312 14.5975 14.8938 13.5284 15.5419L10.5011 13.2751C10.913 12.4775 10.913 11.5222 10.5011 10.7246L13.5284 8.45781C14.5978 9.1061 16.01 8.96836 16.9337 8.04458C18.0194 6.95893 18.0194 5.19873 16.9337 4.11307L16.9329 4.11221ZM15.8731 5.17373C15.3732 4.67386 14.5628 4.67386 14.0629 5.17373C13.563 5.6736 13.563 6.48405 14.0629 6.98392C14.5628 7.48379 15.3732 7.48379 15.8731 6.98392C16.373 6.48405 16.373 5.6736 15.8731 5.17373ZM7.1249 11.0948C7.62477 10.5949 8.43523 10.5949 8.93509 11.0948C9.43496 11.5946 9.43496 12.4051 8.93509 12.9049C8.43522 13.4048 7.62477 13.4048 7.1249 12.9049C6.62503 12.4051 6.62503 11.5946 7.1249 11.0948ZM14.0629 17.0158C14.5628 16.5159 15.3732 16.5159 15.8731 17.0158C16.373 17.5156 16.373 18.3261 15.8731 18.826C15.3732 19.3258 14.5628 19.3258 14.0629 18.826C13.563 18.3261 13.563 17.5156 14.0629 17.0158Z" fill="#001527"/>
</svg>
