<svg width="24" height="24" viewBox="0 0 24 24" fill="none" xmlns="http://www.w3.org/2000/svg">
<path fill-rule="evenodd" clip-rule="evenodd" d="M11.9998 1.25C9.37654 1.25 7.24976 3.37679 7.24976 6V6.32544H3.32324V15.0312C3.32322 16.3987 3.32321 17.5011 3.43977 18.368C3.56078 19.2681 3.81968 20.026 4.42159 20.6279C5.02351 21.2299 5.78138 21.4887 6.68149 21.6098C7.54846 21.7263 8.65078 21.7263 10.0184 21.7263H14.0429C15.4105 21.7263 16.5128 21.7263 17.3798 21.6098C18.2799 21.4887 19.0378 21.2299 19.6397 20.6279C20.2416 20.026 20.5005 19.2681 20.6215 18.368C20.7381 17.5011 20.7381 16.3987 20.738 15.0312V6.32544H16.7498V6C16.7498 3.37679 14.623 1.25 11.9998 1.25ZM15.2498 7.82544V10.75H16.7498V7.82544H19.238V14.9763C19.238 16.4117 19.2364 17.4128 19.1349 18.1682C19.0362 18.9019 18.8558 19.2905 18.579 19.5673C18.3023 19.844 17.9137 20.0245 17.1799 20.1231C16.4246 20.2247 15.4235 20.2263 13.988 20.2263H10.0732C8.63783 20.2263 7.63671 20.2247 6.88136 20.1231C6.14759 20.0245 5.75902 19.844 5.48225 19.5673C5.20549 19.2905 5.02504 18.9019 4.92639 18.1682C4.82484 17.4128 4.82324 16.4117 4.82324 14.9763V7.82544H7.24976V10.75H8.74976V7.82544H15.2498ZM15.2498 6.32544V6C15.2498 4.20521 13.7945 2.75 11.9998 2.75C10.205 2.75 8.74976 4.20521 8.74976 6V6.32544H15.2498Z" fill="#001527"/>
</svg>
