<svg width="24" height="24" viewBox="0 0 24 24" fill="none" xmlns="http://www.w3.org/2000/svg">
<path d="M2.25 20.0215V4.02148H3.75V20.0215H2.25Z" fill="#001527"/>
<path d="M20.25 20.0215V4.02148H21.75V20.0215H20.25Z" fill="#001527"/>
<path d="M11.25 4.02148V20.0215H12.75V4.02148H11.25Z" fill="#001527"/>
<path d="M16.9394 12.0215L15.4697 10.5518L16.5304 9.49116L18.5304 11.4912C18.8233 11.7841 18.8233 12.2589 18.5304 12.5518L16.5304 14.5518L15.4697 13.4912L16.9394 12.0215Z" fill="#001527"/>
<path d="M8.53033 10.5518L7.06066 12.0215L8.53033 13.4912L7.46967 14.5518L5.46967 12.5518C5.17678 12.2589 5.17678 11.7841 5.46967 11.4912L7.46967 9.49116L8.53033 10.5518Z" fill="#001527"/>
</svg>
