<svg width="24" height="24" viewBox="0 0 24 24" fill="none" xmlns="http://www.w3.org/2000/svg">
<path d="M14.0947 1.75H8.59473V3.25H14.0947V1.75Z" fill="#001527"/>
<path d="M10.5947 12.538C10.3088 12.7612 10.125 13.1091 10.125 13.5C10.125 14.1737 10.6711 14.7198 11.3448 14.7198C12.0186 14.7198 12.5647 14.1737 12.5647 13.5C12.5647 13.109 12.3808 12.761 12.0947 12.5378V8.75H10.5947V12.538Z" fill="#001527"/>
<path fill-rule="evenodd" clip-rule="evenodd" d="M19.3446 6.56061L18.0399 7.86531C20.9396 11.303 20.7703 16.449 17.5321 19.6873C14.1152 23.1042 8.57429 23.1042 5.1574 19.6873C1.7405 16.2704 1.7405 10.7296 5.1574 7.31267C8.39561 4.07446 13.5415 3.90512 16.9792 6.80466L18.2839 5.49995L17.2627 4.47875L18.3234 3.41809L19.8749 4.96962L19.8764 4.97111L21.4052 6.49995L20.3446 7.56061L19.3446 6.56061ZM16.4487 8.35076L16.494 8.396C19.3025 11.2289 19.295 15.8031 16.4714 18.6267C13.6403 21.4578 9.04916 21.4578 6.21806 18.6267C3.38695 15.7956 3.38695 11.2044 6.21806 8.37333C9.04162 5.54977 13.6158 5.54224 16.4487 8.35076Z" fill="#001527"/>
</svg>
