<svg width="24" height="24" viewBox="0 0 24 24" fill="none" xmlns="http://www.w3.org/2000/svg">
<path d="M12.8125 1.1875V3.8125H11.1875V1.1875H12.8125Z" fill="#001527"/>
<path fill-rule="evenodd" clip-rule="evenodd" d="M16.4636 7.53639C13.9984 5.0712 10.0016 5.0712 7.53639 7.53639C5.0712 10.0016 5.0712 13.9984 7.53639 16.4636C10.0016 18.9288 13.9984 18.9288 16.4636 16.4636C18.9288 13.9984 18.9288 10.0016 16.4636 7.53639ZM15.3146 8.68543C13.484 6.85486 10.516 6.85486 8.68543 8.68543C6.85486 10.516 6.85486 13.484 8.68543 15.3146C10.516 17.1451 13.484 17.1451 15.3146 15.3146C17.1451 13.484 17.1451 10.516 15.3146 8.68543Z" fill="#001527"/>
<path d="M12.8125 22.8125V20.1875H11.1875V22.8125H12.8125Z" fill="#001527"/>
<path d="M20.219 4.93L18.36 6.78905L17.2109 5.64L19.07 3.78095L20.219 4.93Z" fill="#001527"/>
<path d="M4.92981 20.219L6.78886 18.36L5.63981 17.211L3.78076 19.07L4.92981 20.219Z" fill="#001527"/>
<path d="M20.1875 11.1875H22.8125V12.8125H20.1875V11.1875Z" fill="#001527"/>
<path d="M3.8125 11.1875H1.1875V12.8125H3.8125V11.1875Z" fill="#001527"/>
<path d="M18.36 17.211L20.219 19.07L19.07 20.219L17.2109 18.36L18.36 17.211Z" fill="#001527"/>
<path d="M6.78886 5.64L4.92981 3.78095L3.78076 4.93L5.63981 6.78905L6.78886 5.64Z" fill="#001527"/>
</svg>
