<svg width="24" height="24" viewBox="0 0 24 24" fill="none" xmlns="http://www.w3.org/2000/svg">
<path fill-rule="evenodd" clip-rule="evenodd" d="M3.24756 20.7529L3.24756 9.74911L7.79188 9.74905L9.94048 4.34974C10.2933 3.46313 11.2912 3.02247 12.1842 3.359L12.8236 3.60001C14.2847 4.15068 15.2519 5.54881 15.2519 7.11022L15.2519 9.74897H17.502C18.5031 9.74898 19.4483 10.2102 20.0644 10.9993C20.6805 11.7884 20.8987 12.8173 20.6559 13.7885L19.5305 18.2904C19.1686 19.7376 17.8683 20.7529 16.3765 20.7529L3.24756 20.7529ZM9.05078 10.6424L11.3342 4.90436C11.3847 4.77753 11.5274 4.71448 11.6552 4.76262L12.2946 5.00363C13.1715 5.33411 13.7519 6.17317 13.7519 7.11022L13.7519 11.249L17.502 11.249C18.0412 11.249 18.5503 11.4974 18.8821 11.9224C19.214 12.3474 19.3315 12.9016 19.2007 13.4247L18.0752 17.9266C17.8804 18.7061 17.18 19.2529 16.3765 19.2529L9.05078 19.2529L9.05078 10.6424ZM7.55078 11.2491L4.74756 11.249L4.74756 19.2529H7.55078L7.55078 11.2491Z" fill="#001527"/>
</svg>
