<svg width="24" height="24" viewBox="0 0 24 24" fill="none" xmlns="http://www.w3.org/2000/svg">
<path fill-rule="evenodd" clip-rule="evenodd" d="M15.7032 3.24708H20.7535V14.2509L16.2092 14.251L14.0606 19.6503C13.7078 20.5369 12.7098 20.9775 11.8169 20.641L11.1774 20.4C9.71634 19.8493 8.74913 18.4512 8.74913 16.8898V14.251H6.49911C5.498 14.251 4.55272 13.7898 3.93663 13.0007C3.32053 12.2116 3.10234 11.1827 3.34514 10.2115L4.47061 5.70962C4.83243 4.26237 6.13278 3.24708 7.62458 3.24708H15.6973L15.7003 3.24707L15.7032 3.24708ZM14.9503 13.3576V4.74708H7.62458C6.82109 4.74708 6.1207 5.29392 5.92583 6.07343L4.80036 10.5753C4.66958 11.0984 4.7871 11.6526 5.11894 12.0776C5.45077 12.5026 5.95991 12.751 6.49911 12.751H10.2491V16.8898C10.2491 17.8268 10.8296 18.6659 11.7064 18.9964L12.3459 19.2374C12.4736 19.2855 12.6164 19.2225 12.6669 19.0956L14.9503 13.3576ZM16.4503 12.7509L19.2535 12.751V4.74708H16.4503V12.7509Z" fill="#001527"/>
</svg>
