<svg width="24" height="24" viewBox="0 0 24 24" fill="none" xmlns="http://www.w3.org/2000/svg">
<path fill-rule="evenodd" clip-rule="evenodd" d="M5.08619 2.625H17.1541C17.5316 2.62496 17.8779 2.62493 18.1625 2.65856C18.4733 2.69531 18.8064 2.7809 19.1004 3.02224C19.189 3.09496 19.2703 3.17621 19.343 3.26482C19.5843 3.55888 19.6699 3.89194 19.7067 4.20279C19.7403 4.48734 19.7403 4.83365 19.7402 5.21112V5.28885C19.7403 5.66632 19.7403 6.01267 19.7067 6.29722C19.6699 6.60807 19.5843 6.94113 19.343 7.23519C19.2703 7.3238 19.189 7.40505 19.1004 7.47777C18.8064 7.71911 18.4733 7.8047 18.1625 7.84145C17.8779 7.87508 17.5316 7.87505 17.1541 7.87501H5.08619C4.70869 7.87505 4.36235 7.87508 4.07779 7.84145C3.76694 7.8047 3.43388 7.71911 3.13982 7.47777C3.05121 7.40505 2.96996 7.3238 2.89724 7.23519C2.6559 6.94113 2.57031 6.60807 2.53356 6.29722C2.49993 6.01266 2.49996 5.66632 2.5 5.28882V5.21119C2.49996 4.83369 2.49993 4.48735 2.53356 4.20279C2.57031 3.89194 2.6559 3.55888 2.89724 3.26482C2.96996 3.17621 3.05121 3.09496 3.13982 3.02224C3.43388 2.7809 3.76694 2.69531 4.07779 2.65856C4.36235 2.62493 4.70869 2.62496 5.08619 2.625ZM4.08968 4.1831C4.10271 4.17686 4.14648 4.16089 4.25387 4.14819C4.43966 4.12623 4.6957 4.12501 5.12501 4.12501H17.1152C17.5445 4.12501 17.8006 4.12623 17.9864 4.14819C18.0938 4.16089 18.1373 4.17676 18.1503 4.183C18.1619 4.19265 18.1726 4.20333 18.1822 4.2149C18.1885 4.22792 18.2044 4.27148 18.2171 4.37887C18.239 4.56466 18.2402 4.8207 18.2402 5.25001C18.2402 5.67931 18.239 5.93535 18.2171 6.12114C18.2044 6.22853 18.1885 6.27209 18.1822 6.28511C18.1726 6.29668 18.1619 6.30736 18.1503 6.31701C18.1373 6.32325 18.0938 6.33912 17.9864 6.35182C17.8006 6.37378 17.5445 6.37501 17.1152 6.37501H5.12501C4.6957 6.37501 4.43966 6.37378 4.25387 6.35182C4.14648 6.33912 4.10293 6.32325 4.0899 6.31701C4.07833 6.30736 4.06765 6.29668 4.058 6.28511C4.05176 6.27209 4.03589 6.22853 4.02319 6.12114C4.00123 5.93535 4.00001 5.67931 4.00001 5.25001C4.00001 4.8207 4.00123 4.56466 4.02319 4.37887C4.03589 4.27148 4.05176 4.22793 4.058 4.2149C4.06765 4.20333 4.07811 4.19275 4.08968 4.1831Z" fill="#001527"/>
<path fill-rule="evenodd" clip-rule="evenodd" d="M8.85084 9.375H19.9138C20.2913 9.37496 20.6377 9.37493 20.9222 9.40856C21.2331 9.44531 21.5661 9.5309 21.8602 9.77224C21.9488 9.84496 22.0301 9.92621 22.1028 10.0148C22.3441 10.3089 22.4297 10.6419 22.4664 10.9528C22.5001 11.2374 22.5 11.5837 22.5 11.9612V12.0388C22.5 12.4163 22.5001 12.7627 22.4664 13.0472C22.4297 13.3581 22.3441 13.6911 22.1028 13.9852C22.0301 14.0738 21.9488 14.1551 21.8602 14.2278C21.5661 14.4691 21.2331 14.5547 20.9222 14.5914C20.6377 14.6251 20.2913 14.625 19.9138 14.625H8.85084C8.47334 14.625 8.127 14.6251 7.84244 14.5914C7.53159 14.5547 7.19853 14.4691 6.90447 14.2278C6.81586 14.1551 6.73461 14.0738 6.66189 13.9852C6.42055 13.6911 6.33496 13.3581 6.29821 13.0472C6.26458 12.7627 6.26461 12.4163 6.26465 12.0388V11.9612C6.26461 11.5837 6.26458 11.2374 6.29821 10.9528C6.33496 10.6419 6.42055 10.3089 6.66189 10.0148C6.73461 9.92621 6.81586 9.84496 6.90447 9.77224C7.19853 9.5309 7.53159 9.44531 7.84244 9.40856C8.127 9.37493 8.47334 9.37496 8.85084 9.375ZM7.85433 10.9331C7.86736 10.9269 7.91113 10.9109 8.01852 10.8982C8.20431 10.8762 8.46035 10.875 8.88965 10.875H19.875C20.3043 10.875 20.5604 10.8762 20.7461 10.8982C20.8535 10.9109 20.8971 10.9268 20.9101 10.933C20.9217 10.9427 20.9324 10.9533 20.942 10.9649C20.9483 10.9779 20.9641 11.0215 20.9768 11.1289C20.9988 11.3147 21 11.5707 21 12C21 12.4293 20.9988 12.6854 20.9768 12.8711C20.9641 12.9785 20.9483 13.0221 20.942 13.0351C20.9324 13.0467 20.9217 13.0574 20.9101 13.067C20.8971 13.0733 20.8535 13.0891 20.7461 13.1018C20.5604 13.1238 20.3043 13.125 19.875 13.125H8.88965C8.46035 13.125 8.20431 13.1238 8.01852 13.1018C7.91113 13.0891 7.86757 13.0733 7.85455 13.067C7.84297 13.0574 7.8323 13.0467 7.82265 13.0351C7.81641 13.0221 7.80054 12.9785 7.78784 12.8711C7.76588 12.6854 7.76465 12.4293 7.76465 12C7.76465 11.5707 7.76588 11.3147 7.78784 11.1289C7.80054 11.0215 7.81641 10.9779 7.82265 10.9649C7.8323 10.9533 7.84276 10.9428 7.85433 10.9331Z" fill="#001527"/>
<path fill-rule="evenodd" clip-rule="evenodd" d="M4.08424 16.125C3.70674 16.125 3.3604 16.1249 3.07583 16.1586C2.76499 16.1953 2.43193 16.2809 2.13786 16.5222C2.04925 16.595 1.968 16.6762 1.89528 16.7648C1.65395 17.0589 1.56835 17.3919 1.53161 17.7028C1.49797 17.9874 1.49801 18.3337 1.49805 18.7112V18.7888C1.49801 19.1663 1.49797 19.5127 1.53161 19.7972C1.56835 20.1081 1.65395 20.4411 1.89528 20.7352C1.968 20.8238 2.04925 20.9051 2.13786 20.9778C2.43193 21.2191 2.76499 21.3047 3.07583 21.3414C3.3604 21.3751 3.70674 21.375 4.08424 21.375H16.4724C16.8499 21.375 17.1963 21.3751 17.4808 21.3414C17.7917 21.3047 18.1247 21.2191 18.4188 20.9778C18.5074 20.9051 18.5886 20.8238 18.6614 20.7352C18.9027 20.4411 18.9883 20.1081 19.025 19.7972C19.0587 19.5127 19.0586 19.1664 19.0586 18.7889V18.7112C19.0586 18.3337 19.0587 17.9873 19.025 17.7028C18.9883 17.3919 18.9027 17.0589 18.6614 16.7648C18.5886 16.6762 18.5074 16.595 18.4188 16.5222C18.1247 16.2809 17.7917 16.1953 17.4808 16.1586C17.1963 16.1249 16.8499 16.125 16.4724 16.125H4.08424ZM3.25191 17.6482C3.14453 17.6609 3.10076 17.6769 3.08773 17.6831C3.07616 17.6928 3.0657 17.7033 3.05605 17.7149C3.04981 17.7279 3.03393 17.7715 3.02124 17.8789C2.99928 18.0647 2.99805 18.3207 2.99805 18.75C2.99805 19.1793 2.99928 19.4354 3.02124 19.6211C3.03393 19.7285 3.04981 19.7721 3.05605 19.7851C3.0657 19.7967 3.07637 19.8074 3.08795 19.817C3.10097 19.8233 3.14453 19.8391 3.25191 19.8518C3.4377 19.8738 3.69375 19.875 4.12305 19.875H16.4336C16.8629 19.875 17.1189 19.8738 17.3047 19.8518C17.4121 19.8391 17.4557 19.8232 17.4687 19.817C17.4803 19.8074 17.491 19.7967 17.5006 19.7851C17.5068 19.7721 17.5227 19.7285 17.5354 19.6211C17.5574 19.4354 17.5586 19.1793 17.5586 18.75C17.5586 18.3207 17.5574 18.0647 17.5354 17.8789C17.5227 17.7715 17.5068 17.7279 17.5006 17.7149C17.491 17.7033 17.4803 17.6927 17.4687 17.683C17.4557 17.6768 17.4121 17.6609 17.3047 17.6482C17.1189 17.6262 16.8629 17.625 16.4336 17.625H4.12305C3.69375 17.625 3.4377 17.6262 3.25191 17.6482Z" fill="#001527"/>
</svg>
