<svg width="24" height="24" viewBox="0 0 24 24" fill="none" xmlns="http://www.w3.org/2000/svg">
<path fill-rule="evenodd" clip-rule="evenodd" d="M17.1873 8.42686L17.5508 9.4365L18.9621 8.92842L17.2675 4.22109C17.1603 3.92352 16.8781 3.72513 16.5618 3.72513H15.4413C15.1251 3.72513 14.8428 3.92352 14.7357 4.22109L13.041 8.92842L14.4523 9.4365L14.8158 8.42686H17.1873ZM16.6473 6.92686L16.0347 5.22513H15.9684L15.3558 6.92686H16.6473Z" fill="#001527"/>
<path fill-rule="evenodd" clip-rule="evenodd" d="M11.4996 1.24609C10.2567 1.24609 9.24902 2.25373 9.24902 3.49672V9.49922C9.24902 10.7422 10.2567 11.7498 11.4996 11.7498H16.0202L18.154 13.8837C18.5115 14.2413 19.0493 14.3482 19.5164 14.1547C19.9836 13.9612 20.2882 13.5053 20.2882 12.9997V11.7498H20.5034C21.7464 11.7498 22.754 10.7422 22.754 9.49922V3.49672C22.754 2.25373 21.7464 1.24609 20.5034 1.24609H11.4996ZM10.749 3.49672C10.749 3.08216 11.0851 2.74609 11.4996 2.74609H20.5034C20.918 2.74609 21.254 3.08216 21.254 3.49672V9.49922C21.254 9.91378 20.918 10.2498 20.5034 10.2498H18.7882V12.3966L16.6415 10.2498H11.4996C11.0851 10.2498 10.749 9.91378 10.749 9.49922V3.49672Z" fill="#001527"/>
<path d="M2.74609 12.0003C2.74609 11.5857 3.08216 11.2496 3.49672 11.2496H7.74818V9.74963H3.49672C2.25373 9.74963 1.24609 10.7573 1.24609 12.0003V18.067C1.24609 19.31 2.25373 20.3176 3.49672 20.3176H3.74359V21.5032C3.74361 22.0089 4.04821 22.4647 4.51537 22.6582C4.98252 22.8517 5.52026 22.7448 5.87782 22.3872L7.94747 20.3176H11.5001C12.743 20.3176 13.7507 19.31 13.7507 18.067V13.2511H12.2507V18.067C12.2507 18.4815 11.9146 18.8176 11.5001 18.8176H7.32615L5.24359 20.9002V18.8176H3.49672C3.08216 18.8176 2.74609 18.4815 2.74609 18.067V12.0003Z" fill="#001527"/>
<path d="M6.6325 15.0563C6.46019 15.604 6.10255 16.0842 5.60872 16.4062L4.98047 16.8158L5.79974 18.0723L6.42799 17.6627C6.85135 17.3866 7.21205 17.0378 7.49795 16.6386C7.78386 17.0378 8.14457 17.3866 8.56793 17.6627L9.19618 18.0723L10.0154 16.8158L9.3872 16.4062C8.89337 16.0842 8.53572 15.604 8.36342 15.0563H9.99853V13.5563H8.24805V12.2828H6.74805V13.5563H4.99707V15.0563H6.6325Z" fill="#001527"/>
</svg>
