<svg width="24" height="24" viewBox="0 0 24 24" fill="none" xmlns="http://www.w3.org/2000/svg">
<path d="M9.75 9.72032V17.2803H8.25V9.72032H9.75Z" fill="#001527"/>
<path d="M12.75 18.3303V8.56032H11.25V18.3303H12.75Z" fill="#001527"/>
<path d="M15.75 9.72032V17.2803H14.25V9.72032H15.75Z" fill="#001527"/>
<path fill-rule="evenodd" clip-rule="evenodd" d="M9.6902 2.77832C8.92955 2.77832 8.2553 3.26966 8.0238 3.995L7.45283 5.77832H5.25V5.78032H4.25V7.28032H5.25L5.25 16.5243C5.24997 17.4228 5.24995 18.172 5.32991 18.7668C5.41432 19.3946 5.59999 19.9614 6.05546 20.4169C6.51093 20.8723 7.07773 21.058 7.70552 21.1424C8.3003 21.2224 9.04951 21.2224 9.94798 21.2223H14.052C14.9505 21.2224 15.6997 21.2224 16.2945 21.1424C16.9223 21.058 17.4891 20.8723 17.9445 20.4169C18.4 19.9614 18.5857 19.3946 18.6701 18.7668C18.7501 18.172 18.75 17.4228 18.75 16.5243L18.75 7.28032H19.75V5.78032H18.75V5.77832H16.5476L15.9763 3.99393C15.7438 3.27041 15.0708 2.77832 14.3102 2.77832H9.6902ZM15.9827 7.27832C15.9942 7.27859 16.0058 7.27859 16.0174 7.27832H17.25V16.4723C17.25 17.4363 17.2484 18.0839 17.1835 18.5669C17.1214 19.0284 17.0142 19.2259 16.8839 19.3562C16.7536 19.4865 16.5561 19.5937 16.0946 19.6558C15.6116 19.7207 14.964 19.7223 14 19.7223H10C9.03599 19.7223 8.38843 19.7207 7.90539 19.6558C7.44393 19.5937 7.24644 19.4865 7.11612 19.3562C6.9858 19.2259 6.87858 19.0284 6.81654 18.5669C6.7516 18.0839 6.75 17.4363 6.75 16.4723V7.27832H7.98305C7.99463 7.27859 8.00619 7.27859 8.01771 7.27832H15.9827ZM14.9726 5.77832L14.5481 4.45272C14.5145 4.3483 14.4176 4.27832 14.3102 4.27832H9.6902C9.58102 4.27832 9.48541 4.34876 9.45276 4.45115L9.02784 5.77832H14.9726Z" fill="#001527"/>
</svg>
