<svg width="24" height="24" viewBox="0 0 24 24" fill="none" xmlns="http://www.w3.org/2000/svg">
<path d="M10.6797 5.64812V1.57812H9.17969V5.64812H10.6797Z" fill="#001527"/>
<path d="M14.0411 6.40753C15.0122 5.43642 16.5874 5.43642 17.5585 6.40753C18.5296 7.37864 18.5296 8.95376 17.5585 9.92487L14.8951 12.5882L15.9558 13.6489L18.6191 10.9855C20.176 9.42864 20.176 6.90376 18.6191 5.34687C17.0622 3.78998 14.5374 3.78998 12.9805 5.34687L10.3171 8.0102L11.3778 9.07086L14.0411 6.40753Z" fill="#001527"/>
<path d="M6.42828 14.0985L9.09161 11.4352L8.03095 10.3745L5.36762 13.0378C3.81073 14.5947 3.81073 17.1196 5.36762 18.6765C6.92451 20.2334 9.44939 20.2334 11.0063 18.6765L13.6696 16.0132L12.609 14.9525L9.94562 17.6158C8.97451 18.587 7.39939 18.587 6.42828 17.6158C5.45717 16.6447 5.45717 15.0696 6.42828 14.0985Z" fill="#001527"/>
<path d="M1.83203 8.68018H5.90203V10.1802H1.83203V8.68018Z" fill="#001527"/>
<path d="M5.11022 3.5492L8.10088 6.53986L7.04022 7.60052L4.04956 4.60986L5.11022 3.5492Z" fill="#001527"/>
<path d="M18.1097 15.25H22.1797V13.75H18.1097V15.25Z" fill="#001527"/>
<path d="M13.332 22.3521V18.2821H14.832V22.3521H13.332Z" fill="#001527"/>
<path d="M15.9108 17.3898L18.9015 20.3805L19.9622 19.3198L16.9715 16.3292L15.9108 17.3898Z" fill="#001527"/>
</svg>
