<svg width="24" height="24" viewBox="0 0 24 24" fill="none" xmlns="http://www.w3.org/2000/svg">
<path fill-rule="evenodd" clip-rule="evenodd" d="M8.75 6C8.75 4.20521 10.2052 2.75 12 2.75C13.7948 2.75 15.25 4.20521 15.25 6V9.25918C15.1848 9.25915 15.1188 9.25915 15.052 9.25916H8.948C8.04952 9.25913 7.30031 9.2591 6.70552 9.33907C6.07773 9.42347 5.51093 9.60914 5.05546 10.0646C4.59999 10.5201 4.41432 11.0869 4.32991 11.7147C4.24995 12.3095 4.24997 13.0587 4.25 13.9571V17.0283C4.24997 17.9267 4.24995 18.676 4.32991 19.2707C4.41432 19.8985 4.59999 20.4653 5.05546 20.9208C5.51093 21.3763 6.07773 21.5619 6.70552 21.6463C7.3003 21.7263 8.04951 21.7263 8.94798 21.7263H15.052C15.9505 21.7263 16.6997 21.7263 17.2945 21.6463C17.9223 21.5619 18.4891 21.3763 18.9445 20.9208C19.4 20.4653 19.5857 19.8985 19.6701 19.2707C19.7501 18.676 19.75 17.9268 19.75 17.0283V13.9572C19.75 13.0587 19.7501 12.3095 19.6701 11.7147C19.5857 11.0869 19.4 10.5201 18.9445 10.0646C18.4891 9.60914 17.9223 9.42347 17.2945 9.33907C17.1254 9.31634 16.9439 9.30007 16.75 9.28843V6C16.75 3.37679 14.6232 1.25 12 1.25C9.37679 1.25 7.25 3.37679 7.25 6V6.75H8.75V6ZM6.11612 11.1253C6.24644 10.995 6.44393 10.8877 6.9054 10.8257C7.38843 10.7607 8.03599 10.7592 9 10.7592H15C15.964 10.7592 16.6116 10.7607 17.0946 10.8257C17.5561 10.8877 17.7536 10.995 17.8839 11.1253C18.0142 11.2556 18.1214 11.4531 18.1835 11.9145C18.2484 12.3976 18.25 13.0451 18.25 14.0092V16.9763C18.25 17.9403 18.2484 18.5878 18.1835 19.0709C18.1214 19.5323 18.0142 19.7298 17.8839 19.8601C17.7536 19.9905 17.5561 20.0977 17.0946 20.1597C16.6116 20.2247 15.964 20.2263 15 20.2263H9C8.03599 20.2263 7.38843 20.2247 6.9054 20.1597C6.44393 20.0977 6.24644 19.9905 6.11612 19.8601C5.9858 19.7298 5.87858 19.5323 5.81654 19.0709C5.7516 18.5878 5.75 17.9403 5.75 16.9763V14.0092C5.75 13.0451 5.7516 12.3976 5.81654 11.9145C5.87858 11.4531 5.9858 11.2556 6.11612 11.1253Z" fill="#001527"/>
</svg>
