<svg width="24" height="24" viewBox="0 0 24 24" fill="none" xmlns="http://www.w3.org/2000/svg">
<path fill-rule="evenodd" clip-rule="evenodd" d="M19.0215 19.1982L17.4383 17.6149L17.4343 17.6176L16.3528 16.5361L16.3569 16.5335L14.8693 15.0459L14.8658 15.0491L13.8029 13.9862L13.8066 13.9832L10.0703 10.2469L10.0673 10.2506L9.0033 9.18666L9.00649 9.18312L7.59971 7.77634L7.59567 7.77903L6.51573 6.69909L6.51971 6.69634L4.97876 5.15539L6.03942 4.09473L7.83003 5.88534C9.12972 5.17669 10.5509 4.69192 12.0195 4.68424C14.486 4.67133 16.7057 5.87579 18.4863 7.29112C20.2754 8.71321 21.7049 10.4153 22.5987 11.5355L22.9558 11.9832L22.618 12.4457C21.7799 13.593 20.3844 15.2718 18.6479 16.7032L20.0822 18.1375L19.0215 19.1982ZM21.0618 12.0202C20.237 13.0897 19.0247 14.4685 17.5819 15.6372L15.6618 13.7171C15.7034 13.5363 15.725 13.3508 15.7377 13.1589C15.7576 12.8576 15.7576 12.4897 15.7576 12.048V11.9988C15.7576 11.5571 15.7576 11.1892 15.7377 10.8879C15.717 10.5751 15.6725 10.2792 15.5566 9.99306C15.2772 9.30278 14.7298 8.75533 14.0395 8.4759C13.7542 8.36041 13.4606 8.31566 13.15 8.29489C12.8515 8.27494 12.4881 8.27495 12.0528 8.27496H12.0033C11.5681 8.27495 11.2047 8.27494 10.9062 8.29489C10.7053 8.30832 10.5116 8.33178 10.3226 8.37791L8.94224 6.99755C9.95859 6.49615 11.0007 6.18959 12.0273 6.18422C14.0017 6.17388 15.8917 7.14489 17.5529 8.46536C18.9912 9.60859 20.1961 10.9641 21.0618 12.0202ZM14.2576 12.0234C14.2576 12.127 14.2576 12.2231 14.2574 12.3127L11.7199 9.77523C11.8147 9.77498 11.917 9.77496 12.0281 9.77496C12.4945 9.77496 12.8074 9.77535 13.0499 9.79155C13.2858 9.80732 13.4009 9.83564 13.4766 9.86629C13.7904 9.99331 14.0392 10.2421 14.1662 10.5559C14.1965 10.6308 14.2251 10.7467 14.2409 10.9868C14.2572 11.2328 14.2576 11.5508 14.2576 12.0234Z" fill="#001527"/>
<path d="M5.30825 7.61293C3.66882 8.95918 2.32443 10.4895 1.48826 11.5347L1.13086 11.9815L1.46727 12.4443C2.33248 13.6345 3.8268 15.3794 5.65258 16.8352C7.46162 18.2776 9.70034 19.5195 12.0361 19.5195C13.4763 19.5195 14.8538 19.0794 16.1124 18.417L14.9938 17.2985C14.0298 17.7495 13.0338 18.0195 12.0361 18.0195C10.2072 18.0195 8.30066 17.0282 6.58772 15.6624C5.11321 14.4867 3.85919 13.0951 3.02676 12.0226C3.84848 11.0382 5.01346 9.77885 6.37442 8.67909L5.30825 7.61293Z" fill="#001527"/>
<path d="M8.34052 10.6452C8.33096 10.725 8.3239 10.8059 8.31848 10.8879C8.29857 11.1892 8.29858 11.5571 8.29858 11.9988V12.048C8.29858 12.4897 8.29857 12.8576 8.31848 13.1589C8.33915 13.4717 8.38369 13.7676 8.49953 14.0538C8.77896 14.7441 9.32641 15.2915 10.0167 15.5709C10.302 15.6864 10.5956 15.7312 10.9062 15.7519C11.2047 15.7719 11.5681 15.7719 12.0034 15.7719H12.0528C12.4881 15.7719 12.8515 15.7719 13.15 15.7519C13.2418 15.7458 13.3322 15.7376 13.4213 15.726L11.9672 14.2719C11.5342 14.2718 11.238 14.2708 11.0063 14.2553C10.7703 14.2395 10.6553 14.2112 10.5795 14.1805C10.2658 14.0535 10.0169 13.8047 9.88992 13.4909C9.85962 13.4161 9.83108 13.3001 9.81522 13.06C9.7999 12.8282 9.79868 12.5323 9.79859 12.1033L8.34052 10.6452Z" fill="#001527"/>
</svg>
