<svg width="24" height="24" viewBox="0 0 24 24" fill="none" xmlns="http://www.w3.org/2000/svg">
<path d="M11.8281 14.6335L15.8609 10.6007L14.8002 9.54001L11.2979 13.0423L9.19812 10.9416L8.13721 12.002L10.7673 14.6333C10.9079 14.774 11.0987 14.8531 11.2977 14.8531C11.4966 14.8532 11.6874 14.7741 11.8281 14.6335Z" fill="#001527"/>
<path fill-rule="evenodd" clip-rule="evenodd" d="M14.2491 3.72837L12.0327 1.68262L9.81635 3.72837L6.87403 3.06489L5.97746 5.94475L3.0976 6.84132L3.76108 9.78363L1.71533 12L3.76108 14.2164L3.0976 17.1587L5.97746 18.0553L6.87403 20.9351L9.81635 20.2717L12.0327 22.3174L14.2491 20.2717L17.1914 20.9351L18.088 18.0553L20.9679 17.1587L20.3044 14.2164L22.3501 12L20.3044 9.78363L20.9679 6.84132L18.088 5.94475L17.1914 3.06489L14.2491 3.72837ZM10.2549 5.36491L12.0327 3.72391L13.8106 5.36491L16.1708 4.8327L16.89 7.14278L19.2 7.86197L18.6678 10.2221L20.3088 12L18.6678 13.7779L19.2 16.1381L16.89 16.8572L16.1708 19.1673L13.8106 18.6351L12.0327 20.2761L10.2549 18.6351L7.89468 19.1673L7.1755 16.8572L4.86542 16.1381L5.39763 13.7779L3.75663 12L5.39763 10.2221L4.86542 7.86197L7.1755 7.14278L7.89468 4.8327L10.2549 5.36491Z" fill="#001527"/>
</svg>
