<svg width="24" height="24" viewBox="0 0 24 24" fill="none" xmlns="http://www.w3.org/2000/svg">
<path d="M12.6885 9.09857V15.0932H11.1885V9.09857H12.6885Z" fill="#001527"/>
<path d="M12.7354 17.3549C12.7354 17.795 12.3786 18.1518 11.9385 18.1518C11.4984 18.1518 11.1416 17.795 11.1416 17.3549C11.1416 16.9148 11.4984 16.558 11.9385 16.558C12.3786 16.558 12.7354 16.9148 12.7354 17.3549Z" fill="#001527"/>
<path fill-rule="evenodd" clip-rule="evenodd" d="M14.3827 3.75518C13.3246 1.92015 10.6762 1.92015 9.61809 3.75518L1.5964 17.6664C0.539235 19.4997 1.86241 21.7901 3.97871 21.7901H20.0221C22.1384 21.7901 23.4616 19.4997 22.4044 17.6664L14.3827 3.75518ZM10.9175 4.50449C11.3985 3.67038 12.6023 3.67038 13.0833 4.50449L21.105 18.4157C21.5855 19.249 20.984 20.2901 20.0221 20.2901H3.97871C3.01676 20.2901 2.41531 19.249 2.89584 18.4157L10.9175 4.50449Z" fill="#001527"/>
</svg>
