<svg width="24" height="24" viewBox="0 0 24 24" fill="none" xmlns="http://www.w3.org/2000/svg">
<path d="M12.7502 7.09841V13.093H11.2502V7.09841H12.7502Z" fill="#001527"/>
<path d="M11.9999 16.1516C12.44 16.1516 12.7967 15.7949 12.7967 15.3548C12.7967 14.9147 12.44 14.5579 11.9999 14.5579C11.5598 14.5579 11.203 14.9147 11.203 15.3548C11.203 15.7949 11.5598 16.1516 11.9999 16.1516Z" fill="#001527"/>
<path fill-rule="evenodd" clip-rule="evenodd" d="M7.94321 2.20605H16.0568L21.7939 7.94321V16.0568L16.0568 21.7939H7.94321L2.20605 16.0568V7.94321L7.94321 2.20605ZM3.70605 8.56453V15.4354L8.56453 20.2939L15.4354 20.2939L20.2939 15.4354L20.2939 8.56453L15.4354 3.70605L8.56453 3.70605L3.70605 8.56453Z" fill="#001527"/>
</svg>
