<svg width="24" height="24" viewBox="0 0 24 24" fill="none" xmlns="http://www.w3.org/2000/svg">
<path d="M2.09004 8.36632C7.5535 3.54456 16.446 3.54456 21.9095 8.36632L22.4718 8.8626L23.4644 7.73795L22.902 7.24168C16.8715 1.91944 7.12802 1.91944 1.09748 7.24168L0.535156 7.73795L1.52771 8.8626L2.09004 8.36632Z" fill="#001527"/>
<path d="M5.09786 12.3675C8.90308 8.87751 15.0958 8.87751 18.901 12.3675L19.4537 12.8744L20.4676 11.769L19.9149 11.262C15.5361 7.24599 8.46276 7.24599 4.08398 11.262L3.53125 11.769L4.54513 12.8744L5.09786 12.3675Z" fill="#001527"/>
<path d="M15.3156 16.1155C13.4852 14.2948 10.5147 14.2948 8.6843 16.1155L8.15255 16.6444L7.09473 15.5809L7.62647 15.052C10.042 12.6493 13.9579 12.6493 16.3734 15.052L16.9051 15.5809L15.8473 16.6444L15.3156 16.1155Z" fill="#001527"/>
<path d="M11.9994 20.2378C12.6139 20.2378 13.1121 19.7396 13.1121 19.1251C13.1121 18.5106 12.6139 18.0124 11.9994 18.0124C11.3849 18.0124 10.8867 18.5106 10.8867 19.1251C10.8867 19.7396 11.3849 20.2378 11.9994 20.2378Z" fill="#001527"/>
</svg>
