<svg width="24" height="24" viewBox="0 0 24 24" fill="none" xmlns="http://www.w3.org/2000/svg">
<path fill-rule="evenodd" clip-rule="evenodd" d="M17.75 2.27344H6.21798L6.21799 4.25H2.27393V7.96952C2.27393 10.6362 4.37815 12.8115 7.01679 12.9255C7.90246 14.4213 9.44662 15.481 11.2502 15.7056V17.25H8.33444C7.58118 17.25 6.91243 17.732 6.67423 18.4466L6.334 19.4673L5.71798 21.75H18.3372L18.0614 20.7918L18.0142 20.6284C17.9852 20.5282 17.9453 20.3914 17.9023 20.2449C17.8181 19.9582 17.7158 19.6147 17.6598 19.4466L17.3264 18.4466C17.0882 17.732 16.4195 17.25 15.6662 17.25H12.7502V15.7015C14.5312 15.4694 16.056 14.4225 16.9384 12.947C19.6093 12.8684 21.7504 10.6785 21.7504 7.98856V4.26904H17.75L17.75 2.27344ZM6.37059 11.3214C6.27186 10.9017 6.21913 10.4641 6.218 10.0145L6.21799 5.75H3.77393V7.96952C3.77393 9.58247 4.87739 10.9377 6.37059 11.3214ZM20.2504 7.98856C20.2504 9.62472 19.115 10.9957 17.5891 11.3565C17.6932 10.926 17.7488 10.4766 17.75 10.0145L17.75 5.76904H20.2504V7.98856ZM7.718 10.0107L7.71798 3.77344H16.25L16.25 10.0107C16.2441 12.3495 14.3496 14.2441 12.0107 14.25H11.9573C9.61843 14.2441 7.72388 12.3495 7.718 10.0107ZM8.33443 18.75H15.6662C15.7738 18.75 15.8694 18.8189 15.9034 18.9209L16.2367 19.9209C16.2604 19.992 16.2971 20.1108 16.3391 20.25H7.67644L7.77082 19.9002L8.09725 18.9209C8.13128 18.8189 8.22682 18.75 8.33443 18.75Z" fill="#001527"/>
</svg>
