<svg width="24" height="24" viewBox="0 0 24 24" fill="none" xmlns="http://www.w3.org/2000/svg">
<path fill-rule="evenodd" clip-rule="evenodd" d="M21.75 12.0001C21.75 17.3764 17.4283 21.718 12.0597 21.7499C12.0203 21.7508 11.9809 21.7508 11.9415 21.75C6.57236 21.7186 2.25 17.3768 2.25 12.0001C2.25 6.61437 6.58692 2.26701 11.9686 2.25017C11.9895 2.24994 12.0104 2.24994 12.0313 2.25017C17.4131 2.26698 21.75 6.61435 21.75 12.0001ZM11.7774 11.2501L10.1332 5.72105C9.31845 7.46204 8.86371 9.34776 8.76912 11.2501H11.7774ZM11.7774 11.2501L10.1332 5.72105C10.3368 5.28605 10.5629 4.86008 10.8114 4.44513C11.0848 3.98857 11.5314 3.75673 11.9805 3.75014L12 3.75012L12.0201 3.75015C12.469 3.75676 12.9157 3.98833 13.1896 4.44513C14.4328 6.52083 15.1136 8.87248 15.2319 11.2501H11.7774ZM8.76911 12.7501C8.88729 15.1279 9.56806 17.4795 10.8114 19.5554C11.0818 20.007 11.5217 20.2386 11.9658 20.2501L12 20.2501L12.0354 20.25C12.4794 20.2385 12.9192 20.007 13.1895 19.5555C13.438 19.1405 13.6642 18.7144 13.8678 18.2794C14.6826 16.5384 15.1373 14.6526 15.2319 12.7501H8.76911ZM16.7336 12.7501C16.6235 15.1841 15.9776 17.5957 14.7957 19.7673C17.7563 18.7063 19.9254 16.0052 20.2166 12.7501H16.7336ZM20.2166 11.2501H16.7335C16.6235 8.81612 15.9775 6.40447 14.7955 4.23291C17.7562 5.29383 19.9254 7.99503 20.2166 11.2501ZM3.78338 12.7501C4.07463 16.0056 6.24428 18.707 9.20555 19.7677C8.02348 17.596 7.37744 15.1843 7.26742 12.7501H3.78338ZM7.26744 11.2501H3.78338C4.07464 7.99458 6.24436 5.29309 9.20572 4.23248C8.02359 6.40414 7.37749 8.81595 7.26744 11.2501Z" fill="#001527"/>
</svg>
